<svg xmlns="http://www.w3.org/2000/svg" xmlns:xlink="http://www.w3.org/1999/xlink" width="60" height="60" viewBox="0 0 60 60">
  <defs>
    <clipPath id="clip-Online">
      <rect width="60" height="60"/>
    </clipPath>
  </defs>
  <g id="Online" clip-path="url(#clip-Online)">
    <rect id="Rectangle_4860" data-name="Rectangle 4860" width="50" height="50" transform="translate(0 -25)" fill="none"/>
    <g id="Group_22536" data-name="Group 22536" transform="translate(10378 11327)">
      <rect id="Rectangle_4854" data-name="Rectangle 4854" width="55" height="55" transform="translate(-10375 -11324)" fill="none"/>
      <g id="Group_22517" data-name="Group 22517" transform="translate(-10375 -11318.499)">
        <path id="Subtraction_4" data-name="Subtraction 4" d="M23.375,44H4.125A4.119,4.119,0,0,1,0,39.929,9.626,9.626,0,0,1,9.625,30.25a1.953,1.953,0,0,1,.605.094,11.268,11.268,0,0,0,3.52.594,11.252,11.252,0,0,0,3.518-.594,1.962,1.962,0,0,1,.607-.094A9.627,9.627,0,0,1,27.5,39.929,4.119,4.119,0,0,1,23.375,44ZM41.3,35.751H29.859a10.938,10.938,0,0,0-3.411-5.5H33v-5.5H44v5.5h2.266a7.047,7.047,0,0,0-4.964,5.5ZM54.417,33.67v0A7,7,0,0,0,49.5,30.089V5.5H19.25v4.28a10.815,10.815,0,0,0-5.5-1.529V4.262A4.2,4.2,0,0,1,17.875,0h33A4.2,4.2,0,0,1,55,4.262V31.489a4.356,4.356,0,0,1-.582,2.179ZM13.75,27.5A8.25,8.25,0,1,1,22,19.25,8.26,8.26,0,0,1,13.75,27.5Z" transform="translate(0 0.5)" fill="#475c6e"/>
        <ellipse id="Ellipse_101" data-name="Ellipse 101" cx="6.029" cy="5.481" rx="6.029" ry="5.481" transform="translate(42.189 31.051)" fill="#85b76e"/>
      </g>
    </g>
  </g>
</svg>
