<svg xmlns="http://www.w3.org/2000/svg" xmlns:xlink="http://www.w3.org/1999/xlink" width="60" height="60" viewBox="0 0 60 60">
  <defs>
    <clipPath id="clip-Certificate_">
      <rect width="60" height="60"/>
    </clipPath>
  </defs>
  <g id="Certificate_" data-name="Certificate " clip-path="url(#clip-Certificate_)">
    <g id="Group_22523" data-name="Group 22523" transform="translate(8751 15638)">
      <rect id="Rectangle_4856" data-name="Rectangle 4856" width="56" height="56" transform="translate(-8749 -15636)" fill="none"/>
      <g id="icons_Q2" data-name="icons Q2" transform="translate(-8740.229 -15636)">
        <path id="Path_262" data-name="Path 262" d="M48.7,22.357A20.349,20.349,0,1,0,16.9,39.145V55.3a2.671,2.671,0,0,0,2.544,2.671,1.908,1.908,0,0,0,1.4-.509l7.5-5.85,7.5,5.85a1.908,1.908,0,0,0,1.4.509A2.671,2.671,0,0,0,39.8,55.3V39.145a20.349,20.349,0,0,0,8.9-16.788Zm-35.61,0A15.261,15.261,0,1,1,28.349,37.618,15.262,15.262,0,0,1,13.088,22.357Zm21.62,27.725-5.6-4.324a1.145,1.145,0,0,0-1.526,0l-5.6,4.324V41.688a21.493,21.493,0,0,0,6.359,1.017,21.493,21.493,0,0,0,6.359-1.017Z" transform="translate(-7.998 -1.97)" fill="#95a0a4"/>
        <path id="Path_263" data-name="Path 263" d="M21.045,21.783l-.636,3.943a1.4,1.4,0,0,0,1.908,1.4l3.307-2.416,3.307,2.416a1.4,1.4,0,0,0,1.908-1.4L30.2,21.783l2.671-2.544a1.4,1.4,0,0,0-.763-2.289l-3.688-.509-1.653-3.688a1.272,1.272,0,0,0-2.289,0l-1.653,3.688-3.688.509a1.4,1.4,0,0,0-.763,2.289Z" transform="translate(-5.272 0.766)" fill="#95a0a4"/>
      </g>
    </g>
  </g>
</svg>
