<svg xmlns="http://www.w3.org/2000/svg" xmlns:xlink="http://www.w3.org/1999/xlink" width="60" height="60" viewBox="0 0 60 60">
  <defs>
    <clipPath id="clip-Languages_">
      <rect width="60" height="60"/>
    </clipPath>
  </defs>
  <g id="Languages_" data-name="Languages " clip-path="url(#clip-Languages_)">
    <g id="Group_22524" data-name="Group 22524" transform="translate(8554 15640)">
      <rect id="Rectangle_4858" data-name="Rectangle 4858" width="50" height="50" transform="translate(-8549 -15635)" fill="none"/>
      <g id="icons_Q2" data-name="icons Q2" transform="translate(-8548 -15635)">
        <path id="Path_265" data-name="Path 265" d="M51.36,48.646,39.58,19.019a2.5,2.5,0,0,0-2.261-1.547H34.94a2.5,2.5,0,0,0-2.261,1.547l-5.711,14.4A28.556,28.556,0,0,1,20.305,28.3c4.045-4.759,7.02-10.471,7.377-15.587h2.38a2.5,2.5,0,0,0,2.5-2.023,2.38,2.38,0,0,0-2.38-2.737H20.067V4.5A2.5,2.5,0,0,0,18.044,2a2.38,2.38,0,0,0-2.737,2.38v3.57H6.5A2.5,2.5,0,0,0,4,9.976a2.38,2.38,0,0,0,2.38,2.737H22.923c-.357,3.57-2.737,7.972-5.83,12.017a40.573,40.573,0,0,1-3.807-5.83,2.5,2.5,0,0,0-2.618-1.428A2.38,2.38,0,0,0,9,20.923,46.523,46.523,0,0,0,13.88,28.3a28.556,28.556,0,0,1-8.329,5.949A2.618,2.618,0,0,0,4,36.985a2.38,2.38,0,0,0,2.38,1.9l.952-.238a31.412,31.412,0,0,0,9.757-6.9,33.434,33.434,0,0,0,8.091,6.068L20.9,48.646a2.38,2.38,0,0,0,2.142,3.332A2.618,2.618,0,0,0,25.3,50.431l4.64-11.541H42.317l4.64,11.541a2.618,2.618,0,0,0,2.261,1.547,2.38,2.38,0,0,0,2.142-3.332ZM31.846,34.13,36.13,23.3,40.413,34.13Z" transform="translate(-3.977 -1.977)" fill="#95a0a4"/>
      </g>
    </g>
  </g>
</svg>
