<svg xmlns="http://www.w3.org/2000/svg" xmlns:xlink="http://www.w3.org/1999/xlink" width="50" height="50" viewBox="0 0 50 50">
  <defs>
    <clipPath id="clip-path">
      <rect id="Rectangle_59" data-name="Rectangle 59" width="41" height="38" transform="translate(-0.32 0.372)" fill="none"/>
    </clipPath>
    <clipPath id="clip-_03">
      <rect width="50" height="50"/>
    </clipPath>
  </defs>
  <g id="_03" data-name="03" clip-path="url(#clip-_03)">
    <g id="Vector_Smart_Object" data-name="Vector Smart Object" transform="translate(5.32 5.628)">
      <g id="Group_721" data-name="Group 721">
        <g id="Group_720" data-name="Group 720" clip-path="url(#clip-path)">
          <path id="Path_771" data-name="Path 771" d="M0,0Q4.291,0,8.581,0c.534,2.209,1.059,4.421,1.591,6.63q15.093,0,30.187,0v.026q-2.31,9.556-4.587,19.121-10.507,0-21.012,0,.461,1.941.929,3.881,7.647,0,15.292,0a7.56,7.56,0,0,1,1.578.088,4.368,4.368,0,0,1,2.872,2.093,4.707,4.707,0,0,1,.519,3.408A4.55,4.55,0,0,1,34,38.068a4.194,4.194,0,0,1-3.7.429,4.472,4.472,0,0,1-2.645-2.663,4.8,4.8,0,0,1,.058-3.425H18.058a4.789,4.789,0,0,1,.218,2.9,4.55,4.55,0,0,1-2.033,2.82,4.191,4.191,0,0,1-3.6.369,4.457,4.457,0,0,1-2.53-2.371,4.729,4.729,0,0,1-.083-3.652,4.466,4.466,0,0,1,2.974-2.682Q9.771,16.27,6.528,2.75q-3.263,0-6.528,0ZM10.83,9.379c.436,1.817.868,3.635,1.308,5.451,1.31,0,2.62,0,3.93,0-.222-1.816-.435-3.632-.654-5.448H10.83m7.239,0q.322,2.725.651,5.45c1.3,0,2.6,0,3.9,0,0-1.818.008-3.636,0-5.453-1.517,0-3.035,0-4.551,0m7.191,0q0,2.724,0,5.449c1.3,0,2.6,0,3.9,0,.225-1.811.426-3.627.66-5.436-1.52-.035-3.042-.006-4.562-.015m7.227-.008c-.069.314-.086.637-.13.955-.175,1.5-.37,3-.531,4.509,1.286-.013,2.571,0,3.858-.007.423-1.819.892-3.63,1.289-5.455-1.495.008-2.99.012-4.485,0m-19.7,8.22c.453,1.81.871,3.628,1.312,5.441q1.473,0,2.947,0-.324-2.728-.653-5.455c-1.2.008-2.4-.019-3.606.014m6.261-.015c.206,1.754.423,3.508.627,5.263.006.1.025.258.176.2.924-.007,1.848,0,2.772,0q0-2.727,0-5.454H19.05m6.208,0c0,1.819,0,3.636,0,5.455h2.919c.218-1.819.443-3.639.651-5.459-1.191.007-2.381,0-3.572,0m6.23,0c-.216,1.819-.437,3.636-.652,5.455.961,0,1.923,0,2.884,0,.429-1.819.871-3.635,1.3-5.453-1.178,0-2.357,0-3.535,0M13.507,32.5a1.8,1.8,0,0,0-1.169,1.6,1.82,1.82,0,0,0,.877,1.665,1.66,1.66,0,0,0,1.651.018,1.8,1.8,0,0,0,.9-1.351,1.833,1.833,0,0,0-.687-1.678,1.664,1.664,0,0,0-1.568-.257m17.66,0A1.8,1.8,0,0,0,30,34.1a1.825,1.825,0,0,0,.828,1.637,1.66,1.66,0,0,0,1.7.047,1.808,1.808,0,0,0,.906-1.439,1.829,1.829,0,0,0-.7-1.592,1.665,1.665,0,0,0-1.567-.256" fill="#fff"/>
        </g>
      </g>
    </g>
  </g>
</svg>
