<svg xmlns="http://www.w3.org/2000/svg" xmlns:xlink="http://www.w3.org/1999/xlink" width="50" height="50" viewBox="0 0 50 50">
  <defs>
    <clipPath id="clip-_001">
      <rect width="50" height="50"/>
    </clipPath>
  </defs>
  <g id="_001" data-name="001" clip-path="url(#clip-_001)">
    <g id="Vector_Smart_Object" data-name="Vector Smart Object" transform="translate(-292.63 -44)">
      <g id="Vector_Smart_Object-2" data-name="Vector Smart Object" transform="translate(298.631 48)">
        <g id="Group_14" data-name="Group 14" transform="translate(0)">
          <g id="Group_13" data-name="Group 13" transform="translate(5.128)">
            <path id="Path_19" data-name="Path 19" d="M15.965,0H16.5a12.009,12.009,0,0,1,4.064.817A11.492,11.492,0,0,1,26.558,6.19a10.865,10.865,0,0,1,1.088,6.654,11.025,11.025,0,0,1-2.858,5.836,11.636,11.636,0,0,1-6.727,3.544A11.846,11.846,0,0,1,10.8,21.045,11.4,11.4,0,0,1,5.636,15.61a10.872,10.872,0,0,1-.622-7.054,11.183,11.183,0,0,1,4.12-6.182A11.806,11.806,0,0,1,15.965,0Zm-.757,3.377A8.231,8.231,0,0,0,10.47,5.645a7.75,7.75,0,0,0-2.314,4.7,7.656,7.656,0,0,0,1.215,5.039,8.14,8.14,0,0,0,4.857,3.418,8.344,8.344,0,0,0,5.573-.555,8.051,8.051,0,0,0,3.806-3.774,7.646,7.646,0,0,0,.412-5.531A7.957,7.957,0,0,0,20.365,4.41,8.324,8.324,0,0,0,15.209,3.377Z" transform="translate(-4.692)"/>
          </g>
          <path id="Path_20" data-name="Path 20" d="M15.175,15.861a36.936,36.936,0,0,1,4.2-.118,16.26,16.26,0,0,1,4.878.665,2.763,2.763,0,0,1,1.159.533,1.63,1.63,0,0,1,.413,1.814A1.711,1.711,0,0,1,24.336,19.8a2.72,2.72,0,0,1-1.042-.206,12.746,12.746,0,0,0-3.921-.533,25.729,25.729,0,0,0-4.462.195,12.258,12.258,0,0,0-7.1,4.015,11.489,11.489,0,0,0-2.836,7.311,1.946,1.946,0,0,1-.232,1.06,1.768,1.768,0,0,1-1.321.839H3.1A1.7,1.7,0,0,1,1.55,30.9,14.509,14.509,0,0,1,2.6,25.355a15.2,15.2,0,0,1,4.882-6.376A15.758,15.758,0,0,1,15.175,15.861Z" transform="translate(-1.549 9.938)"/>
          <path id="Path_21" data-name="Path 21" d="M22.412,16.12a1.762,1.762,0,0,1,1.79-.06,1.653,1.653,0,0,1,.864,1.446q0,2.48,0,4.961c1.7.006,3.4,0,5.093,0a1.731,1.731,0,0,1,1.493.788,1.616,1.616,0,0,1,0,1.733,1.734,1.734,0,0,1-1.5.793q-2.545,0-5.089,0,0,2.444,0,4.889a1.71,1.71,0,0,1-1.546,1.737H23.2a1.7,1.7,0,0,1-1.55-1.586c-.009-1.68,0-3.36,0-5.04-1.725,0-3.452,0-5.177,0a1.7,1.7,0,0,1-1.626-1.32,1.647,1.647,0,0,1,.939-1.828,2.855,2.855,0,0,1,1.293-.162c1.525,0,3.048,0,4.573,0,0-1.657,0-3.314,0-4.97A1.645,1.645,0,0,1,22.412,16.12Z" transform="translate(6.82 10.003)"/>
        </g>
      </g>
      <path id="Color_Overlay" data-name="Color Overlay" d="M30.022,42.414a1.7,1.7,0,0,1-1.549-1.587c-.009-1.68,0-3.359-.006-5.039-.768,0-1.534,0-2.3,0q-1.438,0-2.878,0a1.7,1.7,0,0,1-1.624-1.321,1.646,1.646,0,0,1,.937-1.828,2.857,2.857,0,0,1,1.293-.161h1.959c.872,0,1.741,0,2.615,0,0-1.658,0-3.314,0-4.97a1.645,1.645,0,0,1,.765-1.379,1.755,1.755,0,0,1,1.788-.06,1.652,1.652,0,0,1,.866,1.446c0,1.653,0,3.308,0,4.961,1.079,0,2.161,0,3.239,0h1.854a1.73,1.73,0,0,1,1.492.788,1.614,1.614,0,0,1,0,1.732,1.734,1.734,0,0,1-1.5.793H34.8c-.969,0-1.939,0-2.908,0v4.889a1.711,1.711,0,0,1-1.546,1.737Zm-28.471,0A1.7,1.7,0,0,1,0,40.84a14.546,14.546,0,0,1,1.057-5.548,15.223,15.223,0,0,1,4.882-6.376A15.769,15.769,0,0,1,13.627,25.8a23.6,23.6,0,0,1,3.091-.119c.368,0,.738,0,1.105,0a16.292,16.292,0,0,1,4.879.665,2.774,2.774,0,0,1,1.158.533,1.63,1.63,0,0,1,.413,1.815,1.708,1.708,0,0,1-1.484,1.041,2.719,2.719,0,0,1-1.041-.206,12.79,12.79,0,0,0-3.922-.534c-.367,0-.734,0-1.1,0a17.158,17.158,0,0,0-3.362.2,12.264,12.264,0,0,0-7.1,4.015,11.493,11.493,0,0,0-2.837,7.31,1.954,1.954,0,0,1-.23,1.06,1.767,1.767,0,0,1-1.321.84Zm9.687-21.369A11.409,11.409,0,0,1,6.071,15.61a10.877,10.877,0,0,1-.622-7.053A11.194,11.194,0,0,1,9.57,2.374,11.81,11.81,0,0,1,16.4,0h.531A11.994,11.994,0,0,1,21,.816,11.489,11.489,0,0,1,26.993,6.19a10.874,10.874,0,0,1,1.091,6.654,11.051,11.051,0,0,1-2.857,5.836A11.639,11.639,0,0,1,18.5,22.224a11.859,11.859,0,0,1-7.26-1.179ZM15.647,3.377a8.239,8.239,0,0,0-4.741,2.268,7.76,7.76,0,0,0-2.314,4.7,7.654,7.654,0,0,0,1.217,5.039,8.131,8.131,0,0,0,4.855,3.418,8.336,8.336,0,0,0,5.573-.555,8.045,8.045,0,0,0,3.806-3.773,7.652,7.652,0,0,0,.413-5.532A7.955,7.955,0,0,0,20.8,4.41a8.278,8.278,0,0,0-4.137-1.1A8.147,8.147,0,0,0,15.647,3.377Z" transform="translate(298.63 48)" fill="#fff"/>
    </g>
  </g>
</svg>
