<svg id="Isolation_Mode" data-name="Isolation Mode" xmlns="http://www.w3.org/2000/svg" viewBox="0 0 94.35 49.06"><defs><style>.cls-1{fill:#3d8265;}</style></defs><path class="cls-1" d="M1503.72,2335.38a11.07,11.07,0,0,1-5.38,2v2.41h-3.78v-2.45c-2-.27-3.6-.57-4.88-1.58a7,7,0,0,1-2.66-5.41h4.69c.15,0,.45,1.52.9,2.05s1.12.61,2,.85v-6.43a15,15,0,0,1-4.78-1.72,5.72,5.72,0,0,1-2.38-5.09,6.76,6.76,0,0,1,2.33-5.25,8.57,8.57,0,0,1,4.83-2v-3.18h3.78v3.28a9.28,9.28,0,0,1,4.34,2c1.77,1.32,3,2.24,3.1,6h-4.73a3.51,3.51,0,0,0-2.21-3.3,3.73,3.73,0,0,1-.5-.39v5.93l1.7.33a12.53,12.53,0,0,1,4.39,1.71,5.66,5.66,0,0,1,1.94,4.8,6.89,6.89,0,0,1-2.65,5.36Zm-7.27-29.54c-9.38,0-17,8.45-17,18.87s7.6,18.87,17,18.87,17-8.45,17-18.87S1505.83,2305.84,1496.45,2305.84Zm-4.5,13.83a2,2,0,0,0,1.15,1.89,7.31,7.31,0,0,0,1.46.54v-5.17a4.59,4.59,0,0,0-1.45.6A2.44,2.44,0,0,0,1492,2319.67Zm8.49,8.92c-.43-.26-.21-.51-2.1-.73v5.47l1-.2a2.74,2.74,0,0,0,2.1-2.73A2,2,0,0,0,1500.44,2328.59Zm39.41,8a12.64,12.64,0,0,0-8.92,8.92h-69a12.67,12.67,0,0,0-8.93-8.92v-23.67A12.67,12.67,0,0,0,1462,2304h69a13.24,13.24,0,0,0,8.88,8.88Zm-9.43-36.37h-81.14v49.06h94.35v-49.06Z" transform="translate(-1449.28 -2300.18)"/></svg>