<svg id="Layer_1" data-name="Layer 1" xmlns="http://www.w3.org/2000/svg" viewBox="0 0 512 498.29"><defs><style>.cls-1{fill:#094e99;}</style></defs><path class="cls-1" d="M5,9.19c3.11-2.35,7.19-2.35,10.9-2.37,11.68.09,23.37-.05,35.05.06a54.88,54.88,0,0,1,51.85,37.21c3.62,10.71,7.06,21.48,10.59,32.23Q301.69,79,490,81.55c3.92.13,7.91-.23,11.79.57,4.79,1,9.28,4.5,10.25,9.51v2.3q-12.74,53.25-25.46,106.5c-1.68,6.71-3,13.53-5.15,20.1A64.8,64.8,0,0,1,442,262c-8.28,3.2-17.19,4.1-26,4.95Q296.21,279.44,176.39,292c-2.06,4.91-4.75,9.62-5.82,14.9a32.2,32.2,0,0,0,9.77,30.82c5.87,5.32,13.86,7.75,21.69,7.69q111,0,222,0c4.69,0,10.07-.49,13.92,2.78a11.81,11.81,0,0,1,1.66,16.59c-2.72,3.55-7.39,4.56-11.64,4.44q-108,0-216,0c-7.58,0-15.27.4-22.71-1.36a55,55,0,0,1-36.52-27.48A56.85,56.85,0,0,1,147.2,301c1.58-7.77,5.37-14.82,8.39-22.08Q118.09,165.65,80.52,52.42c-3.65-12-15-21.11-27.6-21.69-13.89-.42-27.81.17-41.69-.29C5.07,30.28.27,24.76,0,18.78v-.29C.44,14.91,1.94,11.26,5,9.19ZM121.16,100.1c18.35,55.82,36.91,111.57,55.14,167.42,81.28-8.21,162.52-16.8,243.79-25.13,6.15-.59,12.39-1.57,17.94-4.43a40.84,40.84,0,0,0,21.77-28q12.74-52.27,25.37-104.57Q303.17,102.77,121.16,100.1Z" transform="translate(0 -6.82)"/><path class="cls-1" d="M158.32,398.52c12.71-1.15,26,2.19,36.2,9.92,8.68,6.47,15.74,15.34,19.24,25.66a53.62,53.62,0,0,1-5,45.65c-6.09,9.21-14.61,17-24.9,21.24a53.48,53.48,0,0,1-40.83.13A54.57,54.57,0,0,1,120.15,483c-14.25-18.66-13.57-47.26,2-65A52.46,52.46,0,0,1,158.32,398.52Zm-.87,24.14c-14.63,2.67-25.57,17.56-23.55,32.33,1.32,15.14,15.88,27.45,31,26.27,13.64-.49,25.88-11.61,27.66-25.14a29.61,29.61,0,0,0-35.14-33.46Z" transform="translate(0 -6.82)"/><path class="cls-1" d="M383.47,398.58a53.72,53.72,0,0,1,32.78,7.14c11.55,7.26,20.82,18.57,24.29,31.9,5.58,19.55-1.32,42-17.16,54.74C411.54,503,394.55,507.16,379,504.17c-21.21-3.82-39.06-21.79-42.59-43.07-2.68-15.08,1.21-31.55,11.41-43.14A52.4,52.4,0,0,1,383.47,398.58Zm-.93,24.21a29.61,29.61,0,1,0,33.32,16.4C410.33,426.84,395.72,419.6,382.54,422.79Z" transform="translate(0 -6.82)"/></svg>