<svg id="Layer_1" data-name="Layer 1" xmlns="http://www.w3.org/2000/svg" viewBox="0 0 512.04 498.29"><defs><style>.cls-1{fill:#fff;}</style></defs><path class="cls-1" d="M5,2.37C8.11,0,12.19,0,15.9,0,27.58.09,39.27,0,51,.06A54.88,54.88,0,0,1,102.8,37.27c3.62,10.71,7.06,21.48,10.59,32.23Q301.69,72.19,490,74.73c3.92.13,7.91-.23,11.79.57,4.79,1,9.28,4.5,10.25,9.51v2.3q-12.73,53.25-25.46,106.5c-1.68,6.71-3,13.53-5.15,20.1A64.81,64.81,0,0,1,442,255.18c-8.28,3.2-17.19,4.1-26,4.95q-119.79,12.5-239.61,25.05c-2.06,4.91-4.75,9.62-5.82,14.9a32.21,32.21,0,0,0,9.77,30.82c5.87,5.32,13.86,7.75,21.69,7.69H424c4.69,0,10.07-.49,13.92,2.78A11.81,11.81,0,0,1,439.61,358c-2.72,3.55-7.39,4.56-11.64,4.44H212c-7.58,0-15.27.4-22.71-1.36a55,55,0,0,1-36.52-27.48,56.86,56.86,0,0,1-5.54-39.38c1.58-7.77,5.37-14.82,8.39-22.08Q118.09,158.83,80.52,45.6c-3.65-12-15-21.11-27.6-21.69-13.89-.42-27.81.17-41.69-.29C5.07,23.46.27,17.94,0,12v-.29C.44,8.09,1.94,4.44,5,2.37ZM121.16,93.28c18.35,55.82,36.91,111.57,55.14,167.42,81.28-8.21,162.52-16.8,243.79-25.13,6.15-.59,12.39-1.57,17.94-4.43a40.84,40.84,0,0,0,21.77-28q12.74-52.27,25.37-104.57Q303.17,95.95,121.16,93.28Z" transform="translate(0 0)"/><path class="cls-1" d="M158.32,391.7c12.71-1.15,26,2.19,36.2,9.92,8.68,6.47,15.74,15.34,19.24,25.66a53.63,53.63,0,0,1-5,45.65c-6.09,9.21-14.61,17-24.9,21.24a53.48,53.48,0,0,1-40.83.13,54.53,54.53,0,0,1-22.88-18.12c-14.25-18.66-13.57-47.26,2-65A52.49,52.49,0,0,1,158.32,391.7Zm-.87,24.14c-14.63,2.67-25.57,17.56-23.55,32.33,1.32,15.14,15.88,27.45,31,26.27,13.64-.49,25.88-11.61,27.66-25.14a29.62,29.62,0,0,0-35.14-33.46Z" transform="translate(0 0)"/><path class="cls-1" d="M383.47,391.76a53.7,53.7,0,0,1,32.78,7.14c11.55,7.26,20.82,18.57,24.29,31.9,5.58,19.55-1.32,42-17.16,54.74-11.84,10.64-28.83,14.8-44.38,11.81-21.21-3.82-39.06-21.79-42.59-43.07-2.68-15.08,1.21-31.55,11.41-43.14A52.39,52.39,0,0,1,383.47,391.76ZM382.54,416a29.62,29.62,0,1,0,33.32,16.4c-5.53-12.35-20.14-19.59-33.32-16.4Z" transform="translate(0 0)"/></svg>