<svg id="Layer_1" data-name="Layer 1" xmlns="http://www.w3.org/2000/svg" viewBox="0 0 512 482.52"><defs><style>.cls-1{fill:#fff;}</style></defs><path class="cls-1" d="M222,18a182.19,182.19,0,0,1,215.62,164.3c19.08-1,38.54,5.69,52.41,18.93a70.83,70.83,0,0,1,22,47.31v49.87A71.5,71.5,0,0,1,496,339,70,70,0,0,1,443,364.4c-7.31,0-14.63.06-21.94,0-8-.07-15-7.33-14.87-15.29-.07-51,0-102.07-.05-153.11a150.09,150.09,0,0,0-300.18,0q-.09,76,0,152.1c.35,6.79-4.15,13.89-11,15.42-10.78,2.6-22,1.89-33,.5A70.13,70.13,0,0,1,0,297.65V248.51c1.14-21,12.06-41.17,29.27-53.25,13-9.41,29.2-13.76,45.14-13A182.32,182.32,0,0,1,222,18Z" transform="translate(0 -14.76)"/><path class="cls-1" d="M67.35,382.61a162.82,162.82,0,0,0,18.35.27,91,91,0,0,0,87.3,73.3c4.71.06,9.43,0,14.14,0a54.86,54.86,0,0,0,0,18c-8.4-.05-16.85.33-25.21-.77a109,109,0,0,1-94.56-90.81Z" transform="translate(0 -14.76)"/><path class="cls-1" d="M233.26,433.36c10.91-.37,21.84-.06,32.76-.16,6,.14,12.16-.55,18,1.13A32,32,0,0,1,276,497.25c-13,0-26,0-38.94,0a32,32,0,0,1-22.86-55.09A31.94,31.94,0,0,1,233.26,433.36Z" transform="translate(0 -14.76)"/></svg>