<svg xmlns="http://www.w3.org/2000/svg" width="64.199" height="88.566" viewBox="0 0 64.199 88.566">
                <path d="M-7412.549-2191.334a1.73,1.73,0,0,1-1.73-1.729,9.957,9.957,0,0,1,9.948-9.946,9.881,9.881,0,0,1,4.466,1.059,26.229,26.229,0,0,1,5.96-4.11,20.018,20.018,0,0,1-7.839-4.836,20.134,20.134,0,0,1-5.2-19.38,1.726,1.726,0,0,1,1.227-1.224,20.129,20.129,0,0,1,19.379,5.2,19.764,19.764,0,0,1,2.428,2.948v-11.408a22.5,22.5,0,0,1-14.255-6.542,22.632,22.632,0,0,1,0-31.968,22.463,22.463,0,0,1,11.938-6.258,22.574,22.574,0,0,1,13.066,1.507,1.732,1.732,0,0,1,.9,2.276,1.731,1.731,0,0,1-2.278.9,19.045,19.045,0,0,0-21.177,4.023,19.166,19.166,0,0,0,0,27.075,19.082,19.082,0,0,0,13.537,5.6,19.085,19.085,0,0,0,13.539-5.6,19.046,19.046,0,0,0,4.023-21.177,1.728,1.728,0,0,1,.9-2.276,1.73,1.73,0,0,1,2.276.9,22.592,22.592,0,0,1,1.509,13.066,22.5,22.5,0,0,1-6.258,11.938,22.509,22.509,0,0,1-14.255,6.542v11.408a19.945,19.945,0,0,1,2.427-2.949,20.14,20.14,0,0,1,19.381-5.2,1.728,1.728,0,0,1,1.224,1.226,20.133,20.133,0,0,1-5.195,19.38,20.018,20.018,0,0,1-7.839,4.836,26.257,26.257,0,0,1,5.96,4.109,9.9,9.9,0,0,1,4.466-1.057,9.955,9.955,0,0,1,9.945,9.946,1.729,1.729,0,0,1-1.729,1.729Zm1.965-3.459h56.81a6.5,6.5,0,0,0-6.252-4.756,6.433,6.433,0,0,0-3.722,1.176,1.73,1.73,0,0,1-2.226-.2,22.6,22.6,0,0,0-16.207-6.779,22.6,22.6,0,0,0-16.205,6.779,1.732,1.732,0,0,1-2.226.2,6.434,6.434,0,0,0-3.721-1.176A6.5,6.5,0,0,0-7410.583-2194.793Zm6.752-33.6a16.672,16.672,0,0,0,4.531,15.05,16.671,16.671,0,0,0,11.77,4.858q.56,0,1.124-.039l-7.465-7.463a1.731,1.731,0,0,1,0-2.447,1.731,1.731,0,0,1,2.447,0l7.463,7.464a16.672,16.672,0,0,0-4.819-12.891,16.662,16.662,0,0,0-11.769-4.858A16.559,16.559,0,0,0-7403.831-2228.391Zm33.346,9.958a1.731,1.731,0,0,1,0,2.447l-7.465,7.463a16.664,16.664,0,0,0,12.893-4.819,16.672,16.672,0,0,0,4.531-15.05,16.672,16.672,0,0,0-15.05,4.531,16.663,16.663,0,0,0-4.819,12.891l7.463-7.464a1.726,1.726,0,0,1,1.224-.507A1.724,1.724,0,0,1-7370.485-2218.432Zm-13.423-25.306v-1.446a9.327,9.327,0,0,1-5.044-1.783,1.731,1.731,0,0,1-.5-2.395,1.732,1.732,0,0,1,2.395-.5,6.015,6.015,0,0,0,3.15,1.209v-8.736a14.971,14.971,0,0,1-3.211-1.838,5.674,5.674,0,0,1-1.865-5.59,6.4,6.4,0,0,1,4.4-5.026c.229-.069.456-.125.681-.173v-1.4a1.729,1.729,0,0,1,1.729-1.729,1.729,1.729,0,0,1,1.73,1.729V-2270a9.674,9.674,0,0,1,3.6,1.554,1.728,1.728,0,0,1,.335,2.423,1.73,1.73,0,0,1-2.416.341,6.169,6.169,0,0,0-1.517-.74v6.706c.361.134.72.264,1.074.389a6.755,6.755,0,0,1,4.648,7.731,7.785,7.785,0,0,1-5.722,6.219v1.643a1.73,1.73,0,0,1-1.73,1.73A1.729,1.729,0,0,1-7383.908-2243.738Zm3.459-5.3a4.317,4.317,0,0,0,2.311-3.135,3.356,3.356,0,0,0-2.311-3.866Zm-5.135-15.139a2.294,2.294,0,0,0,.6,2.227,8.471,8.471,0,0,0,1.077.7v-5.164A3.049,3.049,0,0,0-7385.584-2264.177Zm16.944-6.937a1.743,1.743,0,0,1-.508-1.222,1.74,1.74,0,0,1,.508-1.223,1.737,1.737,0,0,1,1.222-.508,1.746,1.746,0,0,1,1.225.508,1.738,1.738,0,0,1,.5,1.223,1.741,1.741,0,0,1-.5,1.222,1.745,1.745,0,0,1-1.225.508A1.74,1.74,0,0,1-7368.641-2271.114Z" transform="translate(7414.279 2279.9)" fill="#c17759"></path>
              </svg>