<svg id="Layer_1" data-name="Layer 1" xmlns="http://www.w3.org/2000/svg" viewBox="0 0 162.68 162.65"><defs><style>.cls-1{fill:#094e99;}</style></defs><path class="cls-1" d="M98.47,25.61c17.14-2.42,35.19.06,50.44,8.48a81.22,81.22,0,0,1,1.31,143.11A80.44,80.44,0,0,1,96,186c-28.75-5.13-53.57-27.12-62.42-54.9-6.1-19.17-5.06-40.72,3.48-59C48.21,47.72,71.9,29.5,98.47,25.61Zm1.84,15.68c-8.4,9.25-11.76,21.57-15.14,33.28q25.83-.18,51.66,0c-3.38-11.69-6.74-24-15.11-33.24-2.88-2.92-6.26-6.26-10.7-6C106.58,35.06,103.19,38.37,100.31,41.29ZM60.94,55.9c-5.7,5.37-9.53,12.29-13.78,18.79,9.24-.42,18.48-.08,27.72-.19a97.1,97.1,0,0,1,14-35.86A75.76,75.76,0,0,0,60.94,55.9Zm72.17-17.29a96.88,96.88,0,0,1,14,35.89c9.24.11,18.49-.23,27.72.19-2.43-3.49-4.41-7.27-7-10.68C159.52,52,146.75,43.58,133.11,38.61ZM43.21,85.07a75.07,75.07,0,0,0-.06,41.84c10,.2,19.93,0,29.9.09a171.58,171.58,0,0,1,0-42C63.1,85,53.15,84.91,43.21,85.07Zm40.28,0a178.75,178.75,0,0,0,0,41.93q27.51.07,55,0a160.68,160.68,0,0,0,0-42C120.14,85,101.82,84.94,83.49,85ZM149,85a158.34,158.34,0,0,1,0,42c10,0,19.93.11,29.89-.09,1.71-7.19,3.28-14.52,3.1-22-.1-6.75-1.56-13.37-3.16-19.89C168.85,84.91,158.9,85,149,85ZM47.16,137.32c5.15,8.36,10.61,16.83,18.39,23a79.57,79.57,0,0,0,23.33,13,96.53,96.53,0,0,1-14-35.85C65.64,137.4,56.39,137.71,47.16,137.32Zm38,.1c3.11,10.34,5.78,21.22,12.51,29.92,3.26,4.38,7.44,9.27,13.32,9.53,5.63-.22,9.74-4.8,12.91-9,7-8.8,9.76-19.92,12.92-30.48Q111,137.62,85.17,137.42Zm62,.08a96.29,96.29,0,0,1-14,35.85,77.6,77.6,0,0,0,27.51-16.73c5.64-5.71,10-12.48,14.21-19.3C165.61,137.71,156.36,137.4,147.13,137.5Z" transform="translate(-29.7 -24.73)"/></svg>