<svg id="Layer_1" data-name="Layer 1" xmlns="http://www.w3.org/2000/svg" viewBox="0 0 162.68 162.68"><defs><style>.cls-1{fill:#fff;}</style></defs><path class="cls-1" d="M68.77.88C85.91-1.54,104,.94,119.21,9.36a81.22,81.22,0,0,1,1.31,143.11,80.46,80.46,0,0,1-54.22,8.8c-28.75-5.13-53.57-27.12-62.42-54.9-6.1-19.17-5.06-40.72,3.48-59C18.51,23,42.2,4.77,68.77.88Zm1.84,15.68c-8.4,9.25-11.76,21.57-15.14,33.28q25.83-.18,51.66,0c-3.38-11.69-6.74-24-15.11-33.24-2.88-2.92-6.26-6.26-10.7-6C76.88,10.33,73.49,13.64,70.61,16.56ZM31.24,31.17C25.54,36.54,21.71,43.46,17.46,50c9.24-.42,18.48-.08,27.72-.19a97.2,97.2,0,0,1,14-35.86A75.74,75.74,0,0,0,31.24,31.17Zm72.17-17.29a97,97,0,0,1,14,35.89c9.24.11,18.49-.23,27.72.19-2.43-3.49-4.41-7.27-7-10.68C129.82,27.27,117.05,18.85,103.41,13.88ZM13.51,60.34a75.07,75.07,0,0,0-.06,41.84c10,.2,19.93,0,29.9.09a171.58,171.58,0,0,1,0-42C33.4,60.27,23.45,60.18,13.51,60.34Zm40.28,0a179.29,179.29,0,0,0,0,41.93q27.51.08,55,0a160.47,160.47,0,0,0,0-42c-18.35,0-36.67-.06-55,0Zm65.51-.07a157.92,157.92,0,0,1,0,42c10,0,19.93.11,29.89-.09,1.71-7.19,3.28-14.52,3.1-22-.1-6.75-1.56-13.37-3.16-19.89C139.15,60.18,129.2,60.27,119.3,60.27ZM17.46,112.59c5.15,8.36,10.61,16.83,18.39,23a79.61,79.61,0,0,0,23.33,13,96.4,96.4,0,0,1-14-35.85C35.94,112.67,26.69,113,17.46,112.59Zm38,.1C58.57,123,61.24,133.91,68,142.61c3.26,4.38,7.44,9.27,13.32,9.53,5.63-.22,9.74-4.8,12.91-9,7-8.8,9.76-19.92,12.92-30.48q-25.82.23-51.65,0Zm62,.08a96.4,96.4,0,0,1-14,35.85A77.55,77.55,0,0,0,131,131.89c5.64-5.71,10-12.48,14.21-19.3-9.27.39-18.52.08-27.75.18Z" transform="translate(0 0)"/></svg>