<svg xmlns="http://www.w3.org/2000/svg" xmlns:xlink="http://www.w3.org/1999/xlink" width="50" height="50" viewBox="0 0 50 50">
  <defs>
    <clipPath id="clip-help_dolf">
      <rect width="50" height="50"/>
    </clipPath>
  </defs>
  <g id="help_dolf" clip-path="url(#clip-help_dolf)">
    <g id="Group_22757" data-name="Group 22757">
      <g id="Rectangle_4732" data-name="Rectangle 4732" transform="translate(12 5)" fill="none" stroke="#fff" stroke-width="2">
        <rect width="31" height="43" rx="1" stroke="none"/>
        <rect x="1" y="1" width="29" height="41" fill="none"/>
      </g>
      <g id="Rectangle_4733" data-name="Rectangle 4733" transform="translate(7 2)" fill="#004c98" stroke="#fff" stroke-width="2">
        <rect width="32" height="42" rx="1" stroke="none"/>
        <rect x="1" y="1" width="30" height="40" fill="none"/>
      </g>
      <g id="help" transform="translate(4.75 5.095)">
        <path id="Path_93687" data-name="Path 93687" d="M11.25,11.531A6.256,6.256,0,0,1,13.608,7.35,6.9,6.9,0,0,1,18,5.906a7.636,7.636,0,0,1,3.2.55,5.669,5.669,0,0,1,3.552,5.075c0,3.211-2.052,4.667-4.384,6.27s-2.928,3.177-2.928,4.98" fill="none" stroke="#fff" stroke-linecap="round" stroke-miterlimit="10" stroke-width="2.813"/>
        <path id="Path_93688" data-name="Path 93688" d="M19.688,28.124a2.25,2.25,0,1,1-2.25-2.25A2.25,2.25,0,0,1,19.688,28.124Z" fill="#fff"/>
      </g>
    </g>
  </g>
</svg>
