<svg xmlns="http://www.w3.org/2000/svg" width="65.848" height="65.791" viewBox="0 0 65.848 65.791">
                <path d="M-7732.548-2224.393a2.745,2.745,0,0,1-2.742-2.741v-4.09a2.745,2.745,0,0,1,2.742-2.741h.351c1.9-8.952-2.837-12.462,2.761-17.049,5.1-4.185,5.678-10.364,10.635-8.848v-3.25c-2.263-6.712-2.361-6.485-2.361-7.514a3.875,3.875,0,0,1,7.159-2.035c6.136,10.614,5.408,5.724,5.537,17.983.105,10.458-.25,7.613-4.827,12.725-2.571,2.558-3.758,5.043-3.88,8.04a2.745,2.745,0,0,1,2.222,2.689v4.09a2.745,2.745,0,0,1-2.741,2.741Zm0-2.741h14.857l0-4.09h-14.855Zm10.138-28.037a30.728,30.728,0,0,1-5.288,6.277c-4.078,3.346.1,5.736-1.689,14.93h9.459a14.126,14.126,0,0,1,4.649-9.875c4.273-4.788,4.164-1.756,4.072-10.809-.121-11.58.821-6.273-5.149-16.61a1.134,1.134,0,0,0-2.064.632c0,.219,0,.226.513,1.686,2.371,6.753,1.818,3.857,1.848,11.564,1.454,3.44-1.873,5.375-5.748,11.377a1.37,1.37,0,0,1-1.895.41c-2.985-1.927,6.3-8.327,5.053-10.858a1.59,1.59,0,0,0-1.4-.861C-7720.884-2257.308-7721.265-2256.875-7722.41-2255.172Zm-42.706,30.779a2.745,2.745,0,0,1-2.741-2.741v-4.09a2.746,2.746,0,0,1,2.212-2.688c-.348-8.137-8.655-9.959-8.655-14.842v-12.782c0-3.555,1.943-4.983,5.475-11.092a3.767,3.767,0,0,1,4.989-1.461c4.6,2.222.519,7.547-.169,10.983v3.245a4.319,4.319,0,0,1,4.751,1.588c.8,1.062,4.353,6.167,5.375,6.854a8.437,8.437,0,0,1,2.6,2.956l.012-.006c2.162,4.1-1.047,6.4.658,14.5h.351a2.745,2.745,0,0,1,2.741,2.741v4.09a2.745,2.745,0,0,1-2.741,2.741Zm0-2.741h14.855v-4.09h-14.855Zm-1.354-44.091c-3.342,5.789-5.088,7.16-5.088,9.689v12.782c0,2.81,8.345,5.824,8.678,14.789h9.461c-1.645-8.587,2.236-12.323-1.994-15.181-1.141-.769-3.106-3.428-5.19-6.32-.849-1.18-1.2-1.912-2.263-1.836a1.581,1.581,0,0,0-1.292.855c-.827,1.68,1.688,3.116,5.461,8.963a1.371,1.371,0,0,1-.41,1.895,1.375,1.375,0,0,1-1.9-.41c-3.876-6.017-7.205-7.927-5.744-11.377-.06-7.754-.478-4.706,2.3-12.875a1.127,1.127,0,0,0-1.106-1.5A1.051,1.051,0,0,0-7766.47-2271.225Zm24.771,24.094c-13.47-5.535-21.755-27.042-19.892-41.853a1.371,1.371,0,0,1,1.36-1.2,1.489,1.489,0,0,1,1.016.4,12.071,12.071,0,0,0,17.014,0,1.478,1.478,0,0,1,1.986,0,11.774,11.774,0,0,0,16.59,0,1.358,1.358,0,0,1,1.177-.382l.035-.006a1.372,1.372,0,0,1,1.532,1.186c1.883,14.771-6.345,36.273-19.771,41.853a1.369,1.369,0,0,1-.527.1A1.382,1.382,0,0,1-7741.7-2247.131Zm.519-2.763c11.18-5.106,18.446-23.253,17.778-36.488a14.539,14.539,0,0,1-17.8-.6,14.839,14.839,0,0,1-17.87.858C-7759.618-2272.882-7752.328-2254.93-7741.18-2249.894Zm-2.667-15.49-3.087-3.081a1.373,1.373,0,0,1,0-1.939,1.372,1.372,0,0,1,1.939,0l2.119,2.115,5.416-5.406a1.372,1.372,0,0,1,1.939,0,1.373,1.373,0,0,1,0,1.939l-6.384,6.372a1.368,1.368,0,0,1-.967.4A1.369,1.369,0,0,1-7743.847-2265.384Z" transform="translate(7774.299 2290.184)" fill="#865e94"></path>
              </svg>