<svg id="Layer_1" data-name="Layer 1" xmlns="http://www.w3.org/2000/svg" viewBox="0 0 340.01 512"><path d="M252.48,0h7A170.41,170.41,0,0,1,414.49,108.59c14,35.73,15.07,76.14,4.08,112.83-7.81,26-22,49.54-37.41,71.69-20.22,28.55-42.4,55.65-63.78,83.33,24.27,3.78,48.54,9.49,70.67,20.38,11.54,5.77,22.72,13.13,30.46,23.64,6,8,9,18.58,6.7,28.5-2.42,11.21-10.36,20.29-19.22,27.13-13.43,10.24-29.28,16.72-45.27,21.76-31.14,9.57-63.78,13.21-96.24,14.15h-17c-29.3-.82-58.69-3.91-87.07-11.52-18.77-5.18-37.56-11.94-53.36-23.59-8.24-6.15-15.72-14-19.17-23.86a33.61,33.61,0,0,1,1.76-26.33c6.36-12.56,18.2-21.19,30.26-27.83,23.21-12.21,49-18.38,74.77-22.45C176.47,353,157.86,329.74,140,306c-18.51-25.24-36.32-51.74-45.87-81.83-11.61-36.72-11-77.38,2.56-113.5A170.5,170.5,0,0,1,252.48,0ZM157.25,57.22a150,150,0,0,0-48.95,86.67,157.19,157.19,0,0,0,8.21,83.5c7.12,18.39,17.52,35.29,28.69,51.46,17.84,25.54,37.61,49.64,56.69,74.24Q229.64,388.4,256,424.77c21.31-29.46,43.62-58.19,66-86.81,14.36-18.36,28.87-36.62,42.23-55.73,14.51-20.73,27.8-42.78,35.15-67.17,9.75-32.42,8.69-68.17-3.79-99.71a151,151,0,0,0-67.91-77,149.72,149.72,0,0,0-170.49,18.9Zm-23.05,357c-8.16,4-16.17,8.7-22.43,15.38-3.71,4-6.75,9.51-5.46,15.16,1.71,7.2,7.55,12.43,13.28,16.64,15.68,10.87,34.2,16.57,52.5,21.26,47,10.89,96.18,11.91,143.87,4.75,22.62-3.78,45.32-9.14,65.88-19.6,8.71-4.73,17.89-10.29,22.59-19.39,2.87-5.37,1.39-12-2.32-16.53-6.47-8.21-15.79-13.55-25.06-18-23.2-10.76-48.56-16-73.81-19.1-13.12,17.45-26.27,34.87-38.87,52.7-3.62,5.85-13,5.91-16.69.06-12.59-17.85-25.71-35.34-38.85-52.8C183.29,398,157.63,403.22,134.2,414.24Z" transform="translate(-85.98)"/><path d="M253.42,40.65c7-3,15.2,4.15,13.22,11.47-1.22,7.14-10.91,10.42-16.2,5.47C244.64,53.12,246.46,42.89,253.42,40.65Z" transform="translate(-85.98)"/><path d="M293.31,47.49c3.62-1.29,7.26.41,10.59,1.71A129.81,129.81,0,0,1,386,171.09c.13,6.39-6.87,11.49-12.92,9.34a10.21,10.21,0,0,1-7-10.32A110,110,0,0,0,292.63,66.28a10,10,0,0,1,.68-18.79Z" transform="translate(-85.98)"/><path d="M246.43,100.66A70,70,0,0,1,298,225.93c-21.21,16.38-52,18.64-75.42,5.55A70,70,0,0,1,189.88,147C198.15,122.62,220.86,103.93,246.43,100.66Zm1.15,20.08c-18.87,3-35.13,17.88-39.86,36.38a49.94,49.94,0,1,0,39.86-36.38Z" transform="translate(-85.98)"/></svg>