<svg id="Layer_1" data-name="Layer 1" xmlns="http://www.w3.org/2000/svg" viewBox="0 0 512 504.17"><path d="M393.68,7.67c28.8-10.35,63.69,1.66,80.6,27.05,8.53,12.52,12.9,28.11,10.94,43.23C483,93.62,474,107,467.61,121.24c3.13,1.57,6.3,3.1,9.48,4.59,3.94-8,7.77-16.09,11.72-24.11a12.21,12.21,0,0,1,14.33-6.54c5.07,1.33,8.49,6.24,8.86,11.35v1.21a26.61,26.61,0,0,1-2.13,6.1Q468.46,198.91,427.13,284c-3,6.45-12,8.74-17.68,4.55-5.3-3.59-6.44-11.14-3.38-16.57q30.19-62.13,60.38-124.27c-3.12-1.66-6.29-3.18-9.48-4.68Q388.79,283.36,320.68,423.7a28.7,28.7,0,0,1-8.93,11.07c-18.6,13.71-37.28,27.32-55.9,41-4.32,3.2-8.69,6.55-13.87,8.23-4.17,1.47-8.62,1.65-13,1.62-2.48,4.67-4.48,9.58-7.16,14.14-3.17,5.52-11.17,7.69-16.49,4a12.24,12.24,0,0,1-4.84-15.22c2.15-4.81,4.72-9.43,6.91-14.22A33.66,33.66,0,0,1,199.72,454q-1.31-37.47-2.5-74.94c-.47-8.16,3.92-15.3,7.3-22.38Q281.8,197.33,359.05,38C366,23.83,379.05,13.21,393.68,7.67Zm10.18,22.25c-9.85,3.26-18.71,10.13-23.44,19.46Q361.15,89.19,341.83,129q38.44,18.61,76.92,37.2,19.38-39.9,38.75-79.82c3.59-7.36,5-15.88,2.85-23.89-2.78-10.31-9-19.94-18-25.84C431.19,29.32,416.85,26,403.86,29.92Zm-72.7,121q-53.82,111-107.63,222A124.52,124.52,0,0,0,300.2,410.2q54-111,107.85-222.1Q369.62,169.49,331.16,150.92ZM222.07,404.29c.57,16.23,1.08,32.47,1.71,48.7-.09,4,3,8.24,7.28,8.27,2.55.4,4.88-1.05,6.91-2.4,12.76-9.39,25.58-18.7,38.33-28.1-6.75-2.23-13.73-3.84-20.18-6.9C243.86,419.07,232.68,412,222.07,404.29Z" transform="translate(0 -3.96)"/><path d="M7.61,155.61c5-2.24,10.43.12,15.55.73,28.75,5.46,58.31,8.63,85.53,20,19,7.88,36.77,20.59,47.24,38.65,9.38,16.18,10.82,35.84,7.37,53.94-3.9,21.9-13.93,42-23.73,61.75-12.84,24.32-26.43,48.24-39,72.69-7.51,15.27-15,30.84-18.12,47.72-.89,5.12-1.84,10.56-.12,15.62,1.38,4.16,4.86,7.3,8.69,9.25,8.32,4.3,17.71,5.84,26.93,6.85,15,1.62,30.08.8,45.11,1.15,6.88.18,12.66,7.18,11.25,14-.81,5.83-6.39,10.11-12.16,10.06-15,.22-30.1.24-45.09-.92-15.62-1.49-31.75-4.91-44.58-14.44-10.77-8.27-16.5-22.19-15.25-35.65,1.51-18.79,8.14-36.81,16.34-53.64,8.74-18.78,19.1-36.74,28.9-55,11.84-21.89,24.24-43.65,32.64-67.17,4.83-14.38,7.88-30.22,3.59-45.13-4.08-13.79-15.1-24.45-27.34-31.36-15.32-8.86-32.61-13.4-49.81-17-17.11-3.08-34.26-6-51.37-9.12C4.73,177.83.86,173,0,167.79v-2.35A12.56,12.56,0,0,1,7.61,155.61Z" transform="translate(0 -3.96)"/></svg>