<svg id="Isolation_Mode" data-name="Isolation Mode" xmlns="http://www.w3.org/2000/svg" viewBox="0 0 83.35 82.93"><defs><style>.cls-1{fill:#65b3b1;}</style></defs><path class="cls-1" d="M418.52,2338v-2.88h15.14V2338Zm3.42,14.36v-11.91h8.3v11.91Zm11.72,2.44v2.88H418.52v-2.88Zm-17.58-.49v3.37H409v-3.37a2,2,0,0,0-2-2h-1.47v-11.91H407a2,2,0,0,0,2-1.95v-3.38h7.11v3.38a2,2,0,0,0,1.95,1.95h1.47v11.91H418A2,2,0,0,0,416.08,2354.34Zm-9.56,3.37H391.38v-2.88h15.14Zm-17.58-3.37v3.37h-7.11v-3.37a2,2,0,0,0-1.95-2h-1.47v-11.91h1.47a2,2,0,0,0,1.95-1.95v-3.38h7.11v3.38a2,2,0,0,0,1.95,1.95h1.47v11.91h-1.47A2,2,0,0,0,388.94,2354.34Zm-9.55,3.37H364.25v-2.88h15.14ZM376,2340.48v11.91h-8.3v-11.91ZM364.25,2338v-2.88h15.14V2338Zm38.85,2.45v11.91h-8.3v-11.91ZM391.38,2338v-2.88h15.14V2338Zm-31.66-8.84h36.69a1.22,1.22,0,1,0,0-2.44h-31.2v-14.64L399,2292.63l33.75,19.48v14.64H401.84a1.22,1.22,0,0,0,0,2.44h36.35v3.52H359.72Zm3-18.44a2,2,0,0,1-1.5.19,1.92,1.92,0,0,1-1.2-.92h0a2,2,0,0,1,.73-2.7l37.1-21.42a2.56,2.56,0,0,1,2.29,0l37.1,21.42a2,2,0,0,1,.92,1.2,1.94,1.94,0,0,1-.2,1.51,1.91,1.91,0,0,1-1.2.91,2,2,0,0,1-1.5-.19l-35.65-20.59a1.26,1.26,0,0,0-1.23,0Zm71.46,29.73a2,2,0,0,0,2-1.95v-3.38h2.56a2,2,0,0,0,2-2v-4.47a2,2,0,0,0-2-2h-3.52v-13.42a4.73,4.73,0,0,0,1.06.13,4.27,4.27,0,0,0,1.16-.16,4.42,4.42,0,0,0,1.06-8.1l-37.09-21.41a4.68,4.68,0,0,0-2.38-.61,4.61,4.61,0,0,0-2.36.61l-37.1,21.41a4.43,4.43,0,0,0-1.62,6,4.33,4.33,0,0,0,2.69,2.06,4.47,4.47,0,0,0,2.21,0v13.42h-3.52a2,2,0,0,0-2,2v4.47a2,2,0,0,0,2,2h2.56v3.38a2,2,0,0,0,1.94,1.95h1.47v11.91h-1.47a1.94,1.94,0,0,0-1.94,2v3.37h-2.56a2,2,0,0,0-2,2v4.47a2,2,0,0,0,2,2h37.16a1.22,1.22,0,1,0,0-2.44H359.72v-3.52h78.47v3.52H402a1.22,1.22,0,1,0,0,2.44h36.62a2,2,0,0,0,2-2v-4.47a2,2,0,0,0-2-2H436.1v-3.37a2,2,0,0,0-2-2h-1.46v-11.91Z" transform="translate(-357.28 -2283.18)"/><path class="cls-1" d="M396.45,2302.35a2.69,2.69,0,1,1,2.68,2.68A2.68,2.68,0,0,1,396.45,2302.35Zm7.81,0a5.13,5.13,0,1,0-5.13,5.13A5.13,5.13,0,0,0,404.26,2302.35Z" transform="translate(-357.28 -2283.18)"/><path class="cls-1" d="M381.84,2320.64h-2V2318h2a1.34,1.34,0,0,1,0,2.67Zm-.48-7a1,1,0,0,1,0,1.92h-1.54v-1.92Zm2.87,2.78a3.4,3.4,0,0,0-2.87-5.22H378.6a1.22,1.22,0,0,0-1.22,1.22v4.36h0v5.11a1.23,1.23,0,0,0,1.22,1.22h3.24a3.77,3.77,0,0,0,2.39-6.69Z" transform="translate(-357.28 -2283.18)"/><path class="cls-1" d="M391.64,2318.32l1.1-2.88,1.08,2.88Zm2.44-6.23v0a1.43,1.43,0,0,0-1.33-.89h0a1.44,1.44,0,0,0-1.33.89v0l-3.56,9.34a1.22,1.22,0,1,0,2.28.87l.59-1.54h4l.58,1.54a1.22,1.22,0,0,0,1.14.79,1.31,1.31,0,0,0,.43-.08,1.22,1.22,0,0,0,.71-1.57Z" transform="translate(-357.28 -2283.18)"/><path class="cls-1" d="M408,2311.17h0a1.21,1.21,0,0,0-1.21,1.23l0,5.66-4.38-6.35a1.22,1.22,0,0,0-2.23.69v9.47a1.22,1.22,0,1,0,2.44,0v-5.55l4.18,6a1.34,1.34,0,0,0,1.52.55,1.4,1.4,0,0,0,.95-1.38l-.09-9.16A1.22,1.22,0,0,0,408,2311.17Z" transform="translate(-357.28 -2283.18)"/><path class="cls-1" d="M420.44,2321l-4.27-4.11,3.9-3.59a1.22,1.22,0,1,0-1.65-1.8l-3.12,2.87v-2.09a1.22,1.22,0,0,0-2.44,0v9.6a1.22,1.22,0,1,0,2.44,0v-2.44l3.44,3.32a1.23,1.23,0,0,0,1.73,0A1.23,1.23,0,0,0,420.44,2321Z" transform="translate(-357.28 -2283.18)"/></svg>