<svg id="Layer_1" data-name="Layer 1" xmlns="http://www.w3.org/2000/svg" viewBox="0 0 512 512"><path d="M251.55,0h8.8a88.11,88.11,0,0,1,36.31,10.31,85.29,85.29,0,0,1,10.79,143,85.17,85.17,0,0,1-93.2,6.36A85.29,85.29,0,0,1,176.18,55.16a85.89,85.89,0,0,1,32.85-41A87.07,87.07,0,0,1,251.55,0Zm-4.1,32.72a53.31,53.31,0,1,0,35.24,6.49A53.61,53.61,0,0,0,247.45,32.72Z"/><path d="M374.36,135.3c10.51-9,26.9-9.69,38.21-1.81a31.82,31.82,0,0,1,13.89,23.59c-.24,2.71,2.41,3.87,4.23,5.24,37.27,26.11,61.68,69.45,64.93,114.83A16.83,16.83,0,0,1,512,291.5v3.67c-1.44,5.84-3.88,11.35-5.83,17q-17.84,49.1-35.68,98.17c-1.56,4.19-2.77,8.82-6.21,11.93A16.77,16.77,0,0,1,452,426.67H373.54c-3.8,24.07-7.34,48.19-11.19,72.26-1.08,6.7-6.85,11.72-13.32,13.07h-4.2c-8.47-1.05-15.34-9.38-14-17.95,6.08-40.25,12.36-80.47,18.52-120.7q-93.35,0-186.7,0c6.15,40.24,12.43,80.46,18.52,120.7,1.32,8.53-5.46,16.74-13.82,17.95h-3.83a16.74,16.74,0,0,1-12.22-8.32c-1.94-3.55-2.08-7.69-2.76-11.59-3.36-21.81-6.67-43.63-10.09-65.42q-39.25,0-78.5,0a16.78,16.78,0,0,1-12.24-4.39c-3.43-3.1-4.63-7.73-6.18-11.91Q22.92,359.11,4.25,307.85C2.77,303.71,1.1,299.64,0,295.38v-4.2c1.22-7.65,8.1-14,16-13.83,21.75-.05,43.49,0,65.24,0a101.71,101.71,0,0,1,86.59-84.42c8.67-1.22,17.44-.86,26.17-.91H320c8,0,16-.23,23.93.88a100.71,100.71,0,0,1,51.57,22.63,102,102,0,0,1,35.27,61.81q16.37,0,32.72,0c-3.11-35.7-22.91-69.41-52.4-89.71-5.86,3.06-12.48,4.92-19.13,4.23a32,32,0,0,1-17.59-56.55Zm-217.8,93.28a70,70,0,0,0-42.74,48.74q142.17,0,284.35,0A69.53,69.53,0,0,0,329,224q-73.53,0-147.06,0A69.45,69.45,0,0,0,156.56,228.58ZM38.85,309.34q15.48,42.68,31,85.33,31.83,0,63.68,0c-1.75-11.17-3.43-22.35-5.18-33.52-2.54-9.66,5.55-20.14,15.59-19.79q112,0,224,0c9.17-.3,17.18,8.56,15.91,17.65-1.69,11.9-3.63,23.77-5.44,35.66,21.22,0,42.43,0,63.65,0q15.6-42.65,31.05-85.34Z"/></svg>