<svg id="Layer_1" data-name="Layer 1" xmlns="http://www.w3.org/2000/svg" viewBox="0 0 512 491.46"><path d="M241.64,33.43c4.3-13.22,17.37-23,31.3-23.12q36.56-.12,73.11,0a34,34,0,0,1,31.18,47,34.69,34.69,0,0,1-23.16,20q0,12.68,0,25.34a201.57,201.57,0,0,1,123.26,84A203.63,203.63,0,0,1,512,294.4v10.24c-1.12,37-12.16,73.84-32.45,104.91a10,10,0,0,1-14,2.85c-4.67-3-5.66-9.86-2.38-14.26A181.23,181.23,0,0,0,491.79,301,181.61,181.61,0,0,0,277.1,120.85,181.71,181.71,0,0,0,135.88,247a183.3,183.3,0,0,0,4.49,118.63c17.95,47,56.48,85.6,103.5,103.52,52.72,20.75,115.14,15.33,163-15.29,3.82-2.95,9.46-4.37,13.59-1.18,5.6,3.68,5.49,12.9-.25,16.41-40,26.29-89.71,37.32-137.15,30.85A201.78,201.78,0,0,1,121.29,371.56c-23.77-.26-47.55.05-71.32-.15a10,10,0,0,1,0-19.91c21.61-.09,43.23,0,64.85,0A212,212,0,0,1,108.56,313c-14.89-.08-29.77.06-44.65-.06a10,10,0,0,1,0-19.91c14.76-.14,29.53,0,44.29-.05a213.93,213.93,0,0,1,5-38.39c-34.41-.07-68.83.08-103.24-.07-4.81.08-8.81-3.69-9.93-8.21V243c1-4.62,5.1-8.54,10-8.35q54.41-.1,108.8,0a213.19,213.19,0,0,1,17.78-38.46c-19.2,0-38.39,0-57.58,0a10.28,10.28,0,0,1-9.3-4.73,10,10,0,0,1,2.47-13.23c2.19-1.8,5.11-2.07,7.84-2,23.39,0,46.78,0,70.17,0a202.44,202.44,0,0,1,115.46-73.42q0-12.69,0-25.38a35.82,35.82,0,0,1-17.34-10.7A34,34,0,0,1,241.64,33.43Zm30.67-3c-7.53.6-13.5,8.22-12.3,15.69a14.1,14.1,0,0,0,14,12.15c23.65.06,47.31,0,71,0a14.29,14.29,0,0,0,12.33-6,14,14,0,0,0-1.56-17.8c-3-3.2-7.51-4.4-11.78-4.18C320.08,30.37,296.19,30.08,272.31,30.4Zm13.38,47.84c-.1,7,0,14,0,21.05a207.28,207.28,0,0,1,48.4,0q0-10.48,0-21C317.93,78.24,301.81,78.31,285.69,78.24Z" transform="translate(0 -10.26)"/><path d="M291.52,145.73a155.55,155.55,0,1,1-88.25,41.57A155.18,155.18,0,0,1,291.52,145.73Zm1.08,20c-37.74,4.68-72.8,26.41-94.14,57.83A135,135,0,0,0,390.89,407.9c28.66-21.34,48.32-54.4,53-89.86A135.13,135.13,0,0,0,292.6,165.75Z" transform="translate(0 -10.26)"/><path d="M307.18,183.28a10,10,0,0,1,12.51,6.7c.78,4.29.45,8.71.33,13.05-.31,5.82-6.55,10.29-12.17,8.76a10,10,0,0,1-7.68-9.71c0-4.1-.45-8.3.46-12.33A10,10,0,0,1,307.18,183.28Z" transform="translate(0 -10.26)"/><path d="M369.79,225.82c2.46-2.37,4.73-5.39,8.26-6.12A10,10,0,0,1,390,226.93a10.3,10.3,0,0,1-3.1,10.09q-24.48,24.48-49,49a31.5,31.5,0,0,1-1.28,29.66,31,31,0,0,1-57.38-11.48A32.21,32.21,0,0,1,282.09,286c-7.16-7.22-14.38-14.38-21.55-21.58a10.48,10.48,0,0,1-3.47-7.31A10,10,0,0,1,266,246.85a10.4,10.4,0,0,1,8.7,3.43q10.8,10.77,21.57,21.57a31.81,31.81,0,0,1,27.48,0Q346.81,248.86,369.79,225.82Zm-64.26,63.81a11,11,0,0,0,5.61,21.09c6.47-.47,11.37-7.44,9.57-13.69C319.27,290.6,311.5,286.77,305.53,289.63Z" transform="translate(0 -10.26)"/><path d="M199.3,290.38c4.73-1.35,9.81-.78,14.67-.58,7.37.8,11,10.73,6.05,16.19-3.87,4.92-10.64,3.42-16.07,3.61a10.18,10.18,0,0,1-10.39-7A10,10,0,0,1,199.3,290.38Z" transform="translate(0 -10.26)"/><path d="M404.31,290.45c4.11-1,8.43-.51,12.63-.55a10,10,0,0,1,4,19.1c-4.14,1.52-8.69.7-13,.84a10,10,0,0,1-3.6-19.39Z" transform="translate(0 -10.26)"/><path d="M0,360c.9-4,3.92-7.6,8.09-8.29a10,10,0,1,1,1,19.71C4.43,371.06.79,367.15,0,362.7Z" transform="translate(0 -10.26)"/><path d="M305.37,388.49c6.06-3.41,14.44,1.47,14.44,8.41-.23,5.44,1.46,11.91-2.49,16.4a10,10,0,0,1-14.76.14c-3.75-3.87-2.47-9.61-2.69-14.46C299.51,394.79,301.47,390.36,305.37,388.49Z" transform="translate(0 -10.26)"/><path d="M442.13,426.22c6.73-3,14.87,3.48,13.52,10.69-.72,7.35-10.46,11.29-16,6.42C433.6,439,435.12,428.61,442.13,426.22Z" transform="translate(0 -10.26)"/></svg>