<svg id="Layer_1" data-name="Layer 1" xmlns="http://www.w3.org/2000/svg" viewBox="0 0 512 512"><path d="M251.78,0h7.47c38.14.6,76.21,9.43,110.36,26.51A258,258,0,0,1,490,152c14.05,31.31,21.26,65.52,22,99.8v7.51c-.64,42.29-11.55,84.48-32.34,121.37a258.45,258.45,0,0,1-76.88,85.06C361.13,495.3,310.34,511.32,259.34,512h-7.42c-46.64-.83-93.13-14.27-132.48-39.44C66.28,439.07,26,385.51,9.37,324.83A262.14,262.14,0,0,1,0,259.35v-7.44C.83,205.5,14.13,159.26,39.06,120a258.45,258.45,0,0,1,92.27-87.7C168,11.69,209.8.81,251.78,0Zm-9.49,15.41a240.28,240.28,0,0,0-190.78,113C17.94,181.44,7,248,20.91,309.09A237.08,237.08,0,0,0,58.7,394.42c33.54,47.82,84.82,83.07,141.85,96.14A240.48,240.48,0,0,0,438,414a238.16,238.16,0,0,0,52.78-103.26A242.38,242.38,0,0,0,476.2,157.87C449.22,97,395.88,48.29,332.58,27.42A242.82,242.82,0,0,0,242.29,15.41Z"/><path d="M245.36,48.5C295.5,45.88,346.48,62,385.53,93.69c3.32,2.66,8.23,5.28,7.73,10.28-.12,5.22-6.6,8.76-11,5.9-4.6-3-8.73-6.67-13.12-10A192.78,192.78,0,0,0,75.47,323.61,190.3,190.3,0,0,0,106.1,377c1.81,2.5,4.3,4.84,4.73,8,.6,4.35-3.41,8.67-7.83,8.17-4.3-.18-6.57-4.31-9-7.28a204.78,204.78,0,0,1-36-67C41.47,267.37,46.14,209.28,71.15,161.18,96.67,110.93,143.62,71.94,197.9,56.57A206.35,206.35,0,0,1,245.36,48.5Z"/><path d="M253.43,80.71A7.39,7.39,0,0,1,263.2,86c.67,5,.14,10,.3,15-.16,6.67.33,13.37-.24,20-.57,4.47-5.88,7.35-10,5.56a7.7,7.7,0,0,1-4.75-7.63c-.05-10.3-.09-20.62,0-30.93A7.55,7.55,0,0,1,253.43,80.71Z"/><path d="M168.39,103.66a7.37,7.37,0,0,1,9.52,2.36c2.82,4.3,5.22,8.88,7.84,13.3,1.94,3,2.13,7.21-.49,9.84-3.13,3.74-9.74,2.75-12-1.48-2.73-4.62-5.5-9.24-8-14A7.41,7.41,0,0,1,168.39,103.66Z"/><path d="M337.29,103.38c4.95-2.33,11.13,2.31,10.26,7.73-1.14,4.49-4.23,8.16-6.3,12.25-1.86,3-3.33,7.17-7.31,7.84-5.26,1.87-10.72-4-8.88-9.18,1.49-4,4.07-7.35,6-11.06C332.79,108.21,334.09,104.73,337.29,103.38Z"/><path d="M405.35,119.44a7.34,7.34,0,0,1,8.08,1.13A207.77,207.77,0,0,1,431,368C403.3,411.44,359,444,309,456.84A207.65,207.65,0,0,1,172,446a203.94,203.94,0,0,1-46-28c-2.72-2.25-6.39-4.16-7.17-7.91a7.48,7.48,0,0,1,6.1-8.85c4.08-.72,7.12,2.58,10.11,4.77a192.67,192.67,0,0,0,302-84c20.6-55.53,13.56-120.58-19-170.14-4.41-7.7-10.45-14.23-15.57-21.42A7.43,7.43,0,0,1,405.35,119.44Z"/><path d="M152.39,159.85a7.45,7.45,0,0,1,7.52-7.46c2.59-.07,4.71,1.6,6.45,3.33q39.55,39.63,79.16,79.21a24.11,24.11,0,0,1,20.55,0c4.68,2.09,8.18,6,10.86,10.28q40.56-6.24,81.14-12.46c4.05-1,8.67,1.51,9.4,5.75a7.56,7.56,0,0,1-6.55,8.92c-27.22,4.3-54.47,8.38-81.69,12.64A24.36,24.36,0,0,1,268,276.16,23.54,23.54,0,0,1,239.88,273c-7.53-6.82-9.31-18.47-4.95-27.51q-39.65-39.6-79.26-79.22C153.94,164.57,152.3,162.43,152.39,159.85Zm99.93,88.55c-5.63,2.44-6.38,11.08-1.25,14.46,4.87,3.81,12.91.29,13.31-5.91C265.42,250.62,258,245.36,252.32,248.4Z"/><path d="M106.38,165.48c5.06-3.09,10,1.47,14.3,3.74,4.21,2.74,11,4.64,10.82,10.78.22,5.38-6.35,9-10.89,6.42-4.92-2.74-9.86-5.48-14.6-8.52C101.6,175.18,101.89,168,106.38,165.48Z"/><path d="M398.31,165.29c5.07-3.07,12,2,10.79,7.75-.82,5-6.36,6.59-10.07,9-4.38,2.11-8.76,6.8-14,4.55-5.38-1.76-6.08-10.06-1.26-12.91S393.38,168,398.31,165.29Z"/><path d="M84.38,249.35c2.38-1.07,5.08-.82,7.62-.88,9.31.14,18.62-.14,27.92.13a7.43,7.43,0,0,1,6.94,9.38,7.67,7.67,0,0,1-7.9,5.49c-9.66.1-19.32,0-29,0-3,.07-6.54-.4-8.31-3.15A7.45,7.45,0,0,1,84.38,249.35Z"/><path d="M388.5,249.61c2.59-1.45,5.69-1.05,8.55-1.13,9.3.15,18.61-.2,27.9.16,5.25.13,8.59,6.65,5.82,11.05-1.82,3.59-6.23,4-9.79,3.84-10-.21-20,.29-29.91-.25C384.41,262.64,382.65,252.67,388.5,249.61Z"/><path d="M120.46,325.68c5-3.08,12,1.57,11,7.35-.66,5.51-6.81,7.1-10.77,9.75-4,1.92-7.93,6.11-12.72,4.34-5.49-1.17-6.93-9.32-2.52-12.59C110.23,331.26,115.4,328.52,120.46,325.68Z"/><path d="M385.26,325.22c5.17-1.83,9.46,2.6,13.76,4.71,4,2.52,10.08,4.39,10.17,10,.47,5.49-6.18,9.44-10.86,6.8-5.09-2.9-10.33-5.61-15.16-8.93C378.78,334.59,380.11,326.91,385.26,325.22Z"/><path d="M176.39,381.33c5-2.93,11.88,1.86,10.8,7.58-1.13,4.43-4.19,8-6.23,12.06-1.87,3-3.27,7.15-7.19,7.87-5.17,2-10.71-3.72-9.13-8.86,1.46-4,4.08-7.48,6.05-11.25C172.32,386.1,173.55,382.89,176.39,381.33Z"/><path d="M328.42,381.49a7.39,7.39,0,0,1,9.37,1.64c2.64,3.51,4.45,7.55,6.79,11.26,2.05,3.27,4.41,7.49,1.95,11.22-2.6,4.85-10.34,4.59-12.85-.18-2.74-4.62-5.51-9.23-8-14A7.47,7.47,0,0,1,328.42,381.49Z"/><path d="M253.23,385.41c4.54-2,10.27,1.69,10.17,6.69.27,9.63,0,19.27.13,28.91,0,3.08,0,6.75-2.6,8.88a7.53,7.53,0,0,1-10.31-.42c-2.23-2.21-2.13-5.58-2.15-8.49.09-9.32-.05-18.65.06-28A7.69,7.69,0,0,1,253.23,385.41Z"/></svg>