<svg xmlns="http://www.w3.org/2000/svg" width="31.5" height="31.5" viewBox="0 0 31.5 31.5"><path d="M33.75,20.25V18H27V29.25h2.25v-4.5h3.375V22.5H29.25V20.25Z" transform="translate(-2.25 -2.25)" fill="#004c98"></path> <path d="M21.375,29.25h-4.5V18h4.5a3.378,3.378,0,0,1,3.375,3.375v4.5a3.378,3.378,0,0,1-3.375,3.375ZM19.125,27h2.25A1.126,1.126,0,0,0,22.5,25.875v-4.5a1.126,1.126,0,0,0-1.125-1.125h-2.25Z" transform="translate(-2.25 -2.25)" fill="#004c98"></path> <path d="M12.375,18H6.75V29.25H9V25.875h3.375a2.253,2.253,0,0,0,2.25-2.25V20.25A2.252,2.252,0,0,0,12.375,18ZM9,23.625V20.25h3.375v3.375Z" transform="translate(-2.25 -2.25)" fill="#004c98"></path> <path d="M24.75,15.75v-4.5a1.024,1.024,0,0,0-.337-.787L16.538,2.588a1.023,1.023,0,0,0-.788-.338H4.5A2.257,2.257,0,0,0,2.25,4.5v27A2.25,2.25,0,0,0,4.5,33.75h18V31.5H4.5V4.5h9v6.75a2.257,2.257,0,0,0,2.25,2.25H22.5v2.25Zm-9-4.5V4.95l6.3,6.3Z" transform="translate(-2.25 -2.25)" fill="#004c98"></path></svg>