<svg xmlns="http://www.w3.org/2000/svg" width="60" height="60" viewBox="0 0 60 60">
  <g id="Group_22686" data-name="Group 22686" transform="translate(3137 9779)">
    <g id="Group_22684" data-name="Group 22684" transform="translate(-3273.97 -10161.001)">
      <g id="baseline-person-24px" transform="translate(150.668 409.778)">
        <path id="Path_2203" data-name="Path 2203" d="M20.112,20.112a8.056,8.056,0,1,0-8.056-8.056A8.054,8.054,0,0,0,20.112,20.112Zm0,4.028C14.735,24.14,4,26.839,4,32.2v4.028H36.224V32.2C36.224,26.839,25.489,24.14,20.112,24.14Z" transform="translate(-4 -4)"/>
      </g>
      <path id="Icon_ionic-md-star" data-name="Icon ionic-md-star" d="M14.171,20.353l6.411,3.868-1.7-7.3,5.659-4.906-7.46-.641L14.171,4.5l-2.914,6.878-7.46.641,5.659,4.906-1.7,7.3Z" transform="translate(152.473 377.501)"/>
      <path id="Icon_ionic-md-star-2" data-name="Icon ionic-md-star" d="M4.62,7.06,7.475,8.782,6.72,5.533,9.24,3.349,5.917,3.063,4.62,0l-1.3,3.063L0,3.349,2.52,5.533,1.765,8.782Z" transform="translate(180.961 391.218) rotate(30)"/>
      <path id="Icon_ionic-md-star-3" data-name="Icon ionic-md-star" d="M4.62,1.723,7.475,0,6.72,3.249,9.24,5.434l-3.322.285L4.62,8.782l-1.3-3.063L0,5.434,2.52,3.249,1.765,0Z" transform="translate(157.363 398.823) rotate(150)"/>
    </g>
    <rect id="Rectangle_4892" data-name="Rectangle 4892" width="60" height="60" transform="translate(-3137 -9779)" fill="none"/>
  </g>
</svg>
