<svg width="60" height="60" viewBox="0 0 60 60" fill="none" xmlns="http://www.w3.org/2000/svg">
<path d="M24.0159 53.3853C24.0159 54.4958 23.6784 55.5813 23.0462 56.5047C22.4139 57.428 21.5153 58.1476 20.4639 58.5726C19.4125 58.9976 18.2555 59.1088 17.1394 58.8921C16.0232 58.6755 14.9979 58.1407 14.1932 57.3555C13.3885 56.5703 12.8405 55.5698 12.6185 54.4807C12.3965 53.3915 12.5104 52.2626 12.9459 51.2366C13.3814 50.2107 14.1189 49.3338 15.0652 48.7168C16.0114 48.0999 17.1239 47.7706 18.2619 47.7706C19.0183 47.768 19.7677 47.9114 20.467 48.1927C21.1663 48.4739 21.8017 48.8874 22.3365 49.4093C22.8713 49.9312 23.2951 50.5512 23.5833 51.2336C23.8715 51.9159 24.0185 52.6472 24.0159 53.3853ZM47.0317 47.7706C45.8937 47.7706 44.7812 48.0999 43.835 48.7168C42.8888 49.3338 42.1513 50.2107 41.7158 51.2366C41.2803 52.2626 41.1663 53.3915 41.3883 54.4807C41.6104 55.5698 42.1584 56.5703 42.9631 57.3555C43.7678 58.1407 44.793 58.6755 45.9092 58.8921C47.0254 59.1088 48.1823 58.9976 49.2337 58.5726C50.2851 58.1476 51.1837 57.428 51.816 56.5047C52.4482 55.5813 52.7857 54.4958 52.7857 53.3853C52.7812 51.8975 52.1735 50.472 51.0954 49.42C50.0173 48.368 48.5564 47.775 47.0317 47.7706ZM18.766 38.7798C18.7476 38.6927 18.7622 38.6029 18.7843 38.5167L18.8043 38.4385C18.8262 38.353 18.8593 38.2709 18.9027 38.1942L21.1394 34.2413C21.3169 33.9277 21.6494 33.7338 22.0097 33.7338H42.8601C43.888 33.7369 44.8978 33.4702 45.7837 32.9614C46.6695 32.4526 47.3987 31.7206 47.8948 30.8422L58.4987 12.051C58.7739 11.5633 58.595 10.9446 58.1018 10.6791L54.0017 8.47168C53.9967 8.46898 53.9911 8.46757 53.9854 8.46757V8.46757C53.973 8.46757 53.9615 8.47426 53.9554 8.48508L50.8006 14.0823L43.1473 27.6114C42.9698 27.9251 42.6373 28.1191 42.2769 28.1191H23.2854C22.9047 28.1191 22.557 27.9029 22.3886 27.5616L22.2897 27.3611L15.8452 14.0823L13.1121 8.46757L10.6804 3.41891C10.5137 3.07286 10.1635 2.85286 9.77944 2.85286H2C1.44771 2.85286 1 3.30057 1 3.85286V7.46757C1 8.01985 1.44772 8.46757 2 8.46757H6.12817C6.51098 8.46757 6.8602 8.68611 7.02755 9.03041L16.8817 29.3035C17.0254 29.599 17.0147 29.9462 16.8531 30.2323L13.2272 36.6534C12.7513 37.4754 12.5033 38.4044 12.5079 39.3485C12.5079 40.8376 13.1142 42.2657 14.1932 43.3187C15.2723 44.3717 16.7359 44.9632 18.2619 44.9632H51.7857C52.338 44.9632 52.7857 44.5155 52.7857 43.9632V40.3485C52.7857 39.7962 52.338 39.3485 51.7857 39.3485H19.4702C19.2804 39.3456 19.0992 39.2707 18.9649 39.1397C18.8633 39.0406 18.7947 38.9152 18.766 38.7798ZM49.1767 5.69962C49.5784 5.30828 49.5798 4.66318 49.1798 4.27011L46.5506 1.68638C46.1625 1.305 45.5407 1.3039 45.1513 1.6839L32.626 13.9061C32.2375 14.2852 31.6176 14.2852 31.2292 13.9061L25.1746 7.99804C24.7861 7.619 24.1662 7.619 23.7778 7.99804L21.1531 10.5592C20.751 10.9516 20.751 11.5982 21.1531 11.9906L31.2297 21.8234C31.618 22.2022 32.2374 22.2025 32.626 21.824L49.1767 5.69962Z" fill="black"/>
</svg>
