<svg xmlns="http://www.w3.org/2000/svg" width="60" height="60" viewBox="0 0 60 60">
  <g id="Group_22692" data-name="Group 22692" transform="translate(3137 9483)">
    <path id="Path_12409" data-name="Path 12409" d="M-928.91-273.358v-3.191h-13.975v3.265c.414.043.8.087,1.175.111,2.1.13,2.683.724,2.745,2.789.143,5.064-.006,5.213-5.113,5.176-1.021-.013-2.035.043-3.049-.019a2.169,2.169,0,0,1-2.3-2.368c-.006-.841,0-1.688,0-2.535-.006-2.375.575-2.962,2.981-3.042.278-.012.557-.043,1.064-.087,0-1.064-.012-2.109,0-3.154.025-2.084.544-2.616,2.585-2.622h5.51v-4.094c-1.2-.464-2.956-.612-3.358-1.428-.649-1.3-.507-3.042-.495-4.6.006-1.793.637-2.146,3.89-2.517.025-.526.068-1.076.074-1.62,0-.495-.044-.983-.068-1.558h-14.012v3.067c.081.062.155.173.248.186,1.237.173,3.055-.3,3.376,1.23a20.94,20.94,0,0,1-.037,5.794c-.031.34-.835.859-1.292.878-2.369.08-4.737.043-7.105.006a1.236,1.236,0,0,1-.884-.427c-1.323-1.892-.8-4.032-.495-6.029.223-1.41,1.688-1.422,2.919-1.391a5.615,5.615,0,0,0,.735-.08v-3.172h-13.864v3.085c3.964.594,3.964.594,3.884,5.373-.037,2.239-.44,2.548-3.871,2.9v4.4c1.836,0,3.729-.006,5.621.006,1.843.006,2.418.563,2.462,2.4.024,1.064.006,2.127.006,3.116.18.142.254.254.347.266,1.237.173,3.017-.3,3.345,1.274a16.928,16.928,0,0,1-.037,5.608c-.062.464-1.3,1.039-2.029,1.1-1.855.155-3.722.056-5.59.037a2.223,2.223,0,0,1-2.455-2.4c-.013-.39-.013-.785-.013-1.181-.006-3.97-.006-3.97,3.945-4.533v-3.29h-13.981v3.228c3.951.785,3.951.785,3.945,4.86-.006,2.8-.532,3.314-3.37,3.333-1.41.006-2.826.006-4.236-.006-2.127-.019-2.782-.7-2.789-2.875V-269.1c0-3.772.019-3.8,3.976-4.2,0-1.033-.031-2.084.007-3.135.074-2.059.624-2.585,2.665-2.591h5.534v-4.23c-4.242-1.2-4.242-1.2-3.921-6.029.173-2.61,2.288-2.1,4.069-2.362,0-1.057-.019-2.059,0-3.061.037-1.973.643-2.585,2.665-2.6,3.9-.012,7.8,0,11.693.006h1.942v-3.228a1.12,1.12,0,0,0-.328-.161c-3.327-.235-3.494-.408-3.507-3.729-.006-4.155.148-4.31,4.261-4.285,1.243.013,2.486-.037,3.729.006a2.161,2.161,0,0,1,2.387,2.43c-.006.4,0,.791,0,1.187-.037,3.945-.037,3.945-3.952,4.5v3.284h11.186c4.693.006,5.479-.736,5.293,5.077a2.063,2.063,0,0,0,.086.476c4.155.859,4.155.859,3.939,5.825-.081,1.837-.52,2.133-3.915,2.548v4.353h5.306c2.363,0,2.844.47,2.888,2.869.019.946.007,1.892.007,2.8,3.976.674,3.976.674,3.988,4.706.012,2.98-.452,3.444-3.407,3.432-1.528-.006-3.049.025-4.576-.006a2.152,2.152,0,0,1-2.4-2.418c.006-.334-.006-.674-.006-1.014C-932.875-272.746-932.875-272.746-928.91-273.358Z" transform="translate(-2154.527 -9166.278)"/>
    <rect id="Rectangle_4897" data-name="Rectangle 4897" width="60" height="60" transform="translate(-3137 -9483)" fill="none"/>
  </g>
</svg>
