<svg xmlns="http://www.w3.org/2000/svg" width="60" height="61" viewBox="0 0 60 61">
  <g id="Group_22705" data-name="Group 22705" transform="translate(3052 8919.5)">
    <g id="Boundary" transform="translate(-3052 -8919)" fill="#fff" stroke="rgba(0,0,0,0)" stroke-width="1" opacity="0">
      <rect width="60" height="60" stroke="none"/>
      <rect x="0.5" y="0.5" width="59" height="59" fill="none"/>
    </g>
    <path id="Subtraction_13" data-name="Subtraction 13" d="M41.867,60H5.98A6,6,0,0,1,0,54V6A5.97,5.97,0,0,1,5.98,0H29.906L47.848,18V54A6,6,0,0,1,41.867,60ZM20.488,50.4h0l2.424,2.184,1.751-1.824-2.136-1.944a8.684,8.684,0,0,0,1.656-2.832A10.284,10.284,0,0,0,24.76,42.5a10.744,10.744,0,0,0-.576-3.564,8.61,8.61,0,0,0-1.656-2.868,7.626,7.626,0,0,0-2.64-1.92,8.67,8.67,0,0,0-3.552-.7,8.685,8.685,0,0,0-3.54.7,7.593,7.593,0,0,0-2.652,1.92A8.61,8.61,0,0,0,8.488,38.94,10.744,10.744,0,0,0,7.912,42.5,10.391,10.391,0,0,0,8.488,46a8.385,8.385,0,0,0,1.656,2.82A7.607,7.607,0,0,0,12.8,50.7a8.819,8.819,0,0,0,3.54.684,8.213,8.213,0,0,0,4.151-.983ZM26.914,4.5V21H43.362ZM16.336,48.24a4.415,4.415,0,0,1-2.16-.492,4.137,4.137,0,0,1-1.44-1.308,5.678,5.678,0,0,1-.8-1.836,8.753,8.753,0,0,1-.252-2.1,9.4,9.4,0,0,1,.252-2.184,5.791,5.791,0,0,1,.8-1.884,4.088,4.088,0,0,1,1.44-1.32,4.424,4.424,0,0,1,2.16-.492,4.424,4.424,0,0,1,2.16.492,4.088,4.088,0,0,1,1.44,1.32,5.791,5.791,0,0,1,.8,1.884,9.4,9.4,0,0,1,.252,2.184,8.2,8.2,0,0,1-.288,2.327,5.193,5.193,0,0,1-.768,1.608l-1.944-1.776L16.24,46.536,17.848,48a2.028,2.028,0,0,1-.6.193A6.565,6.565,0,0,1,16.336,48.24Z" transform="translate(-3046 -8919)" stroke="rgba(0,0,0,0)" stroke-miterlimit="10" stroke-width="1"/>
  </g>
</svg>
