<svg xmlns="http://www.w3.org/2000/svg" width="60" height="60" viewBox="0 0 60 60">
  <g id="Group_22693" data-name="Group 22693" transform="translate(3209 9233)">
    <path id="Path_file-chart" data-name="Path / file-chart" d="M31,23H47.5L31,6.5V23M10,2H34L52,20V56a6,6,0,0,1-6,6H10a6,6,0,0,1-6-6V8a5.979,5.979,0,0,1,6-6m3,54h6V38H13V56m12,0h6V32H25V56m12,0h6V44H37Z" transform="translate(-3207 -9235)"/>
    <rect id="Rectangle_4898" data-name="Rectangle 4898" width="60" height="60" transform="translate(-3209 -9233)" fill="none"/>
  </g>
</svg>
