<svg xmlns="http://www.w3.org/2000/svg" width="60" height="60" viewBox="0 0 60 60">
  <g id="Group_22703" data-name="Group 22703" transform="translate(3365 8972)">
    <rect id="Rectangle_4903" data-name="Rectangle 4903" width="60" height="60" transform="translate(-3365 -8972)" fill="none"/>
    <path id="Subtraction_12" data-name="Subtraction 12" d="M19.884,29.463H15.413a.562.562,0,0,1-.558-.471l-.414-2.971a7.765,7.765,0,0,1-1.889-1.11L9.769,26.044a.566.566,0,0,1-.194.034.551.551,0,0,1-.488-.281l-2.235-3.88a.55.55,0,0,1,.134-.717l2.358-1.862a8.589,8.589,0,0,1-.078-1.087c0-.223.012-.464.037-.736h4.5a3.97,3.97,0,0,0-.069.736,3.912,3.912,0,1,0,3.912-3.924c-.064,0-.128,0-.193,0V7.038h2.428a.563.563,0,0,1,.559.471l.413,2.972a8.073,8.073,0,0,1,1.889,1.1l2.783-1.121a.523.523,0,0,1,.2-.039.549.549,0,0,1,.483.285l2.235,3.88a.565.565,0,0,1-.134.717L25.954,17.13a9.674,9.674,0,0,1,.078,1.121,8.81,8.81,0,0,1-.078,1.087L28.312,21.2a.565.565,0,0,1,.134.717L26.211,25.8a.551.551,0,0,1-.487.281.568.568,0,0,1-.195-.034l-2.783-1.133a8.128,8.128,0,0,1-1.889,1.11l-.413,2.971A.563.563,0,0,1,19.884,29.463Z" transform="translate(-3367.675 -8975.843)" stroke="rgba(0,0,0,0)" stroke-miterlimit="10" stroke-width="1"/>
    <path id="Path_cog" data-name="Path / cog" d="M13.14,17.129a3.922,3.922,0,1,1,3.91-3.922,3.916,3.916,0,0,1-3.91,3.922m8.3-2.835a8.734,8.734,0,0,0,.078-1.087,9.613,9.613,0,0,0-.078-1.121L23.8,10.26a.567.567,0,0,0,.134-.717L21.7,5.665a.548.548,0,0,0-.681-.247L18.234,6.539a8.092,8.092,0,0,0-1.888-1.1l-.413-2.97A.565.565,0,0,0,15.374,2H10.906a.565.565,0,0,0-.559.471l-.413,2.97a8.092,8.092,0,0,0-1.888,1.1L5.264,5.418a.548.548,0,0,0-.681.247L2.348,9.542a.554.554,0,0,0,.134.717l2.357,1.827a9.613,9.613,0,0,0-.078,1.121,8.735,8.735,0,0,0,.078,1.087l-2.357,1.86a.554.554,0,0,0-.134.717l2.234,3.878A.561.561,0,0,0,5.264,21l2.782-1.132a7.754,7.754,0,0,0,1.888,1.109l.413,2.97a.565.565,0,0,0,.559.471h4.469a.565.565,0,0,0,.559-.471l.413-2.97a8.129,8.129,0,0,0,1.888-1.109L21.016,21a.561.561,0,0,0,.681-.247l2.234-3.878a.567.567,0,0,0-.134-.717Z" transform="translate(-3332.108 -8939.614)" stroke="rgba(0,0,0,0)" stroke-miterlimit="10" stroke-width="1"/>
    <path id="Path_factory" data-name="Path / factory" d="M4.243,19.941v2.243H8.728V19.941H4.243m0-4.485V17.7H15.456V15.456H4.243m6.728,4.485v2.243h4.485V19.941H10.971M17.7,15.456V17.7h4.485V15.456H17.7m0,4.485v2.243h4.485V19.941H17.7M2,24.427V8.728l5.607,4.485V8.728l5.607,4.485V8.728l5.607,4.485L19.941,2h3.364l1.121,11.213V24.427Z" transform="translate(-3333.621 -8970.807)"/>
    <path id="Path_office-building" data-name="Path / office-building" d="M5,3V25.413h7.471V21.055h2.49v4.358h7.471V3H5M7.49,5.49h2.49v2.49H7.49V5.49m4.981,0h2.49v2.49h-2.49V5.49m4.981,0h2.49v2.49h-2.49V5.49M7.49,10.471h2.49v2.49H7.49v-2.49m4.981,0h2.49v2.49h-2.49v-2.49m4.981,0h2.49v2.49h-2.49v-2.49M7.49,15.452h2.49v2.49H7.49v-2.49m4.981,0h2.49v2.49h-2.49v-2.49m4.981,0h2.49v2.49h-2.49v-2.49M7.49,20.432h2.49v2.49H7.49v-2.49m9.961,0h2.49v2.49h-2.49Z" transform="translate(-3364.746 -8940.614)"/>
  </g>
</svg>
