<svg xmlns="http://www.w3.org/2000/svg" width="60" height="60" viewBox="0 0 60 60">
  <g id="Group_22540" data-name="Group 22540" transform="translate(-5345 19904)">
    <path id="Subtraction_11" data-name="Subtraction 11" d="M20.46,51.8H2.467A2.47,2.47,0,0,1,0,49.336V38.852l1.11-.74a39.62,39.62,0,0,1,19.878-6.027A23.057,23.057,0,0,0,20.459,51.8ZM22.2,27.135A13.568,13.568,0,0,1,12.607,3.974,13.569,13.569,0,0,1,33.63,20.882a23.112,23.112,0,0,0-9.057,6.046A13.7,13.7,0,0,1,22.2,27.135Z" transform="translate(5345 -19904)"/>
    <g id="Layer_2" data-name="Layer 2" transform="translate(5367.722 -19881.277)">
      <g id="invisible_box" data-name="invisible box">
        <rect id="Rectangle_4871" data-name="Rectangle 4871" width="37" height="37" transform="translate(0.278 0.277)" fill="none"/>
      </g>
      <g id="icons_Q2" data-name="icons Q2" transform="translate(1.574 1.574)">
        <path id="Path_12389" data-name="Path 12389" d="M19.313,2A17.234,17.234,0,1,0,31.578,7.048,17.313,17.313,0,0,0,19.313,2ZM28.52,24.821a1.653,1.653,0,0,1-1.338.787,1.5,1.5,0,0,1-.787-.236l-8.656-5.194V11.443a1.574,1.574,0,0,1,3.148,0v7l7.083,4.25a1.5,1.5,0,0,1,.551,2.125Z" transform="translate(-2 -2)"/>
      </g>
    </g>
  </g>
</svg>
