<svg xmlns="http://www.w3.org/2000/svg" width="60" height="60" viewBox="0 0 60 60">
  <g id="Group_22696" data-name="Group 22696" transform="translate(3209 9083)">
    <path id="Path_account-group" data-name="Path / account-group" d="M30,5.5a8.75,8.75,0,1,1-8.75,8.75A8.75,8.75,0,0,1,30,5.5M12.5,11.75a7.38,7.38,0,0,1,3.825,1.05,13.84,13.84,0,0,0,2.825,9.9A7.5,7.5,0,1,1,12.5,11.75m35,0A7.5,7.5,0,1,1,40.85,22.7a13.84,13.84,0,0,0,2.825-9.9A7.38,7.38,0,0,1,47.5,11.75M13.75,37.375C13.75,32.2,21.025,28,30,28s16.25,4.2,16.25,9.375V41.75H13.75V37.375M0,41.75V38c0-3.475,4.725-6.4,11.125-7.25A10.11,10.11,0,0,0,8.75,37.375V41.75H0m60,0H51.25V37.375a10.11,10.11,0,0,0-2.375-6.625C55.275,31.6,60,34.525,60,38Z" transform="translate(-3209 -9076.5)"/>
    <rect id="Rectangle_4899" data-name="Rectangle 4899" width="60" height="60" transform="translate(-3209 -9083)" fill="none"/>
  </g>
</svg>
