<?xml version="1.0" encoding="utf-8"?>
<!-- Generator: Adobe Illustrator 26.0.0, SVG Export Plug-In . SVG Version: 6.00 Build 0)  -->
<svg version="1.1" id="Layer_1" xmlns="http://www.w3.org/2000/svg" xmlns:xlink="http://www.w3.org/1999/xlink" x="0px" y="0px"
	 viewBox="0 0 31.5 31.5" style="enable-background:new 0 0 31.5 31.5;" xml:space="preserve">
<style type="text/css">
	.st0{fill:#FFFFFF;}
</style>
<path class="st0" d="M31.5,18v-2.2h-6.8V27H27v-4.5h3.4v-2.2H27V18H31.5z"/>
<path class="st0" d="M19.1,27h-4.5V15.8h4.5c1.9,0,3.4,1.5,3.4,3.4v4.5C22.5,25.5,21,27,19.1,27z M16.9,24.8h2.2
	c0.6,0,1.1-0.5,1.1-1.1v-4.5c0-0.6-0.5-1.1-1.1-1.1h-2.2V24.8z"/>
<path class="st0" d="M10.1,15.8H4.5V27h2.2v-3.4h3.4c1.2,0,2.2-1,2.2-2.2V18C12.4,16.8,11.4,15.8,10.1,15.8z M6.8,21.4V18h3.4v3.4
	H6.8z"/>
<path class="st0" d="M22.5,13.5V9c0-0.3-0.1-0.6-0.3-0.8l-7.9-7.9C14.1,0.1,13.8,0,13.5,0H2.2C1,0,0,1,0,2.2v27c0,1.2,1,2.2,2.2,2.2
	h18v-2.2h-18v-27h9V9c0,1.2,1,2.2,2.2,2.2h6.8v2.2H22.5z M13.5,9V2.7L19.8,9H13.5z"/>
</svg>
