<svg id="Layer_1" data-name="Layer 1" xmlns="http://www.w3.org/2000/svg" viewBox="0 0 460.79 512"><defs><style>.cls-1{fill:#1258a1;}</style></defs><path class="cls-1" d="M115.87,0h7.37A23.29,23.29,0,0,1,142,12.94c3.28,6.62,2,14.22,2.25,21.32q111.72,0,223.42,0c.2-7.32-1.1-15.23,2.56-22A23.35,23.35,0,0,1,388.65,0h7.26a23.33,23.33,0,0,1,18.45,12.67c3.46,6.67,2.17,14.39,2.39,21.59,10.78.05,21.56-.06,32.34,0A37.43,37.43,0,0,1,475,45,38,38,0,0,1,486.38,73q0,200.47,0,401a37.77,37.77,0,0,1-14.91,30.37A39.12,39.12,0,0,1,451.25,512H60.46a38.48,38.48,0,0,1-28.59-16.84A37.8,37.8,0,0,1,25.63,474q0-196,0-392c.06-6.7-.48-13.54,1.34-20.08,4-15.18,18.32-26.91,34-27.54,11.41-.28,22.83,0,34.25-.12.22-7.21-1.08-14.93,2.39-21.61A23.47,23.47,0,0,1,115.87,0Zm-1.76,16.09c-6.17,3.9-3.18,12.19-3.86,18.18h19c-.19-4.73.56-9.57-.52-14.22C126.66,14.29,118.92,13.88,114.11,16.09ZM382.82,22c-.31,4.09-.06,8.2-.11,12.29q9.51,0,19,0c-.15-4.52.4-9.1-.33-13.58C400.33,16.1,395.2,14.36,391,15,387,14.77,383,17.89,382.82,22ZM42.9,62c-2.08,4-2.38,8.59-2.3,13,0,22.15,0,44.31,0,66.46q40.24,0,80.49,0c4.62-.47,8.93,3.9,8.08,8.55a7.66,7.66,0,0,1-8.2,6.43c-26.79,0-53.58,0-80.37,0q0,140.27,0,280.54c.07,5-.44,10.2,1.32,15a22.73,22.73,0,0,0,14.12,13.82C60.54,467.38,65.35,467,70,467H348c4.79-.09,9.9.54,14.32-1.71A17.12,17.12,0,0,0,372,450c.14-17.34-.13-34.69.12-52,.55-15.7,14.26-29.49,30-30.13,15-.31,29.95-.05,44.93-.13,4.95-.1,10.26.65,14.82-1.78a17.27,17.27,0,0,0,9.5-15.92q0-96.75,0-193.5H153c-3.51.29-7.23-1.64-8.3-5.13-1.77-4.68,2.27-10.18,7.27-9.85q159.7-.09,319.4,0,0-34.73,0-69.46A22.69,22.69,0,0,0,456.6,50.66c-4.67-1.79-9.73-1.36-14.62-1.4H382.7c0,7.24-.09,14.48,0,21.72-.19,3.7,2.54,7.43,6.31,7.86,2.8.46,6.08.87,7.66,3.58,3.06,4.13.36,10.74-4.72,11.53C380,95.3,368.3,85,367.8,73c-.27-7.9,0-15.81-.1-23.71H110.24c.05,7.29-.09,14.58,0,21.88a7.78,7.78,0,0,0,2.6,6c2.93,2.79,7.89,1.15,10.6,4.33,4,3.8,1.8,11.25-3.55,12.39C107.77,95.6,95.84,85.11,95.33,73c-.23-7.89,0-15.79-.09-23.68-10.75,0-21.51-.05-32.26,0A22.61,22.61,0,0,0,42.9,62ZM453,382.67c-15,0-30.05,0-45.08,0-3.59,0-7.34-.06-10.67,1.51A17.15,17.15,0,0,0,387.08,400c0,16,0,32,0,48a65.46,65.46,0,0,1-.8,9.37q37.64-37.86,75.49-75.52A54.49,54.49,0,0,1,453,382.67ZM394,470.86A37.88,37.88,0,0,1,367,482q-151.54,0-303.09,0a39.72,39.72,0,0,1-23.46-7.49c.09,11.9,10.39,22.66,22.43,22.46q192.54.11,385.09,0a22.72,22.72,0,0,0,20.53-11.58c2.38-4.05,3-8.83,2.88-13.45,0-26.17,0-52.34,0-78.52Z" transform="translate(-25.6)"/><path class="cls-1" d="M82.53,186.77c12.83-.67,25.73-.17,38.58-.26,7.72-.15,14.58,6.75,14.48,14.46,0,12,.07,24.09,0,36.14A14.75,14.75,0,0,1,121,251.44c-11.66.07-23.33,0-35,0a15,15,0,0,1-13.63-7.85c-1.83-3.22-1.75-7.05-1.76-10.64.09-10.65-.07-21.31.07-32A14.63,14.63,0,0,1,82.53,186.77Zm3.09,14.7q0,17.5,0,35h35q0-17.5,0-35Z" transform="translate(-25.6)"/><path class="cls-1" d="M184.45,186.76c10.18-.69,20.42-.09,30.62-.3,4.67.16,9.64-.66,14,1.41a14.7,14.7,0,0,1,8.42,13.07c.08,11.68,0,23.36,0,35a14.86,14.86,0,0,1-7.89,13.76c-3.24,1.83-7.06,1.77-10.67,1.75-10.65-.09-21.3.06-31.95-.06a14.73,14.73,0,0,1-12.77-7.85c-1.82-3.22-1.74-7-1.74-10.63.09-10.65-.07-21.3.07-31.95A14.63,14.63,0,0,1,184.45,186.76Zm3.09,14.71v35h35q0-17.5,0-35Z" transform="translate(-25.6)"/><path class="cls-1" d="M286.49,186.74c12.82-.61,25.7-.16,38.55-.23,7.7-.1,14.49,6.8,14.39,14.49.08,11.66,0,23.34,0,35a14.93,14.93,0,0,1-7.79,13.69c-3.23,1.83-7.05,1.82-10.64,1.79-10.69-.09-21.38.06-32.07-.06-7.66,0-14.54-6.71-14.45-14.4q-.13-18,0-36.1A14.61,14.61,0,0,1,286.49,186.74Zm3,14.73q0,17.49,0,35h35q0-17.49,0-35Z" transform="translate(-25.6)"/><path class="cls-1" d="M388.49,186.73c12.83-.58,25.71-.17,38.55-.21,7.68-.06,14.42,6.82,14.31,14.48.07,11.66,0,23.33,0,35a15,15,0,0,1-7.75,13.69c-3.22,1.84-7,1.84-10.64,1.81-10.67-.09-21.35,0-32-.05-7.69.09-14.62-6.67-14.54-14.38q-.15-18.09,0-36.18A14.6,14.6,0,0,1,388.49,186.73Zm2.89,14.74q0,17.49,0,35h35q0-17.49,0-35Z" transform="translate(-25.6)"/><path class="cls-1" d="M84.26,279.31c12.22-.23,24.45-.1,36.67-.07a14.74,14.74,0,0,1,14.63,13.87c.14,12,0,24,.06,35.93a14.85,14.85,0,0,1-8,13.55c-3.25,1.78-7.06,1.65-10.66,1.63-10.64-.08-21.29,0-31.93,0a14.67,14.67,0,0,1-14.33-14.27c-.12-11.94-.06-23.9,0-35.85A14.67,14.67,0,0,1,84.26,279.31Zm1.37,14.89q0,17.49,0,35c11.65,0,23.31,0,35,0,.05-11.67,0-23.34,0-35Z" transform="translate(-25.6)"/><path class="cls-1" d="M186.21,279.31c12.26-.23,24.53-.11,36.8-.06a14.77,14.77,0,0,1,14.51,14.65c0,11.72,0,23.44,0,35.16a14.83,14.83,0,0,1-8,13.51c-2.9,1.61-6.3,1.69-9.53,1.66-11-.09-22,0-33-.05a14.67,14.67,0,0,1-14.38-14.27c-.12-12-.07-23.93,0-35.88A14.67,14.67,0,0,1,186.21,279.31Zm1.34,14.89q0,17.49,0,35h35c0-11.66,0-23.33,0-35Z" transform="translate(-25.6)"/><path class="cls-1" d="M288.23,279.3c12.25-.2,24.51-.11,36.76,0A14.76,14.76,0,0,1,339.44,294c0,12,.07,24,0,35.94a14.71,14.71,0,0,1-14.49,14.23q-18,.06-35.91,0a14.67,14.67,0,0,1-14.51-14.27c-.1-12-.08-24,0-36A14.65,14.65,0,0,1,288.23,279.3Zm1.23,14.9c0,11.67,0,23.34,0,35h35q0-17.51,0-35Z" transform="translate(-25.6)"/><path class="cls-1" d="M388.5,281.73c10.15-.61,20.35-.09,30.52-.27,4.71.14,9.73-.66,14.12,1.51a14.72,14.72,0,0,1,8.21,13c.07,11.67,0,23.34,0,35a15,15,0,0,1-7.8,13.69c-3.19,1.83-7,1.83-10.54,1.8-10.67-.08-21.34.05-32-.05-7.71.14-14.66-6.63-14.6-14.36-.16-10.69,0-21.38-.08-32.06a31,31,0,0,1,.64-8A14.6,14.6,0,0,1,388.5,281.73Zm2.88,14.74q0,17.49,0,35h35q0-17.49,0-35Q408.88,296.45,391.38,296.47Z" transform="translate(-25.6)"/><path class="cls-1" d="M81.41,372.56A36.53,36.53,0,0,1,90,372c10.37.09,20.74-.08,31.1.07a14.62,14.62,0,0,1,13.25,8.64c1.38,2.88,1.36,6.13,1.34,9.24-.07,10.69,0,21.37,0,32.06a14.84,14.84,0,0,1-8.2,13.46c-3.21,1.71-6.94,1.58-10.47,1.57-10.68-.09-21.36.07-32-.07a14.71,14.71,0,0,1-13.53-10.08c-1-3.21-.75-6.62-.77-9.93.1-10.3-.12-20.6.09-30.9A14.59,14.59,0,0,1,81.41,372.56ZM85.62,387v35q17.5,0,35,0,0-17.49,0-35Q103.13,387,85.62,387Z" transform="translate(-25.6)"/><path class="cls-1" d="M183.36,372.55c9.49-1.21,19.15-.24,28.7-.55,5.53.28,11.38-.87,16.65,1.25A14.81,14.81,0,0,1,237.54,387c0,12,.06,23.95,0,35.91A14.74,14.74,0,0,1,223.1,437q-18.06.1-36.13,0c-7.48.05-14.25-6.48-14.35-14-.17-12-.06-24-.05-36A14.73,14.73,0,0,1,183.36,372.55ZM187.54,387v35q17.51,0,35,0,0-17.49,0-35Q205,387,187.54,387Z" transform="translate(-25.6)"/><path class="cls-1" d="M276.8,378.78A14.87,14.87,0,0,1,289.93,372c11.69,0,23.39-.08,35.08.05a14.63,14.63,0,0,1,13.13,8.61c1.65,3.54,1.3,7.53,1.33,11.33-.05,10,0,20,0,30a14.81,14.81,0,0,1-8.11,13.38c-3.77,2-8.18,1.57-12.3,1.61-10.37-.11-20.75.16-31.11-.11-8.12-.4-15-8.83-13.1-16.86a7.53,7.53,0,0,1,11.17-4c2.19,1.22,2.92,3.72,3.69,5.93q17.38,0,34.77,0V387q-17.5,0-35,0c-.07,4,.34,8-.3,12-1.17,5-8,7.21-11.9,3.78-3.07-2.27-2.85-6.38-2.82-9.77C274.5,388.2,273.93,382.94,276.8,378.78Z" transform="translate(-25.6)"/></svg>