<svg id="Layer_1" data-name="Layer 1" xmlns="http://www.w3.org/2000/svg" viewBox="0 0 487.82 512"><defs><style>.cls-1{fill:#fff;}</style></defs><path class="cls-1" d="M130.58,0h3.7a51.52,51.52,0,0,1,36.2,17.55,50.55,50.55,0,0,1,12.06,38.57A51.36,51.36,0,0,1,165.92,87.9a49.87,49.87,0,0,1-72.23-5.63,52,52,0,0,1-11-24.47A50.49,50.49,0,0,1,95,17,51.6,51.6,0,0,1,130.58,0Z" transform="translate(-12.07)"/><path class="cls-1" d="M377.57,0h3.75A51.6,51.6,0,0,1,417,17a50.61,50.61,0,0,1,12.57,39.17,51.32,51.32,0,0,1-16.61,31.76,50.71,50.71,0,0,1-38.56,12.63,51.25,51.25,0,0,1-33.7-18.27,51.86,51.86,0,0,1-11-24.44A50.48,50.48,0,0,1,342,17,51.6,51.6,0,0,1,377.57,0Z" transform="translate(-12.07)"/><path class="cls-1" d="M53.9,116A25.23,25.23,0,0,1,70.17,104.5a62.05,62.05,0,0,1,11.88-.64c35.65,0,71.31,0,107,0a25.45,25.45,0,0,1,20.77,10.23c3.48,4.37,4.49,10,6,15.2Q234,192.66,252.2,256c1,4,.74,8.12.49,12.16-1.1,11.94-11.83,22-23.79,22.42a25.45,25.45,0,0,1-25.77-17.87c-5.44-19.91-10.73-39.86-16.14-59.78,2.66,15.47,6.26,30.76,9.29,46.16,5.77,27.55,11.22,55.17,17.18,82.68,3.5,9.78.64,21.48-7.41,28.17-5.25,4.75-12.44,6.39-19.36,6.33-.05,36.88.1,73.77-.07,110.65,0,13.15-11.41,24.67-24.5,25.09H160.2a26,26,0,0,1-20.82-12.29c-3-4.65-3.89-10.29-3.83-15.74q0-53.91,0-107.81h-6.11q0,54.45,0,108.89a25.85,25.85,0,0,1-25,26.95h-1.34a26,26,0,0,1-21.67-13.52c-3-5.3-3.22-11.56-3.11-17.5q0-52.37,0-104.73c-4.47-.18-9.08-.43-13.19-2.4A25.62,25.62,0,0,1,50.08,351c-.19-4.77,1.72-9.24,2.59-13.85,8.67-42.42,17.58-84.79,26.16-127.23-5.55,20.76-11.19,41.51-16.76,62.27-2.84,11.31-14.45,19.33-26,18.42C24.12,290.09,13.39,280,12.33,268.1c-.29-4-.55-8.18.47-12.13q18.25-63.32,36.42-126.66C50.56,124.81,51.39,120.06,53.9,116Z" transform="translate(-12.07)"/><path class="cls-1" d="M299.75,105.81c5.11-2.2,10.78-2,16.22-2q66.51.06,133,0a25.61,25.61,0,0,1,20.49,9.61c3.2,3.84,4.79,8.7,5.61,13.57q12.09,64.17,24.2,128.32a53.16,53.16,0,0,1,.4,12.73,25.43,25.43,0,0,1-13.75,19.74c-10.48,5.58-24.58,2.41-31.66-7.13-4.9-5.93-5.39-13.86-6.58-21.13q-7.11-44.28-14.18-88.55-.09,157.5.11,315c.46,13.46-11.08,25.54-24.49,26h-1.91A26.06,26.06,0,0,1,386,499c-2.7-4.52-3.47-9.86-3.4-15q0-76.94,0-153.86h-6.14q0,77.42,0,154.83a25.79,25.79,0,0,1-25,27h-1.36c-13.47-.3-25.13-12.43-24.68-25.93q-.06-157.51.12-315c-5.31,32.66-10.41,65.35-15.72,98-1.69,11.58-12.07,21.15-23.83,21.54-11.85.88-23.43-7.76-26.09-19.31-2.2-10,.75-19.94,2.48-29.71q11-58.12,21.93-116.26A25.58,25.58,0,0,1,299.75,105.81Z" transform="translate(-12.07)"/></svg>