<svg id="Layer_1" data-name="Layer 1" xmlns="http://www.w3.org/2000/svg" viewBox="0 0 512 512"><defs><style>.cls-1{fill:#fff;}</style></defs><path class="cls-1" d="M249.73,0h12.49A255.37,255.37,0,0,1,372,27.88a256.41,256.41,0,0,1,140,221v13.26A256.84,256.84,0,0,1,310.06,506.24,268.82,268.82,0,0,1,262.25,512H249.83A256.45,256.45,0,0,1,0,263.16V249.07a260.09,260.09,0,0,1,13.88-76.28C34.82,111.6,80,59.16,137.31,29.29,171.82,10.92,210.69,1.11,249.73,0ZM208.58,58.54c-14.73,17.07-25.79,37-34.55,57.72a356.9,356.9,0,0,0,67,9.39q0-46.23,0-92.45C228.2,38.67,217.64,48.17,208.58,58.54ZM271,33.22v92.43a353.44,353.44,0,0,0,67-9.4C328.75,94.52,317,73.56,301.13,56,292.59,46.68,282.76,38.15,271,33.22ZM103.15,89.69a282.8,282.8,0,0,0,41.92,18c9.58-23.48,22-45.93,38-65.67A226.9,226.9,0,0,0,103.15,89.69ZM328.89,42.07C345,61.82,357.29,84.35,367,107.8a297.89,297.89,0,0,0,41.85-18.09A226.8,226.8,0,0,0,328.89,42.07ZM30.51,241h86.76a406.82,406.82,0,0,1,17.56-105,312.8,312.8,0,0,1-53-23.81A225.67,225.67,0,0,0,30.51,241ZM377.18,136a408.14,408.14,0,0,1,17.55,105h86.75A225.91,225.91,0,0,0,430.2,112.17,317.79,317.79,0,0,1,377.18,136ZM147.31,241H241q0-42.66,0-85.31a389.39,389.39,0,0,1-77.29-11.11A379.28,379.28,0,0,0,147.31,241ZM271,155.69q0,42.66,0,85.31h93.69a380.67,380.67,0,0,0-16.39-96.42A386.38,386.38,0,0,1,271,155.69ZM30.52,271A225.76,225.76,0,0,0,81.81,399.83a310.11,310.11,0,0,1,53-23.81,407.68,407.68,0,0,1-17.56-105Zm116.79,0a379.72,379.72,0,0,0,16.39,96.42A387.1,387.1,0,0,1,241,356.31q0-42.66,0-85.31ZM271,271q0,42.66,0,85.31a384.12,384.12,0,0,1,77.29,11.11A381.56,381.56,0,0,0,364.69,271ZM377.18,376a315,315,0,0,1,53,23.87A226.08,226.08,0,0,0,481.48,271H394.73A408.5,408.5,0,0,1,377.18,376ZM174,395.73c9.29,22,21.17,43.12,37.31,60.8,8.42,9.11,18.14,17.35,29.64,22.27q0-46.23,0-92.45A355,355,0,0,0,174,395.73Zm97-9.38q0,46.22,0,92.44c15.64-6.74,27.92-19.26,38.24-32.49,11.86-15.42,21.15-32.67,28.71-50.55A350.13,350.13,0,0,0,271,386.35ZM103.16,422.3a227.66,227.66,0,0,0,80,47.63c-16.05-19.76-28.42-42.27-38.13-65.74A300,300,0,0,0,103.16,422.3ZM367,404.2c-9.72,23.46-22.08,46-38.12,65.73a227.38,227.38,0,0,0,80-47.65A296.3,296.3,0,0,0,367,404.2Z"/></svg>