<svg id="Layer_1" data-name="Layer 1" xmlns="http://www.w3.org/2000/svg" viewBox="0 0 512 289.13"><defs><style>.cls-1{fill:#fff;}</style></defs><path class="cls-1" d="M247,112.23a66.8,66.8,0,0,1,40,6.56,72.78,72.78,0,0,1,33.38,35.83c10.87,24.57,7.67,54.86-8.47,76.38a70.15,70.15,0,0,1-38.54,26.51A67,67,0,0,1,230,254a72,72,0,0,1-35.25-34c-12.32-24.22-10.48-55,4.91-77.42C210.43,126.56,227.85,114.92,247,112.23Z" transform="translate(0 -111.51)"/><path class="cls-1" d="M93.52,122.76a58.22,58.22,0,0,1,40.58,6.11A63.6,63.6,0,0,1,162.72,163a67.71,67.71,0,0,1,.46,43.92,63.7,63.7,0,0,1-29.54,35.69,58.39,58.39,0,0,1-43.1,5A61.31,61.31,0,0,1,55.15,221c-14.2-22.05-13.44-52.61,2-73.84A60.49,60.49,0,0,1,93.52,122.76Z" transform="translate(0 -111.51)"/><path class="cls-1" d="M397.13,122.17a58.22,58.22,0,0,1,40.3,8.45A63.46,63.46,0,0,1,462,160a67.47,67.47,0,0,1,.12,51,63.13,63.13,0,0,1-29,32.1,58.23,58.23,0,0,1-45.73,3.38,61.42,61.42,0,0,1-29.57-22.19A66.33,66.33,0,0,1,345.41,184a65.57,65.57,0,0,1,18.32-44.25A59.42,59.42,0,0,1,397.13,122.17Z" transform="translate(0 -111.51)"/><path class="cls-1" d="M72.07,259.15c11.79-2.54,23.92-1.83,35.89-1.93,10.68.06,21.55-.56,32,2.17,11.17,2.09,21.55,7,31.2,12.88a125.21,125.21,0,0,0-35.66,37.19,119.2,119.2,0,0,0-17.33,51.48c-.7,8.24-.68,16.53-.63,24.8q-58.77.06-117.54,0v-41.1a92.06,92.06,0,0,1,12.22-42.32A90.64,90.64,0,0,1,72.07,259.15Z" transform="translate(0 -111.51)"/><path class="cls-1" d="M359.1,263.15c16.13-6.59,33.84-6,50.94-5.93,10.54-.07,21.21-.17,31.54,2.28a90.69,90.69,0,0,1,55.48,38.43A91.91,91.91,0,0,1,512,344.55v41.2H396c0-5.93.1-11.86-.22-17.79a119,119,0,0,0-17.88-58.76,124.73,124.73,0,0,0-36.24-37.39C347.28,268.57,352.89,265.2,359.1,263.15Z" transform="translate(0 -111.51)"/><path class="cls-1" d="M187,298a90,90,0,0,1,40.87-15.33c10.35-1,20.75-.61,31.13-.67,11.64.05,23.45-.48,34.89,2.05a90.7,90.7,0,0,1,71.29,77.47c1.21,13,.74,26.06.68,39.09-72.79-.18-145.57,0-218.36-.1.35-18.55-1.6-37.69,4.47-55.59A90.14,90.14,0,0,1,187,298Z" transform="translate(0 -111.51)"/></svg>