<svg id="Layer_1" data-name="Layer 1" xmlns="http://www.w3.org/2000/svg" viewBox="0 0 493.55 512"><defs><style>.cls-1{fill:#10549d;}</style></defs><path class="cls-1" d="M119.52,0h41.05c6,.5,12.17,2.57,16.25,7.19A20.83,20.83,0,0,1,181.94,21c.13,11.52-.07,23,.09,34.56q74,0,147.93,0c.18-11.53,0-23.05.1-34.58a20.43,20.43,0,0,1,6.12-14.82c4-3.94,9.69-5.66,15.2-6.16h41c6.78.74,13.7,3.08,18.52,8.1A19.44,19.44,0,0,1,416.38,22c0,11.17,0,22.33,0,33.5,12.87,0,25.74,0,38.61,0a47.66,47.66,0,0,1,19.88,3.59c16.54,6.77,28.06,24,27.86,41.91q0,179,0,358c.16,18.16-8.69,36.71-24.29,46.47-5.53,3.62-12,5.38-18.41,6.54H53.51a44.81,44.81,0,0,1-24.62-9.88C16.17,491.78,9.14,475.31,9.27,459q-.06-177,0-354C9,97.79,9.82,90.41,12.7,83.7,19.19,67.58,35.58,56,53,55.59c14.2-.13,28.41,0,42.61-.06,0-11.19,0-22.37,0-33.56a19.26,19.26,0,0,1,6-14.39C106.39,2.91,113,.74,119.52,0Zm2.62,24.68q0,33.93,0,67.86c11.72,0,23.44,0,35.16,0q0-33.91,0-67.83Q139.71,24.65,122.14,24.68ZM353.47,92.53H391.7c-.06-22.65.17-45.3-.11-67.94-12.71.16-25.41,0-38.11.07Q353.43,58.6,353.47,92.53ZM35.06,94.08C33.58,97.87,33.87,102,33.92,106c0,22.25,0,44.51,0,66.76H478c.11-23.9,0-47.8.07-71.7a20.9,20.9,0,0,0-14.22-19.78c-3.81-1.42-7.92-1-11.9-1.06-11.86,0-23.73,0-35.59,0-.23,6.19.57,12.47-.64,18.59-2.78,10.9-13.9,18-24.78,18.35-12.67.11-25.34,0-38,0a22.91,22.91,0,0,1-21.71-15.43c-2.21-7-.84-14.4-1.24-21.57H182c-.44,7.39,1.1,15.11-1.49,22.23a22.83,22.83,0,0,1-20.58,14.73c-12.63.08-25.26,0-37.88,0-9.76,0-19.77-5.26-24.22-14.15C94.25,96,96.05,87.8,95.61,80.21c-13.87,0-27.74,0-41.62,0A20.87,20.87,0,0,0,35.06,94.08Zm-1,103.26c-.33,27.87,0,55.76-.14,83.65V459.05a33,33,0,0,0,5.42,18.61c3.82,5.9,10.54,10,17.69,9.67H450c4.1,0,8.35.32,12.26-1.18,12.09-4.74,16.74-19.1,15.81-31.13-.1-85.89.15-171.79-.13-257.68Q256,197.46,34.07,197.34Z" transform="translate(-9.2)"/><path class="cls-1" d="M238.59,236.58a12.41,12.41,0,0,1,14-7,12.55,12.55,0,0,1,8.63,7.14Q275,264.58,288.7,292.39q29.91,4.41,59.8,9a13.82,13.82,0,0,1,9.93,5.15c2.83,3.37,2.9,8.33,1.22,12.25-1.46,3.55-4.67,5.86-7.3,8.5-13.39,12.92-26.93,25.68-40.24,38.68,3.75,20.35,7.38,40.72,11,61.09,1.52,7-4.17,14.21-11.22,14.61a20.48,20.48,0,0,1-8.31-2.08q-26.87-14.08-53.75-28.1Q222.12,426,194.33,440.4a12.35,12.35,0,0,1-17.79-13.54q5.46-30.53,11-61.05Q165.26,344.39,143,323a13.34,13.34,0,0,1-3.42-13.61,12.88,12.88,0,0,1,9.94-7.79c20.43-3.08,40.89-6,61.28-9.26a36.36,36.36,0,0,0,3-5.57Q226.16,261.69,238.59,236.58Zm11.11,33.24c-6.29,12.64-12.65,25.25-18.93,37.91-1.52,3.81-4.55,7.29-8.79,8-14.72,2.23-29.49,4.14-44.22,6.32,10.31,10.06,20.79,20,31.13,30a13.07,13.07,0,0,1,3.83,11.85c-2.4,14.43-4.91,28.84-7.28,43.28,12.49-6.78,25-13.47,37.5-20.28a20.28,20.28,0,0,1,7-1.81c5,.22,9.18,3.14,13.45,5.41q15.4,8.31,30.81,16.62c-2.43-14.72-5-29.4-7.4-44.12-.7-4.62,1.59-9.15,5.08-12.06Q307,336.5,322,322c-15-2.23-30-4.09-44.91-6.44-5.1-1-7.46-6-9.37-10.28C261.63,293.5,256.09,281.41,249.7,269.82Z" transform="translate(-9.2)"/></svg>