<svg id="Layer_1" data-name="Layer 1" xmlns="http://www.w3.org/2000/svg" viewBox="0 0 512 512"><defs><style>.cls-1{fill:#1258a1;}</style></defs><path class="cls-1" d="M247.84,0h14.58A255.73,255.73,0,0,1,375.35,29.66,256.72,256.72,0,0,1,512,248.69V262.4a256.14,256.14,0,0,1-99.06,195.51,254.29,254.29,0,0,1-102.61,48.24A266.74,266.74,0,0,1,262.47,512H248.9c-44.39-1.43-88.43-14.28-126.22-37.69-52-31.78-92.13-82.49-110.57-140.6A259.72,259.72,0,0,1,0,262.51V248.76A259.11,259.11,0,0,1,16,167C39.91,102.37,91.08,48.53,154.28,21.16,183.75,8.2,215.71,1.32,247.84,0ZM244.2,30.33A226.21,226.21,0,0,0,54.27,154.26C26.94,207.66,22.53,272.14,42.1,328.82c19.54,58,63.91,107.06,119.6,132.45a225.91,225.91,0,0,0,308-278.76c-19.73-58-64.25-106.9-120-132.16A225.56,225.56,0,0,0,244.2,30.33Z"/><path class="cls-1" d="M253.22,61.27c8.45-1.85,17.36,5.06,17.7,13.69.19,10,0,20,.09,30.06a15.27,15.27,0,0,1-9.25,14.78,14.9,14.9,0,0,1-15.84-2.75A15.44,15.44,0,0,1,241,104.94c0-9.65,0-19.3,0-28.94A15.13,15.13,0,0,1,253.22,61.27Z"/><path class="cls-1" d="M125.13,114.19c7.34-2,15.69,2.59,17.82,9.93,2.55,7.32-1.67,16.18-9.07,18.63-7.51,3-16.88-1.38-19.3-9.12C111.56,125.66,116.79,116,125.13,114.19Z"/><path class="cls-1" d="M378.35,114.61c7.48-2.93,16.64,1.6,19.06,9.22,2.9,7.54-1.75,16.77-9.44,19.09-7.65,2.84-16.83-2.06-19-9.85C366.43,125.68,371,117,378.35,114.61Z"/><path class="cls-1" d="M241,165.91c-.14-8,7-15,15-14.91a15.15,15.15,0,0,1,15,14.9c0,27.95,0,55.9,0,83.86q42.3,42.3,84.61,84.6a15.7,15.7,0,0,1,5.3,12.72,14.87,14.87,0,0,1-9.86,13,15.1,15.1,0,0,1-15.63-3.45q-44.06-44-88.07-88c-3.59-3.19-6.41-7.58-6.31-12.55Q240.92,211,241,165.91Z"/><path class="cls-1" d="M73.21,241.28c10.56-.65,21.18-.09,31.77-.29a15.22,15.22,0,0,1,15.11,10c2.71,6.93-.91,15.46-7.65,18.51-3.56,1.83-7.65,1.5-11.51,1.51-8.68-.08-17.37.12-26.05-.09a15,15,0,0,1-1.67-29.64Z"/><path class="cls-1" d="M403.21,241.28c10.92-.63,21.91-.13,32.85-.26,8-.14,15.07,7,14.93,15,.14,8-6.9,15.1-14.87,15q-15.09.06-30.18,0a15.14,15.14,0,0,1-14.77-12.81C389.85,250.5,395.57,242.59,403.21,241.28Z"/><path class="cls-1" d="M125.49,368.65A15,15,0,0,1,143.05,379c2.57,7.64-2.43,16.63-10.19,18.66-7.61,2.47-16.44-2.52-18.51-10.19C111.72,379.48,117.33,370.28,125.49,368.65Z"/><path class="cls-1" d="M380.43,368.58a15,15,0,0,1,17,9.77c2.81,7.48-1.57,16.7-9.23,19.07-7.56,2.8-16.84-1.71-19.11-9.48C366.1,379.76,371.82,370,380.43,368.58Z"/><path class="cls-1" d="M253.16,391.29c8.45-1.91,17.41,5,17.76,13.64.17,10.39.06,20.78.06,31.17a15.14,15.14,0,0,1-12.87,14.73c-8.24,1.4-16.63-5.37-17-13.7-.2-8.7,0-17.4-.09-26.09,0-3.6-.34-7.39,1.18-10.76A15.11,15.11,0,0,1,253.16,391.29Z"/></svg>