<svg id="Layer_1" data-name="Layer 1" xmlns="http://www.w3.org/2000/svg" viewBox="0 0 512 509.91"><path d="M156,20.25A85.23,85.23,0,0,1,210,1.06c38.69,0,77.38-.06,116.07.05,10.1,1.15,20.56,5.8,26.19,14.62,3.94,5.94,4.83,13.35,3.89,20.3a52.45,52.45,0,0,1,25.72,24.26C385.33,67.34,388.23,75,388,83c-.07,16.35,0,32.7,0,49.06,0,7,.49,14.22-1.83,21-1.69,5.8-5.45,10.63-8,16a125.16,125.16,0,0,0-9.52,27.38c-1.89,9.2-2.36,18.63-4.44,27.81-5.17,25.42-16.72,50.86-37.78,67,0,6.74,0,13.48,0,20.23,44.2,15.84,88.33,31.91,132.5,47.85a65.35,65.35,0,0,1,17.79,9,60,60,0,0,1,23.8,38.88c3.82,23.47,7.93,46.88,11.53,70.38v3.76c-.82,11.79-8.53,22.85-19.58,27.24-6.73,3-14.23,2.36-21.4,2.39H32a31.7,31.7,0,0,1-19.46-6.42A32.37,32.37,0,0,1,0,481.45V477q5.78-35.65,11.79-71.28a59.77,59.77,0,0,1,37.8-45.09c45.35-16.36,90.63-32.94,136-49.14,0-6.36,0-12.71,0-19.06-18.56-13.79-30-35.1-35.84-57.09A139.54,139.54,0,0,1,144.63,197c0-8.07-.29-16.43-3.8-23.85-2.3-5.65-6.77-10-9.67-15.26A53.23,53.23,0,0,1,124.44,131c0-15.66-.08-31.33,0-47A85.59,85.59,0,0,1,156,20.25ZM198,19.42a68.33,68.33,0,0,0-56.19,66.65q0,23,0,45.92a38.6,38.6,0,0,0,2.61,13.68c.43-8.21-1.13-16.71,1.72-24.63a55,55,0,0,1,25.54-32.35c7.13-3.9,15.11-7.07,23.38-6.6,11,0,22,0,33,0C235,82.49,241.42,79,248,77c9.53-3.14,18.77-8.35,29.08-8,5.8-.27,11.49,1.16,16.9,3.12,13.27,4.73,26.62,9.25,39.85,14.09,17.88,6.87,31.5,23.81,33.86,42.88.22,7.52-.11,15.06.16,22.59A21.32,21.32,0,0,0,370.64,140c0-19.69,0-39.38,0-59.07-1.79-14-12.15-27.11-26.18-30.48-5-.81-8.9-6.17-7.1-11.14,1.58-4.63,3.14-10.25.08-14.63-3.18-4-8.46-5.83-13.4-6.31q-55.49-.06-111,0A80.91,80.91,0,0,0,198,19.42Zm73.31,67.89c-10.41,3.53-20.59,7.78-31.12,11a45.11,45.11,0,0,1-11.07,1.59c-12.71.11-25.43-.12-38.14.11-14.83,2.92-26.82,16-28.92,30.93-.07,22.05.07,44.1-.08,66.15a119.59,119.59,0,0,0,3.43,29c4.18,17.55,11.61,35.07,24.93,47.66,4.61,4.57,10.47,7.5,15.49,11.54,8.58,6.63,17.44,13,27.17,17.81,5.38,2.62,11.05,5,17.1,5.33,13.46,1.54,27.06-2.78,38.28-10.1,6.83-4.29,12.42-10.21,18.9-15,5.5-4.21,11.66-7.61,16.28-12.86,15.29-16.42,22.4-38.68,25.54-60.48,1.41-7.94.89-16,1-24,0-18.68.08-37.36-.06-56a36,36,0,0,0-16.61-24.28c-5-3.14-10.77-4.72-16.29-6.72-10.13-3.6-20.29-7.1-30.41-10.71A27,27,0,0,0,271.26,87.31ZM241.93,325.1c-14.36-3.38-27-11.49-39-19.82,0,2.48,0,5,0,7.45q26.53,17.7,53,35.44,26.49-17.75,53-35.42,0-4,0-8C291.05,320.78,266,329.78,241.93,325.1Zm-68.33,9.07q19.16,34.83,38.33,69.65c10.6-14.21,20.87-28.66,31.37-43-16.82-11.19-33.56-22.5-50.42-33.62C186.47,329.59,180,331.86,173.6,334.17Zm95,26.81q15.66,21.47,31.45,42.86,19.17-34.83,38.31-69.66c-6.39-2.36-12.83-4.61-19.23-6.92C302.26,338.41,285.46,349.72,268.63,361ZM55,377.06c-14.48,5.45-25,19.45-26.73,34.77-3.57,21.76-7.23,43.49-10.78,65.25-1.66,8.5,5.88,17,14.5,16.57q101,0,201.9,0Q192.5,455.74,151,417.85c-2.83-2.27-4.44-6.24-3.09-9.75,1.75-4.19,4.17-8.05,6.15-12.12-7.27-.16-14.53-.16-21.8-.37a8.72,8.72,0,0,1-8.44-7.59c-.36-2.32.63-4.52,1.62-6.53q9.13-18.23,18.21-36.47Q99.34,361,55,377.06ZM368.31,345q8.9,17.9,17.85,35.78c1.11,2.25,2.36,4.67,2,7.28a8.67,8.67,0,0,1-8.42,7.6c-7.27.22-14.54.21-21.81.37,1.89,3.79,4,7.45,5.83,11.29a8.65,8.65,0,0,1-2.24,10.08q-41.65,38.22-83.4,76.31,101,0,202,0c8.58.39,16-8.12,14.39-16.58q-5.61-34.11-11.3-68.2a42.42,42.42,0,0,0-26.95-32.09Q412.28,360.82,368.31,345Zm-222,33.57c7.55.24,15.1.11,22.64.45,5.74.16,9.79,6.95,7.19,12.08-2.91,6-6.21,11.87-9.24,17.83q28.28,25.89,56.57,51.76Q192.3,404.45,161.5,348C156.49,358.2,151.38,368.35,146.32,378.52ZM350.52,348q-30.94,56.3-61.93,112.55,28.29-25.8,56.5-51.69c-2.63-5-5.26-10.09-7.93-15.12-1.09-2.13-2.33-4.38-2.07-6.85A8.59,8.59,0,0,1,343,379c7.55-.35,15.12-.22,22.68-.46C360.64,368.34,355.5,358.22,350.52,348ZM245.88,387.57c2.85,5.71,9.59,10.31,8.38,17.36-3.09,19.64-6.26,39.28-9.33,58.93Q250.47,473.92,256,484c3.33-6,6.59-12,9.94-18,.61-1.21,1.5-2.49,1.05-3.92q-4.5-28.53-9.05-57.05c-1.24-7,5.3-11.66,8.35-17.18-3.26-4.73-6.77-9.29-10.14-13.95C252.62,378.36,249.43,383.1,245.88,387.57ZM221.33,421c3.33,6.1,6.75,12.14,10,18.28,1.72-11.45,3.6-22.86,5.41-34.29L235,402.38C230.37,408.53,225.84,414.74,221.33,421Zm55.84-18.43-1.71,2.37c1.79,11.11,3.46,22.25,5.34,33.35,3.81-5.43,6.49-11.57,9.87-17.28C286.24,414.77,281.68,408.66,277.17,402.53Z" transform="translate(0 -1.06)"/></svg>