<svg id="Isolation_Mode" data-name="Isolation Mode" xmlns="http://www.w3.org/2000/svg" viewBox="0 0 235.38 235.39"><defs><style>.cls-1{fill:#fff;}</style></defs><path class="cls-1" d="M250.29,83.4A117.62,117.62,0,0,1,356.74,261.7c-17.74,29.71-49.23,50.84-83.54,55.62a117.85,117.85,0,0,1-128.49-78.08c-11.4-32.62-7.44-70.31,10.9-99.66C175.38,106.81,212,84.83,250.29,83.4Zm-6.88,32.21a86.29,86.29,0,1,0,58,12A86.11,86.11,0,0,0,243.41,115.61Z" transform="translate(-138.31 -83.23)"/><path class="cls-1" d="M287.72,170.73a15.68,15.68,0,0,1,23,20c-1.7,3.48-4.9,5.79-8,8q-26.36,19.17-52.65,38.41c-4.23,3.14-9.92,4.77-15,3a16.75,16.75,0,0,1-9-7.14c-5.46-7.88-11.09-15.64-16.47-23.57A15.69,15.69,0,0,1,233.92,190c3.53,4.06,6.29,8.72,9.47,13.06C258.2,192.3,272.88,181.41,287.72,170.73Z" transform="translate(-138.31 -83.23)"/></svg>