<svg id="Layer_1" data-name="Layer 1" xmlns="http://www.w3.org/2000/svg" viewBox="0 0 492.14 512.64"><defs><style>.cls-1{fill:#0b559d;}</style></defs><path class="cls-1" d="M242.9,0h4a36.27,36.27,0,0,1,9.84,4.16L470.53,117.43a14.71,14.71,0,0,1,7.06,7c3.36,6.91.78,16.35-6.29,19.83Q364.16,201.12,256.93,257.84c-3.74,2-7.57,4.39-12,4.26-4.83.09-8.89-2.86-13-4.93Q128.31,202.22,24.65,147.35c-3-1.64-6.2-3-8.84-5.14-5.82-5.11-6.37-14.86-1.48-20.79,2.32-2.89,5.9-4.25,9.07-6Q130.32,58.76,237.27,2.12A29.61,29.61,0,0,1,242.9,0Z" transform="translate(-11.01)"/><path class="cls-1" d="M18.39,208.4c9.54-5.08,19.13-10.08,28.65-15.2Q135.56,240,224,286.93a45.48,45.48,0,0,0,35,2.93c5-1.55,9.49-4.33,14.15-6.68L443,193.25c9.56,5.05,19.17,10,28.65,15.21A15,15,0,0,1,478,227c-1.47,3.94-4.84,6.78-8.54,8.56Q361.23,292.85,253.07,350.15a15.49,15.49,0,0,1-14.79.66q-107-56.61-213.9-113.29c-3.75-2.11-8.17-3.62-10.67-7.34C8.81,223.36,10.72,212.35,18.39,208.4Z" transform="translate(-11.01)"/><path class="cls-1" d="M18,299c9.67-5.2,19.41-10.28,29.1-15.46q87.78,46.43,175.5,93A45.45,45.45,0,0,0,256,381c6-1.39,11.37-4.48,16.75-7.35,13.73-7.22,27.41-14.55,41.15-21.76a119.57,119.57,0,0,0-22.77,68.33c-11.45,6.21-23,12.19-34.5,18.36-5.41,3.46-12.49,5.85-18.51,2.41Q128.21,382.88,18.39,324.66C8.8,319.78,8.55,304.17,18,299Z" transform="translate(-11.01)"/><path class="cls-1" d="M407.58,302.3c11.73-6.35,23.58-12.47,35.33-18.77,9.7,5.15,19.5,10.15,29.1,15.49,7.6,4.39,9.17,15.41,3.79,22.16A120.93,120.93,0,0,0,407.58,302.3Z" transform="translate(-11.01)"/><path class="cls-1" d="M409.27,332.37a90.21,90.21,0,1,1-55.45,22.06A90,90,0,0,1,409.27,332.37Zm-.41,16.44A73.74,73.74,0,1,0,446,356.46,73.62,73.62,0,0,0,408.86,348.81Z" transform="translate(-11.01)"/><path class="cls-1" d="M410.76,359.37H413A63,63,0,0,1,474.87,421v2.2A63,63,0,0,1,413,485.14h-2.18A63,63,0,0,1,350,432.8a67.69,67.69,0,0,1-.9-9.53v-2.18a63,63,0,0,1,61.65-61.72ZM439,396.93a10,10,0,0,0-3.87,2.52l-32.81,32.82c-4.61-4.59-9.19-9.21-13.81-13.78a8.87,8.87,0,0,0-15.14,5.26,9,9,0,0,0,2.68,7.41q9.88,9.9,19.79,19.78a9,9,0,0,0,12.93,0q18.67-18.66,37.34-37.34a34.55,34.55,0,0,0,2.76-2.92A8.87,8.87,0,0,0,439,396.93Z" transform="translate(-11.01)"/></svg>