<svg id="Layer_1" data-name="Layer 1" xmlns="http://www.w3.org/2000/svg" viewBox="0 0 458.13 512"><defs><style>.cls-1{fill:#0b559d;}</style></defs><path class="cls-1" d="M253.56,0h4A133.57,133.57,0,0,1,380.4,86.39a132.7,132.7,0,0,1-194.8,159,133.73,133.73,0,0,1-53.4-64.56A132.44,132.44,0,0,1,177.78,25.78C199.57,9.58,226.47.74,253.56,0Z" transform="translate(-26.94)"/><path class="cls-1" d="M149,277c4.94-.92,10.05-2.21,15.06-1,4.89,1.05,8.93,4.16,13,6.89A141.62,141.62,0,0,0,332,285c5.16-3.27,10-7.56,16.12-8.78,5-1.13,10-.23,14.91.78,41.1,7.12,78.77,31.1,103.3,64.74a129.41,129.41,0,0,1,18.31,31.82c1.57,4.25-1.17,8.23-3.39,11.63a252.87,252.87,0,0,1-36.49,46.5,258.36,258.36,0,0,1-119.86,71c-21.87,6.13-44.58,8.79-67.24,9.36h-4.14c-15.87-.53-31.79-1.61-47.38-4.77a260.78,260.78,0,0,1-112-50.33c-25.77-20.56-48.59-45.11-65.39-73.57a12.49,12.49,0,0,1-.41-12,166.19,166.19,0,0,1,59.8-70.11A162.49,162.49,0,0,1,149,277Z" transform="translate(-26.94)"/></svg>