<svg id="Layer_1" data-name="Layer 1" xmlns="http://www.w3.org/2000/svg" viewBox="0 0 512 512"><defs><style>.cls-1{fill:#0b559d;}</style></defs><path class="cls-1" d="M254.62,0h2.74a47.34,47.34,0,0,1,20.76,5.83Q386.2,68.62,493.58,132.55c10.52,5.77,17.89,16.9,18.42,29v2.84a34.91,34.91,0,0,1-8.21,20.55c-5,6-12.1,9.36-18.6,13.33-40.61,24-81.09,48.24-121.84,72l-79,46.19c-5.32,3.18-10.77,6.33-16.83,7.84a45.83,45.83,0,0,1-34.87-4.91q-55.56-32.42-111-64.93Q69.51,223.54,17.39,192.63A35.24,35.24,0,0,1,0,164.41v-2.84a35.22,35.22,0,0,1,18-28.76Q124.64,70,231.31,7.28A50.55,50.55,0,0,1,254.62,0Z"/><path class="cls-1" d="M18.05,226.06c4-2,8.79-1,12.38,1.41q87.06,51.63,174.49,102.65c9.9,5.52,19.32,12.25,30.28,15.54A70.23,70.23,0,0,0,272,347c13.37-2.9,24.63-11,36.36-17.61q86.26-50.06,171.93-101.15c2.67-1.57,5.49-3.31,8.7-3.22,4.26-.14,7.83,2.6,10.94,5.19A34.82,34.82,0,0,1,512,254.48v3.91a35.45,35.45,0,0,1-17.32,27.26q-51.45,30.62-103,61.09Q336.52,379,281.31,411.31c-14.18,9.24-33.34,10.14-48,1.48Q124.68,349.56,16.68,285.27A35.09,35.09,0,0,1,0,257.42v-2.88A34.71,34.71,0,0,1,18.05,226.06Z"/><path class="cls-1" d="M18.1,319.15c4-2,8.74-1,12.32,1.41Q126,377.23,222,433.09c20.92,11.88,47.94,11.68,68.75-.38q94.17-54.56,187.69-110.27c3.32-1.89,6.64-4.42,10.65-4.37,4.43,0,8.12,2.83,11.32,5.58A34.8,34.8,0,0,1,512,347.5v2.92a34.81,34.81,0,0,1-9.51,22.11c-3.8,4.06-8.7,6.79-13.44,9.58-35.17,20.81-70.27,41.74-105.48,62.48L280.68,504.76A50.64,50.64,0,0,1,258.14,512h-3.51A48.59,48.59,0,0,1,232,505.11q-53.36-31.17-106.68-62.36-53.15-31.38-106.21-62.9C8.25,374.09.5,362.82,0,350.45V347.6A34.61,34.61,0,0,1,18.1,319.15Z"/></svg>