<svg id="Layer_1" data-name="Layer 1" xmlns="http://www.w3.org/2000/svg" viewBox="0 0 491.32 512"><defs><style>.cls-1{fill:#0b559d;}</style></defs><path class="cls-1" d="M254.6,0h2.92c6.89.86,12.73,7,12.64,14,.14,16.31,0,32.62.06,48.93a14.63,14.63,0,0,1-5.75,12.46,14.14,14.14,0,0,1-16.36.41A14.55,14.55,0,0,1,241.78,63c0-16.34-.08-32.68.06-49C241.72,6.88,247.66.78,254.6,0Z" transform="translate(-10.34)"/><path class="cls-1" d="M87.33,68.59a14.35,14.35,0,0,1,15.4,3.71Q120,89.55,137.24,106.83a14.17,14.17,0,0,1-9.32,24.51,14.88,14.88,0,0,1-11.25-5c-11.62-11.69-23.43-23.22-35-35C74.88,84.49,78.18,71.58,87.33,68.59Z" transform="translate(-10.34)"/><path class="cls-1" d="M416.26,68.22c8.51-2.41,17.87,4.89,17.61,13.72.29,5.57-3.61,9.93-7.44,13.43-10.7,10.64-21.3,21.39-32,32a14.4,14.4,0,0,1-18.24,1.47,14.09,14.09,0,0,1-5-16.66c1.18-3.21,3.81-5.53,6.15-7.91q14.78-14.72,29.49-29.49C409.46,72,412.35,69.07,416.26,68.22Z" transform="translate(-10.34)"/><path class="cls-1" d="M240.5,120.7c28-3.39,57.2,2.57,81.2,17.53a126,126,0,0,1,56.72,77.66c8.72,35.23,1.36,74.17-20.18,103.46-6,8.85-14.14,16-20.5,24.6a117,117,0,0,0-22,52.15,21,21,0,0,1-20,17.56c-26.21.13-52.42,0-78.63,0a21.12,21.12,0,0,1-17.59-9.24c-3.17-4.55-3.43-10.27-4.64-15.51a117.2,117.2,0,0,0-28.52-54.35c-6.87-7.53-13.5-15.36-18.56-24.24A125.92,125.92,0,0,1,240.5,120.7Zm6,35A91.11,91.11,0,0,0,165.26,240c-.21,4.37-.86,9.13,1.55,13.07a14.21,14.21,0,0,0,19,5.68c5.06-2.49,7.82-8.16,7.69-13.67a62.58,62.58,0,0,1,60.62-61.36c4.66.09,9.6-1.3,12.65-5,5.47-6,4.16-16.42-2.59-20.87C259.06,154,252.4,155.44,246.53,155.74Z" transform="translate(-10.34)"/><path class="cls-1" d="M22.49,231.67c16.83-.47,33.7-.07,50.54-.2a14.8,14.8,0,0,1,11.79,4.63A14.19,14.19,0,0,1,74,259.89c-16.67,0-33.35.1-50-.05a14.16,14.16,0,0,1-1.52-28.17Z" transform="translate(-10.34)"/><path class="cls-1" d="M435.45,231.69c17.19-.5,34.42-.11,51.63-.2a14.18,14.18,0,0,1,7,26.69c-3.07,1.78-6.71,1.78-10.14,1.75-15.67-.1-31.33.1-47-.1a14.16,14.16,0,0,1-1.54-28.14Z" transform="translate(-10.34)"/><path class="cls-1" d="M123.4,360.57c6.88-2.34,14.95,1.73,17.38,8.52a14.34,14.34,0,0,1-3.53,15.45Q119.85,402,102.4,419.35A14.16,14.16,0,0,1,79.13,404.2c1.21-3.19,3.83-5.49,6.17-7.86q15.78-15.73,31.53-31.52A15.8,15.8,0,0,1,123.4,360.57Z" transform="translate(-10.34)"/><path class="cls-1" d="M380.4,360.5a14.33,14.33,0,0,1,14.28,3.86c10.52,10.47,21,21,31.46,31.51,2.88,2.86,6.13,5.78,7.13,9.89a14.23,14.23,0,0,1-9.37,17.16,14.5,14.5,0,0,1-14.9-4c-11.75-11.83-23.67-23.5-35.3-35.44C366.73,376.27,370.74,362.91,380.4,360.5Z" transform="translate(-10.34)"/><path class="cls-1" d="M199.71,439.75A14.77,14.77,0,0,1,213,432.88c28,0,56,0,84,0,3.94-.08,8.15.36,11.38,2.85,4.24,3,6.26,8.24,6,13.32-.3,8.43,1.34,17.63-3.26,25.24-3.48,6.32-10,10.32-17,11.79-1.63,5.67-2.58,11.62-5.18,17-2.75,5.46-8.67,8.67-14.65,9H237.53c-4.74-.34-9.49-2.25-12.56-6-4.58-5.68-5-13.31-7.18-20-7.46-1.47-14.37-6.11-17.71-13.05-3.23-6.14-2.46-13.27-2.57-20C197.54,448.52,197.13,443.65,199.71,439.75Z" transform="translate(-10.34)"/></svg>