<svg id="Layer_1" data-name="Layer 1" xmlns="http://www.w3.org/2000/svg" viewBox="0 0 512 512"><defs><style>.cls-1{fill:#0b559d;}</style></defs><path class="cls-1" d="M254.51,0h3c10.07.26,19.36,4.55,27.69,9.88Q390.55,71.36,495.4,133.68A35.07,35.07,0,0,1,512,161.42v3a35,35,0,0,1-16.15,27.35c-9.81,6-19.78,11.8-29.66,17.71,9.7,5.77,19.5,11.36,29.16,17.2A35.11,35.11,0,0,1,512,254.41v3.11a34.89,34.89,0,0,1-8.12,20.34c-3.65,4.49-8.63,7.57-13.57,10.42l-24.12,14.35c9.67,5.72,19.42,11.32,29.06,17.11A35.14,35.14,0,0,1,512,347.49v4.4c-1.2,12.11-9.05,22.85-19.8,28.36q-50.83,30.11-101.64,60.25-52.4,30.66-104.8,61.29c-8.29,5.3-17.46,9.63-27.44,10.21H254.5a48.64,48.64,0,0,1-22.5-6.87q-52.41-30.61-104.79-61.25Q72.47,411.59,17.85,379.1A35.42,35.42,0,0,1,0,350.54v-3a35,35,0,0,1,16.13-27.36c9.79-6,19.82-11.62,29.66-17.54-9.87-5.92-19.84-11.68-29.64-17.72A35,35,0,0,1,0,257.55v-3.07a34.75,34.75,0,0,1,8.63-21c3.41-4,7.87-6.86,12.4-9.43q12.39-7.26,24.76-14.54C35.93,203.58,26,197.84,16.15,191.8A35,35,0,0,1,0,164.54v-3a35.29,35.29,0,0,1,17.85-28.65Q124.56,70,231.31,7.25A50.71,50.71,0,0,1,254.51,0Zm-5.18,24.47A46.58,46.58,0,0,0,240,29.13Q135.22,90.8,30.43,152.48c-3.29,1.78-6.34,4.7-6.86,8.58-1,4.63,1.75,9.34,5.75,11.6q51.78,30.75,103.6,61.43,53.63,31.36,107.26,62.7c4.29,2.58,8.83,5.2,13.94,5.53,5.87.68,11.49-1.73,16.37-4.74q47.94-28.08,95.92-56.08c38.81-22.78,77.45-45.85,116.17-68.78,4.4-2.4,7.17-7.77,5.63-12.7-1.35-5.32-6.82-7.56-11.06-10.16Q372.6,87.63,267.4,26.49A22.41,22.41,0,0,0,249.33,24.47ZM68.54,223.11c-13,7.8-26.17,15.4-39.22,23.15A11.5,11.5,0,0,0,23.59,254c-1.07,4.69,1.69,9.48,5.75,11.76q51.73,30.74,103.52,61.4,53.64,31.36,107.3,62.71c4.29,2.58,8.83,5.2,13.94,5.54,5.14.59,10.2-1.17,14.6-3.7Q324.83,358.85,381,326q50.82-30.13,101.66-60.26c3.71-2.12,6.38-6.26,5.92-10.62a11.44,11.44,0,0,0-5.89-8.87c-13.06-7.76-26.21-15.36-39.23-23.16-55.11,32.42-110.08,65.08-165.5,97a45.41,45.41,0,0,1-34.83,3.79c-5.34-1.53-10.2-4.29-14.93-7.11l-53-30.88C139.52,265.18,104.17,243.9,68.54,223.11ZM33,337.15c-2.83,1.67-6,3.2-7.81,6a10.66,10.66,0,0,0,1.27,13.38c2.57,2.52,5.94,4,9,5.9l89.91,53.28Q184.56,450.6,244,485.17a23.11,23.11,0,0,0,23.46.34q54.66-31.81,109.22-63.82,52.8-31.23,105.57-62.55c6-2.85,8.61-11.26,4.18-16.56C484,339.5,480.24,338,477,336c-11.26-6.59-22.46-13.26-33.75-19.79q-79.2,47-158.85,93.28c-6.3,3.87-13,7.37-20.33,8.63a45.45,45.45,0,0,1-30.13-5c-55.32-31.92-110.32-64.4-165.28-97C56.76,323.14,44.9,330.18,33,337.15Z"/></svg>