<svg id="Capa_1" data-name="Capa 1" xmlns="http://www.w3.org/2000/svg" viewBox="0 0 512 512"><defs><style>.cls-1{fill:#fff;}</style></defs><path class="cls-1" d="M436,412H424.86A289.12,289.12,0,0,1,391,276.38V207A135.22,135.22,0,0,0,306,81.6V50a50,50,0,0,0-100,0V81.6A135.22,135.22,0,0,0,121,207v69.38A289.12,289.12,0,0,1,87.14,412H76a15,15,0,0,0,0,30h96.35a85,85,0,0,0,167.3,0H436a15,15,0,0,0,0-30ZM236,50a20,20,0,0,1,40,0V73.48a135.88,135.88,0,0,0-40,0ZM151,207a105,105,0,0,1,210,0v69.38A318.51,318.51,0,0,0,367.85,342H144.15A318.51,318.51,0,0,0,151,276.38ZM136.29,372H375.71a318.77,318.77,0,0,0,15.6,40H120.69A318.77,318.77,0,0,0,136.29,372ZM256,482a55.07,55.07,0,0,1-52.9-40H308.9A55.07,55.07,0,0,1,256,482Z" transform="translate(0 0)"/><path class="cls-1" d="M481.29,181.75A15,15,0,0,0,460.07,203a75.08,75.08,0,0,1,0,106.06,15,15,0,0,0,21.22,21.22,105.12,105.12,0,0,0,0-148.5Z" transform="translate(0 0)"/><path class="cls-1" d="M417.65,224.18a15,15,0,0,0,0,21.21,15,15,0,0,1,0,21.22,15,15,0,0,0,21.21,21.21,45.06,45.06,0,0,0,0-63.64,15,15,0,0,0-21.21,0Z" transform="translate(0 0)"/><path class="cls-1" d="M51.93,181.75a15,15,0,0,0-21.22,0,105.12,105.12,0,0,0,0,148.5A15,15,0,1,0,51.92,309a75.09,75.09,0,0,1,0-106.06,15,15,0,0,0,0-21.22Z" transform="translate(0 0)"/><path class="cls-1" d="M83.75,292.21a15,15,0,0,0,10.6-25.6,15,15,0,0,1,0-21.22,15,15,0,1,0-21.21-21.21,45,45,0,0,0,0,63.64A15,15,0,0,0,83.75,292.21Z" transform="translate(0 0)"/></svg>