<svg xmlns="http://www.w3.org/2000/svg" xmlns:xlink="http://www.w3.org/1999/xlink" width="50" height="50" viewBox="0 0 50 50">
  <defs>
    <clipPath id="clip-path">
      <rect id="Rectangle_27" data-name="Rectangle 27" width="39" height="43" fill="none"/>
    </clipPath>
    <clipPath id="clip-_07">
      <rect width="50" height="50"/>
    </clipPath>
  </defs>
  <g id="_07" data-name="07" clip-path="url(#clip-_07)">
    <g id="Vector_Smart_Object" data-name="Vector Smart Object" transform="translate(-2875 -1247)">
      <g id="Vector_Smart_Object-2" data-name="Vector Smart Object" transform="translate(2881 1250)">
        <g id="Group_86" data-name="Group 86">
          <g id="Group_85" data-name="Group 85" clip-path="url(#clip-path)">
            <path id="Path_107" data-name="Path 107" d="M22.544.721c.519.248,1.005.554,1.5.837Q29.78,4.879,35.513,8.2a7,7,0,0,1,3.117,3.825A7.364,7.364,0,0,1,39,14.444q0,7.139,0,14.28a7,7,0,0,1-1.736,4.636,7.784,7.784,0,0,1-2.168,1.69q-5.6,3.24-11.207,6.484a11.387,11.387,0,0,1-2.237,1.111A7.423,7.423,0,0,1,19.622,43H19.4a7.23,7.23,0,0,1-3.386-.948Q10.382,38.8,4.758,35.541c-.649-.381-1.316-.734-1.928-1.174a6.962,6.962,0,0,1-2.5-3.511A7.6,7.6,0,0,1,0,28.47c0-4.73,0-9.461,0-14.192a7,7,0,0,1,1.738-4.64A7.651,7.651,0,0,1,3.853,7.981Q9.615,4.65,15.373,1.316A9.756,9.756,0,0,1,17.35.355,7.316,7.316,0,0,1,19.416,0H19.6a7.065,7.065,0,0,1,2.945.721M17.666,3.869Q11.427,7.476,5.191,11.087a3.648,3.648,0,0,0-1.684,2.091,6.061,6.061,0,0,0-.159,1.856q0,6.844,0,13.688a3.615,3.615,0,0,0,1.13,2.663,6.214,6.214,0,0,0,1.241.836q5.815,3.365,11.63,6.729a4.669,4.669,0,0,0,1.311.587,3.592,3.592,0,0,0,2.67-.4Q27.6,35.508,33.86,31.88a3.619,3.619,0,0,0,1.791-3.154q0-7.268,0-14.535a3.612,3.612,0,0,0-1.789-3.073q-6.205-3.6-12.418-7.189a3.9,3.9,0,0,0-1.314-.511,3.6,3.6,0,0,0-2.462.45"/>
            <path id="Path_108" data-name="Path 108" d="M20.795,11.817a8.378,8.378,0,0,0-4.5.683,4.83,4.83,0,0,0-2.43,2.5,4.574,4.574,0,0,0,0,3.252,8.286,8.286,0,0,0,2.488,3.294,5.5,5.5,0,0,1,1.892,2.145,9.611,9.611,0,0,1,.254,2.175,1.031,1.031,0,0,0,.771.81,3.241,3.241,0,0,0,1.556.059,1.056,1.056,0,0,0,.8-.686,4.577,4.577,0,0,0,.135-1.781,5.192,5.192,0,0,0-1.492-3.453c-.769-.8-1.772-1.35-2.467-2.226a2.245,2.245,0,0,1-.333-2.41,2.359,2.359,0,0,1,1.856-1.05,3.4,3.4,0,0,1,2.532.556c.534.428.76,1.147,1.34,1.52a1.688,1.688,0,0,0,2.289-1.172,3.146,3.146,0,0,0-.906-2.479,5.985,5.985,0,0,0-3.783-1.74"/>
            <path id="Path_109" data-name="Path 109" d="M20.552,28.869a2.246,2.246,0,1,0-.546,4.452,2.234,2.234,0,0,0,2.347-1.994,2.264,2.264,0,0,0-1.8-2.458"/>
          </g>
        </g>
      </g>
      <path id="Color_Overlay" data-name="Color Overlay" d="M2900.4,1293a7.24,7.24,0,0,1-3.386-.949q-5.631-3.247-11.255-6.511c-.648-.381-1.316-.734-1.928-1.174a6.963,6.963,0,0,1-2.5-3.511,7.616,7.616,0,0,1-.329-2.387c0-4.729,0-9.461,0-14.191a7,7,0,0,1,1.738-4.641,7.665,7.665,0,0,1,2.111-1.657q5.762-3.331,11.521-6.665a9.77,9.77,0,0,1,1.976-.96,7.29,7.29,0,0,1,2.066-.355h.184a7.071,7.071,0,0,1,2.945.722c.518.248,1,.553,1.5.837q5.731,3.321,11.465,6.638a7,7,0,0,1,3.117,3.824,7.372,7.372,0,0,1,.369,2.423q0,3.569,0,7.141v3.569q0,1.786,0,3.57a7,7,0,0,1-1.736,4.636,7.779,7.779,0,0,1-2.167,1.689q-5.605,3.241-11.207,6.484a11.362,11.362,0,0,1-2.237,1.111,7.432,7.432,0,0,1-2.028.356Zm-1.733-39.131q-6.24,3.607-12.475,7.218a3.648,3.648,0,0,0-1.684,2.091,6.059,6.059,0,0,0-.159,1.856q0,6.844,0,13.688a3.614,3.614,0,0,0,1.13,2.663,6.2,6.2,0,0,0,1.241.836q5.814,3.364,11.63,6.728a4.652,4.652,0,0,0,1.311.587,3.59,3.59,0,0,0,2.669-.4q6.267-3.625,12.53-7.252a3.619,3.619,0,0,0,1.791-3.154q0-7.268,0-14.535a3.61,3.61,0,0,0-1.789-3.073q-6.2-3.6-12.417-7.189a3.91,3.91,0,0,0-1.314-.51,3.409,3.409,0,0,0-.619-.056A3.642,3.642,0,0,0,2898.666,1253.869Zm2.339,29.452a2.156,2.156,0,1,1,.186.009A1.829,1.829,0,0,1,2901.005,1283.321Zm-.731-6.642a1.031,1.031,0,0,1-.771-.811,9.634,9.634,0,0,0-.253-2.175,5.5,5.5,0,0,0-1.893-2.145,8.288,8.288,0,0,1-2.488-3.294,4.575,4.575,0,0,1,0-3.252,4.832,4.832,0,0,1,2.43-2.5,8.378,8.378,0,0,1,4.5-.682,5.983,5.983,0,0,1,3.783,1.74,3.144,3.144,0,0,1,.906,2.479,1.688,1.688,0,0,1-2.289,1.172c-.58-.374-.806-1.093-1.34-1.521a3.4,3.4,0,0,0-2.531-.555,2.358,2.358,0,0,0-1.857,1.049,2.246,2.246,0,0,0,.333,2.41c.7.876,1.7,1.427,2.467,2.226a5.188,5.188,0,0,1,1.492,3.452,4.573,4.573,0,0,1-.134,1.782,1.055,1.055,0,0,1-.8.686,3.411,3.411,0,0,1-.67.068A3.1,3.1,0,0,1,2900.274,1276.679Z" fill="#314989"/>
    </g>
  </g>
</svg>
