<svg xmlns="http://www.w3.org/2000/svg" xmlns:xlink="http://www.w3.org/1999/xlink" width="50" height="50" viewBox="0 0 50 50">
  <defs>
    <clipPath id="clip-path">
      <rect id="Rectangle_102" data-name="Rectangle 102" width="43.012" height="31.573" fill="#21ba45"/>
    </clipPath>
    <clipPath id="clip-_013_2">
      <rect width="50" height="50"/>
    </clipPath>
  </defs>
  <g id="_013_2" data-name="013 – 2" clip-path="url(#clip-_013_2)">
    <g id="Group_1012" data-name="Group 1012" transform="translate(3 9)">
      <g id="Group_1012-2" data-name="Group 1012" clip-path="url(#clip-path)">
        <path id="Path_1143" data-name="Path 1143" d="M13.6,26.4c.112-.123.207-.235.31-.339Q26.557,13.411,39.2.763A2.32,2.32,0,0,1,40.787,0a2.093,2.093,0,0,1,2.02,1.309,1.99,1.99,0,0,1-.416,2.323c-.758.8-1.56,1.567-2.342,2.349Q27.727,18.3,15.407,30.623A2.878,2.878,0,0,1,14.1,31.5a1.858,1.858,0,0,1-1.707-.327c-.533-.438-1.015-.94-1.505-1.429Q5.934,24.8.984,19.847a3.021,3.021,0,0,1-.943-1.478,2.1,2.1,0,0,1,1.322-2.335,2.094,2.094,0,0,1,2.41.567q3.811,3.8,7.623,7.606,1.032,1.031,2.059,2.067c.034.034.073.063.143.124" transform="translate(0.001 0)" fill="#21ba45"/>
      </g>
    </g>
  </g>
</svg>
