<svg xmlns="http://www.w3.org/2000/svg" xmlns:xlink="http://www.w3.org/1999/xlink" width="50" height="50" viewBox="0 0 50 50">
  <defs>
    <clipPath id="clip-path">
      <rect id="Rectangle_99" data-name="Rectangle 99" width="36.191" height="36.172" fill="#02b4df"/>
    </clipPath>
    <clipPath id="clip-_014">
      <rect width="50" height="50"/>
    </clipPath>
  </defs>
  <g id="_014" data-name="014" clip-path="url(#clip-_014)">
    <g id="Group_1007" data-name="Group 1007" transform="translate(7 7)">
      <g id="Group_1006" data-name="Group 1006" clip-path="url(#clip-path)">
        <path id="Path_1137" data-name="Path 1137" d="M3.746,119.877h28.7v-.243q0-7.027,0-14.054a1.863,1.863,0,0,1,3.7-.338,4.132,4.132,0,0,1,.041.563q0,7.261,0,14.522a3.183,3.183,0,0,1-1.114,2.571,3.264,3.264,0,0,1-2.206.732q-6.794,0-13.589,0-8,0-16.006,0A3.133,3.133,0,0,1,.543,122.26,3.178,3.178,0,0,1,.005,120.4Q0,112.952,0,105.506a1.848,1.848,0,0,1,1.749-1.83,1.819,1.819,0,0,1,1.953,1.58,4.4,4.4,0,0,1,.039.563q0,6.9,0,13.8Z" transform="translate(-0.001 -87.459)" fill="#02b4df"/>
        <path id="Path_1138" data-name="Path 1138" d="M65.636,6.426c-1.253,1.238-2.5,2.461-3.736,3.7a2.076,2.076,0,0,1-1.387.662A1.867,1.867,0,0,1,59.142,7.58q2.012-2.026,4.036-4.041Q64.632,2.085,66.087.631A1.9,1.9,0,0,1,68.676.4a3.075,3.075,0,0,1,.331.3q3.137,3.135,6.271,6.272c.243.244.485.49.7.754a1.853,1.853,0,0,1-2.689,2.544c-1.223-1.194-2.42-2.413-3.627-3.623-.081-.082-.15-.176-.225-.265l-.061.029v.2q0,10.008,0,20.017a1.9,1.9,0,0,1-.846,1.738,1.768,1.768,0,0,1-1.868.107,1.827,1.827,0,0,1-1.03-1.668c0-.078,0-.156,0-.234V6.426Z" transform="translate(-49.413 0)" fill="#02b4df"/>
      </g>
    </g>
  </g>
</svg>
