<svg xmlns="http://www.w3.org/2000/svg" width="60.001" height="60" viewBox="0 0 60.001 60">
  <g id="Group_22689" data-name="Group 22689" transform="translate(3209.001 9591)">
    <rect id="Rectangle_4894" data-name="Rectangle 4894" width="60" height="60" transform="translate(-3209 -9591)" fill="none"/>
    <path id="Subtraction_3" data-name="Subtraction 3" d="M-8490.73,57.3h-54.543A2.732,2.732,0,0,1-8548,54.573v-30h60v30A2.73,2.73,0,0,1-8490.73,57.3ZM-8518,49.044l6.346,3.341.555.109a1.116,1.116,0,0,0,.818-.4,1.1,1.1,0,0,0,.242-.876l-1.17-7.129,5.121-4.951a1.174,1.174,0,0,0,.266-1.158,1.17,1.17,0,0,0-.877-.792l-7.127-1L-8517,29.725a1.175,1.175,0,0,0-1-.614,1.176,1.176,0,0,0-1,.614l-3.172,6.461-7.129,1a1.161,1.161,0,0,0-.877.792,1.174,1.174,0,0,0,.268,1.158l5.119,4.951-1.168,7.129a1.13,1.13,0,0,0,.242.876,1.118,1.118,0,0,0,.816.4l.555-.109Zm30-29.923h-60V10.942a2.732,2.732,0,0,1,2.729-2.728H-8533V2.758a2.716,2.716,0,0,1,.934-2.089,2.745,2.745,0,0,1,1.8-.669,2.777,2.777,0,0,1,.408.03,2.866,2.866,0,0,1,2.316,2.867V8.214h19.092V2.758a2.7,2.7,0,0,1,.936-2.089A2.729,2.729,0,0,1-8505.729,0a2.759,2.759,0,0,1,.408.03A2.864,2.864,0,0,1-8503,2.9V8.214h12.273A2.73,2.73,0,0,1-8488,10.942V19.12Z" transform="translate(5339.001 -9590)" fill="#fff"/>
  </g>
</svg>
