<svg xmlns="http://www.w3.org/2000/svg" width="60" height="60" viewBox="0 0 60 60">
  <g id="Group_22687" data-name="Group 22687" transform="translate(3209 9685)">
    <path id="Path_153" data-name="Path 153" d="M51,7H38.46A8.964,8.964,0,0,0,21.54,7H9a6.018,6.018,0,0,0-6,6V55a6.018,6.018,0,0,0,6,6H51a6.018,6.018,0,0,0,6-6V13A6.018,6.018,0,0,0,51,7ZM30,7a3,3,0,1,1-3,3A3.009,3.009,0,0,1,30,7Zm6,42H15V43H36Zm9-12H15V31H45Zm0-12H15V19H45Z" transform="translate(-3209 -9686)" fill="#fff"/>
    <rect id="Rectangle_4893" data-name="Rectangle 4893" width="60" height="60" transform="translate(-3209 -9685)" fill="none"/>
  </g>
</svg>
