<svg xmlns="http://www.w3.org/2000/svg" width="60" height="60" viewBox="0 0 60 60">
  <g id="Group_22543" data-name="Group 22543" transform="translate(-5345 19823)">
    <path id="Subtraction_12" data-name="Subtraction 12" d="M12.963,51.851H2.593A2.6,2.6,0,0,1,0,49.258V38.888A2.6,2.6,0,0,1,2.593,36.3H5.185V25.925a2.6,2.6,0,0,1,2.593-2.593H25.925V15.556H23.333a2.6,2.6,0,0,1-2.592-2.593V2.593A2.6,2.6,0,0,1,23.333,0H33.7A2.6,2.6,0,0,1,36.3,2.593v10.37A2.6,2.6,0,0,1,33.7,15.556H31.11v5.42a23.142,23.142,0,0,0-8.6,7.542H10.37V36.3h2.593a2.6,2.6,0,0,1,2.593,2.593v10.37A2.6,2.6,0,0,1,12.963,51.851Z" transform="translate(5345 -19823)" fill="#fff"/>
    <g id="Layer_2" data-name="Layer 2" transform="translate(5367.722 -19800.277)">
      <g id="invisible_box" data-name="invisible box">
        <rect id="Rectangle_4871" data-name="Rectangle 4871" width="37" height="37" transform="translate(0.278 0.277)" fill="none"/>
      </g>
      <g id="icons_Q2" data-name="icons Q2" transform="translate(1.574 1.574)">
        <path id="Path_12389" data-name="Path 12389" d="M19.313,2A17.234,17.234,0,1,0,31.578,7.048,17.313,17.313,0,0,0,19.313,2ZM28.52,24.821a1.653,1.653,0,0,1-1.338.787,1.5,1.5,0,0,1-.787-.236l-8.656-5.194V11.443a1.574,1.574,0,0,1,3.148,0v7l7.083,4.25a1.5,1.5,0,0,1,.551,2.125Z" transform="translate(-2 -2)" fill="#fff"/>
      </g>
    </g>
  </g>
</svg>
