<svg xmlns="http://www.w3.org/2000/svg" width="60.001" height="60" viewBox="0 0 60.001 60">
  <g id="Group_22700" data-name="Group 22700" transform="translate(3306 9190)">
    <g id="Boundary" transform="translate(-3306 -9190)" fill="#fff" stroke="rgba(0,0,0,0)" stroke-width="1" opacity="0">
      <rect width="60" height="60" stroke="none"/>
      <rect x="0.5" y="0.5" width="59" height="59" fill="none"/>
    </g>
    <path id="Path_application-cog-outline" data-name="Path / application-cog-outline" d="M57.455,47.273V44.546l3-2.182c.273-.273.545-.545.273-.818L58,36.91c0-.273-.545-.273-.818-.273L53.91,38a11.055,11.055,0,0,0-2.455-1.364l-.545-3.546a.587.587,0,0,0-.545-.545H44.91c-.545,0-.818.273-.818.545l-.545,3.546c-.818.545-1.364.818-2.182,1.364l-3.273-1.364a1,1,0,0,0-.818.273l-2.727,4.636a1,1,0,0,0,.273.818l3,2.182v2.727l-3,2.182c-.273.273-.545.545-.273.818l2.727,4.636a1,1,0,0,0,.818.273l3.273-1.364a5.938,5.938,0,0,0,2.182,1.364l.545,3.546c.273.273.545.545.818.545h5.455a.587.587,0,0,0,.545-.545l.545-3.546c.818-.545,1.364-.818,2.182-1.364L56.91,54.91a1,1,0,0,0,.818-.273L60.456,50c.273-.273.273-.545,0-.545l-3-2.182M47.364,49.728a4.091,4.091,0,1,1,4.091-4.091,4.194,4.194,0,0,1-4.091,4.091M31.819,56.546H6.455A5.471,5.471,0,0,1,1,51.092V7.455A5.471,5.471,0,0,1,6.455,2H55.546A5.471,5.471,0,0,1,61,7.455V32.273a18.017,18.017,0,0,0-5.455-3.818V12.909H6.455V51.092H29.091A14.677,14.677,0,0,0,31.819,56.546Z" transform="translate(-3307 -9191)" fill="#fff"/>
  </g>
</svg>
