<svg xmlns="http://www.w3.org/2000/svg" width="60" height="60" viewBox="0 0 60 60">
  <g id="Group_22680" data-name="Group 22680" transform="translate(3209 9854)">
    <path id="Icon_awesome-chalkboard-teacher" data-name="Icon awesome-chalkboard-teacher" d="M19.5,33a2.145,2.145,0,0,0-.662.1A12.367,12.367,0,0,1,15,33.75a12.378,12.378,0,0,1-3.839-.648A2.139,2.139,0,0,0,10.5,33,10.5,10.5,0,0,0,0,43.558,4.488,4.488,0,0,0,4.5,48h21A4.488,4.488,0,0,0,30,43.558,10.5,10.5,0,0,0,19.5,33ZM15,30a9,9,0,1,0-9-9A9,9,0,0,0,15,30ZM55.5,0h-36A4.582,4.582,0,0,0,15,4.649V9a11.864,11.864,0,0,1,6,1.669V6H54V33H48V27H36v6H28.853a11.949,11.949,0,0,1,3.721,6H55.5A4.582,4.582,0,0,0,60,34.351V4.649A4.582,4.582,0,0,0,55.5,0Z" transform="translate(-3209 -9848)" fill="#fff"/>
    <rect id="Rectangle_4889" data-name="Rectangle 4889" width="60" height="60" transform="translate(-3209 -9854)" fill="none"/>
  </g>
</svg>
