<svg xmlns="http://www.w3.org/2000/svg" width="65" height="60" viewBox="0 0 65 60">
  <g id="Group_22713" data-name="Group 22713" transform="translate(3209 9854)">
    <path id="Subtraction_14" data-name="Subtraction 14" d="M25.5,48H4.5A4.493,4.493,0,0,1,0,43.558,10.5,10.5,0,0,1,10.5,33a2.135,2.135,0,0,1,.661.1A12.293,12.293,0,0,0,15,33.75a12.278,12.278,0,0,0,3.838-.648A2.149,2.149,0,0,1,19.5,33,10.5,10.5,0,0,1,30,43.558,4.492,4.492,0,0,1,25.5,48Zm30-9H32.574a11.931,11.931,0,0,0-3.722-6H36V27H48v6h6V6H21v4.668A11.786,11.786,0,0,0,15,9V4.649A4.582,4.582,0,0,1,19.5,0h36A4.582,4.582,0,0,1,60,4.649v29.7A4.581,4.581,0,0,1,55.5,39Zm.357-29.614v1.733h1.75V9.386Zm0-6.611V7.728h1.75V2.775ZM15,30a9,9,0,1,1,9-9A9.01,9.01,0,0,1,15,30Z" transform="translate(-3209 -9848)" fill="#fff"/>
    <rect id="Rectangle_4889" data-name="Rectangle 4889" width="60" height="60" transform="translate(-3209 -9854)" fill="none"/>
    <path id="Path_alert-circle" data-name="Path / alert-circle" d="M11.093,11.093H9.44V6.133h1.653m0,8.266H9.44V12.746h1.653M10.266,2a8.266,8.266,0,1,0,8.266,8.266A8.267,8.267,0,0,0,10.266,2Z" transform="translate(-3162.533 -9851.347)" fill="#fff"/>
  </g>
</svg>
