<svg id="Layer_1" data-name="Layer 1" xmlns="http://www.w3.org/2000/svg" viewBox="0 0 460.79 512"><defs><style>.cls-1{fill:#fff;}</style></defs><path class="cls-1" d="M90.27,0h7.37A23.28,23.28,0,0,1,116.4,12.94c3.28,6.62,2,14.22,2.25,21.32H342.07c.2-7.32-1.1-15.23,2.56-22A23.34,23.34,0,0,1,363.05,0h7.26a23.34,23.34,0,0,1,18.45,12.67c3.46,6.67,2.17,14.39,2.39,21.59,10.78.05,21.56-.06,32.34,0A37.47,37.47,0,0,1,449.4,45a38,38,0,0,1,11.38,28V474a37.76,37.76,0,0,1-14.91,30.37A39.11,39.11,0,0,1,425.65,512H34.86A38.52,38.52,0,0,1,6.27,495.16,37.79,37.79,0,0,1,0,474V82c.06-6.7-.48-13.54,1.34-20.08,4-15.18,18.32-26.91,34-27.54,11.41-.28,22.83,0,34.25-.12.22-7.21-1.08-14.93,2.39-21.61A23.49,23.49,0,0,1,90.27,0ZM88.51,16.09c-6.17,3.9-3.18,12.19-3.86,18.18h19c-.19-4.73.56-9.57-.52-14.22C101.06,14.29,93.32,13.88,88.51,16.09ZM357.22,22c-.31,4.09-.06,8.2-.11,12.29h19c-.15-4.52.4-9.1-.33-13.58-1-4.61-6.18-6.35-10.38-5.71C361.4,14.77,357.4,17.89,357.22,22ZM17.3,62c-2.08,4-2.38,8.59-2.3,13v66.46H95.49c4.62-.47,8.93,3.9,8.08,8.55a7.66,7.66,0,0,1-8.2,6.43H15V437c.07,5-.44,10.2,1.32,15A22.7,22.7,0,0,0,30.44,465.8c4.5,1.58,9.31,1.2,14,1.2h278c4.79-.09,9.9.54,14.32-1.71A17.13,17.13,0,0,0,346.4,450c.14-17.34-.13-34.69.12-52,.55-15.7,14.26-29.49,30-30.13,15-.31,30-.05,44.93-.13,4.95-.1,10.26.65,14.82-1.78a17.27,17.27,0,0,0,9.5-15.92V156.54H127.4c-3.51.29-7.23-1.64-8.3-5.13-1.77-4.68,2.27-10.18,7.27-9.85q159.7-.09,319.4,0V72.1A22.7,22.7,0,0,0,431,50.66c-4.67-1.79-9.73-1.36-14.62-1.4H357.1c0,7.24-.09,14.48,0,21.72-.19,3.7,2.54,7.43,6.31,7.86,2.8.46,6.08.87,7.66,3.58,3.06,4.13.36,10.74-4.72,11.53-12,1.35-23.65-9-24.15-21-.27-7.9,0-15.81-.1-23.71H84.64c0,7.29-.09,14.58,0,21.88a7.76,7.76,0,0,0,2.6,6c2.93,2.79,7.89,1.15,10.6,4.33,4,3.8,1.8,11.25-3.55,12.39C82.17,95.6,70.24,85.11,69.73,73c-.23-7.89,0-15.79-.09-23.68-10.75,0-21.51,0-32.26,0A22.63,22.63,0,0,0,17.3,62ZM427.4,382.67H382.32c-3.59,0-7.34-.06-10.67,1.51A17.15,17.15,0,0,0,361.48,400v48a65.34,65.34,0,0,1-.8,9.37q37.63-37.86,75.49-75.52A54.92,54.92,0,0,1,427.4,382.67Zm-59,88.19a37.87,37.87,0,0,1-27,11.14H38.31a39.72,39.72,0,0,1-23.46-7.49c.09,11.9,10.39,22.66,22.43,22.46q192.54.11,385.09,0a22.71,22.71,0,0,0,20.53-11.58c2.38-4.05,3-8.83,2.88-13.45V393.42Z" transform="translate(0)"/><path class="cls-1" d="M56.93,186.77c12.83-.67,25.73-.17,38.58-.26,7.72-.15,14.58,6.75,14.48,14.46,0,12,.07,24.09,0,36.14A14.75,14.75,0,0,1,95.4,251.44c-11.66.07-23.33,0-35,0a15,15,0,0,1-13.63-7.85C44.94,240.37,45,236.54,45,233c.09-10.65-.07-21.31.07-32A14.64,14.64,0,0,1,56.93,186.77ZM60,201.47v35H95v-35Z" transform="translate(0)"/><path class="cls-1" d="M158.85,186.76c10.18-.69,20.42-.09,30.62-.3,4.67.16,9.64-.66,14,1.41a14.68,14.68,0,0,1,8.42,13.07c.08,11.68,0,23.36,0,35A14.87,14.87,0,0,1,204,249.7c-3.24,1.83-7.06,1.77-10.67,1.75-10.65-.09-21.3.06-32-.06a14.72,14.72,0,0,1-12.77-7.85c-1.82-3.22-1.74-7-1.74-10.63.09-10.65-.07-21.3.07-31.95A14.62,14.62,0,0,1,158.85,186.76Zm3.09,14.71v35h35v-35Z" transform="translate(0)"/><path class="cls-1" d="M260.89,186.74c12.82-.61,25.7-.16,38.55-.23,7.7-.1,14.49,6.8,14.39,14.49.08,11.66,0,23.34,0,35A14.92,14.92,0,0,1,306,249.69c-3.23,1.83-7.05,1.82-10.64,1.79-10.69-.09-21.38.06-32.07-.06-7.66,0-14.54-6.71-14.45-14.4q-.13-18,0-36.1A14.6,14.6,0,0,1,260.89,186.74Zm3,14.73v35h35v-35Z" transform="translate(0)"/><path class="cls-1" d="M362.89,186.73c12.83-.58,25.71-.17,38.55-.21,7.68-.06,14.42,6.82,14.31,14.48.07,11.66,0,23.33,0,35A15,15,0,0,1,408,249.69c-3.22,1.84-7,1.84-10.64,1.81-10.67-.09-21.35,0-32-.05-7.69.09-14.62-6.67-14.54-14.38q-.15-18.09,0-36.18A14.6,14.6,0,0,1,362.89,186.73Zm2.89,14.74v35h35v-35Z" transform="translate(0)"/><path class="cls-1" d="M58.66,279.31c12.22-.23,24.45-.1,36.67-.07A14.74,14.74,0,0,1,110,293.11c.14,12,0,24,.06,35.93a14.86,14.86,0,0,1-8,13.55c-3.25,1.78-7.06,1.65-10.66,1.63-10.64-.08-21.29,0-31.93,0A14.66,14.66,0,0,1,45.1,330C45,318,45,306.05,45.1,294.1A14.67,14.67,0,0,1,58.66,279.31ZM60,294.2v35H95c0-11.67,0-23.34,0-35Z" transform="translate(0)"/><path class="cls-1" d="M160.61,279.31c12.26-.23,24.53-.11,36.8-.06a14.77,14.77,0,0,1,14.51,14.65v35.16a14.83,14.83,0,0,1-8,13.51c-2.9,1.61-6.3,1.69-9.53,1.66-11-.09-22,0-33-.05A14.67,14.67,0,0,1,147,329.91c-.12-12-.07-23.93,0-35.88A14.67,14.67,0,0,1,160.61,279.31ZM162,294.2v35h35v-35Z" transform="translate(0)"/><path class="cls-1" d="M262.63,279.3c12.25-.2,24.51-.11,36.76,0A14.76,14.76,0,0,1,313.84,294c0,12,.07,24,0,35.94a14.72,14.72,0,0,1-14.49,14.23q-18,.06-35.91,0a14.66,14.66,0,0,1-14.51-14.27q-.15-18,0-36A14.65,14.65,0,0,1,262.63,279.3Zm1.23,14.9v35h35v-35Z" transform="translate(0)"/><path class="cls-1" d="M362.9,281.73c10.15-.61,20.35-.09,30.52-.27,4.71.14,9.73-.66,14.12,1.51a14.74,14.74,0,0,1,8.21,13c.07,11.67,0,23.34,0,35a15,15,0,0,1-7.8,13.69c-3.19,1.83-7,1.83-10.54,1.8-10.67-.08-21.34.05-32,0-7.71.14-14.66-6.63-14.6-14.36-.16-10.69,0-21.38-.08-32.06a31.16,31.16,0,0,1,.64-8A14.59,14.59,0,0,1,362.9,281.73Zm2.88,14.74v35h35v-35Q383.28,296.45,365.78,296.47Z" transform="translate(0)"/><path class="cls-1" d="M55.81,372.56A36.89,36.89,0,0,1,64.4,372c10.37.09,20.74-.08,31.1.07a14.62,14.62,0,0,1,13.25,8.64c1.38,2.88,1.36,6.13,1.34,9.24-.07,10.69,0,21.37,0,32.06a14.83,14.83,0,0,1-8.2,13.46c-3.21,1.71-6.94,1.58-10.47,1.57-10.68-.09-21.36.07-32-.07a14.7,14.7,0,0,1-13.53-10.08c-1-3.21-.75-6.62-.77-9.93.1-10.3-.12-20.6.09-30.9A14.59,14.59,0,0,1,55.81,372.56ZM60,387v35H95V387Z" transform="translate(0)"/><path class="cls-1" d="M157.76,372.55c9.49-1.21,19.15-.24,28.7-.55,5.53.28,11.38-.87,16.65,1.25A14.82,14.82,0,0,1,211.94,387c0,12,.06,23.95,0,35.91A14.74,14.74,0,0,1,197.5,437q-18.06.11-36.13,0A14.65,14.65,0,0,1,147,423c-.17-12-.06-24-.05-36A14.72,14.72,0,0,1,157.76,372.55ZM161.94,387v35h35V387Z" transform="translate(0)"/><path class="cls-1" d="M251.2,378.78A14.86,14.86,0,0,1,264.33,372c11.69,0,23.39-.08,35.08.05a14.64,14.64,0,0,1,13.13,8.61c1.65,3.54,1.3,7.53,1.33,11.33-.05,10,0,20,0,30a14.8,14.8,0,0,1-8.11,13.38c-3.77,2-8.18,1.57-12.3,1.61-10.37-.11-20.75.16-31.11-.11-8.12-.4-15-8.83-13.1-16.86a7.52,7.52,0,0,1,9.51-4.78,7.2,7.2,0,0,1,1.66.78c2.19,1.22,2.92,3.72,3.69,5.93h34.77V387h-35c-.07,4,.34,8-.3,12-1.17,5-8,7.21-11.9,3.78-3.07-2.27-2.85-6.38-2.82-9.77C248.9,388.2,248.33,382.94,251.2,378.78Z" transform="translate(0)"/></svg>