<svg id="Layer_1" data-name="Layer 1" xmlns="http://www.w3.org/2000/svg" viewBox="0 0 480.03 479.98"><path d="M114.1,19.19A32,32,0,0,1,159.2,41c1.49,7.56.52,15.33.8,23q32,0,64,0c.42-9.23-1.3-18.88,2.23-27.69a32,32,0,0,1,58.65-2.06C289.51,43.49,287.6,54.07,288,64h64c.41-9.24-1.32-18.92,2.24-27.74a32,32,0,0,1,58.65-2c4.62,9.24,2.71,19.8,3.11,29.72,13.35,0,26.69,0,40,0a40,40,0,0,1,40,40q.06,103.54,0,207.09a8.23,8.23,0,0,1-5.32,8.44,8,8,0,0,1-10.42-5.62A61.76,61.76,0,0,1,480,305V176H32V417c0,5.17-.42,10.56,1.57,15.46A24.18,24.18,0,0,0,55.91,448q111.54.07,223.07,0c4.6-.53,9.12,3.27,9,8,.15,4.67-4.32,8.5-8.89,8H57a40.09,40.09,0,0,1-41-40Q16,264.51,16,105A40,40,0,0,1,54.92,64.05c13.69-.12,27.39,0,41.08,0,.28-7.64-.69-15.39.78-22.94A32.06,32.06,0,0,1,114.1,19.19Zm11.12,13.05A16.17,16.17,0,0,0,112,49c0,15.68,0,31.36,0,47-.22,8.52,7.51,16.13,16,15.94,8.49.19,16.16-7.42,16-15.92Q144,72,144,47.94C144.22,38.41,134.58,30.27,125.22,32.24Zm128,0A16,16,0,0,0,240,48q0,24.06,0,48.12c-.21,8.5,7.51,16.07,16,15.9,8.51.21,16.2-7.45,16-16q0-24,0-48.1C272.21,38.39,262.56,30.26,253.19,32.24Zm128,0A16,16,0,0,0,368,47.93C368,63,368,78,368,93c0,3-.06,6,1.12,8.83A16,16,0,0,0,400,96q0-24,0-48.06C400.24,38.42,390.58,30.25,381.2,32.24ZM33.54,95.6C31.7,100.17,32,105.18,32,110q0,25,0,50H480c0-19,.09-38.07-.07-57.11-.28-12-10.87-22.62-22.91-22.83-13.67-.15-27.34,0-41-.06-.28,7.65.7,15.43-.8,23A32.08,32.08,0,0,1,390,127.42c-13.84,2.88-28.87-4.8-34.79-17.6C350.47,100.57,352.4,90,352,80H288c-.28,7.65.7,15.43-.8,23a32.07,32.07,0,0,1-25.27,24.43c-13.82,2.87-28.83-4.79-34.76-17.56C222.47,100.6,224.4,90,224,80H160c-.39,9,1.22,18.35-2,27a32.1,32.1,0,0,1-25,20.58c-13.58,2.39-28-5.23-33.84-17.69C94.46,100.62,96.4,90,96,80c-13.34,0-26.69,0-40,0A24.13,24.13,0,0,0,33.54,95.6Z" transform="translate(-15.99 -15.98)"/><path d="M93.23,216.25c11.6-.56,23.24-.13,34.85-.23,8.48-.21,16.07,7.46,15.9,15.91,0,8.41.12,16.83-.07,25.24-.35,8.05-7.77,15-15.82,14.81Q112,272,95.92,272c-8.06.12-15.54-6.79-15.85-14.88-.16-8.39-.06-16.8,0-25.19A16,16,0,0,1,93.23,216.25ZM96,232v24h32V232Z" transform="translate(-15.99 -15.98)"/><path d="M189.16,216.26c11.59-.58,23.24-.13,34.85-.24,8.53-.24,16.17,7.48,16,16,0,8.37.12,16.74-.06,25.11-.33,8.1-7.78,15-15.87,14.87Q208,272,192,272a16.17,16.17,0,0,1-15.44-11.84c-.89-3.62-.47-7.4-.55-11.1.06-6-.12-12.06.07-18.09A15.94,15.94,0,0,1,189.16,216.26ZM192,232v24h32q0-12,0-24Z" transform="translate(-15.99 -15.98)"/><path d="M285.31,216.24c11.59-.54,23.22-.12,34.83-.22,8.46-.17,16,7.48,15.84,15.92,0,8.39.12,16.79-.06,25.18-.33,8.08-7.76,15-15.83,14.86Q304,272,288,272c-8.09.16-15.62-6.75-15.94-14.87-.16-8.38-.05-16.77-.05-25.15A16,16,0,0,1,285.31,216.24ZM288,232v24q16,0,32,0V232Z" transform="translate(-15.99 -15.98)"/><path d="M381.21,216.25c11.58-.56,23.21-.12,34.8-.23,8.51-.24,16.14,7.44,16,15.92q.06,12,0,24.07c.19,8.11-6.77,15.58-14.89,15.91-9.68.21-19.36,0-29,.1-3.58,0-7.35.17-10.64-1.47A16,16,0,0,1,368,256Q368,244,368,231.91A16,16,0,0,1,381.21,216.25ZM384,232q0,12,0,24h32V232Q400,232,384,232Z" transform="translate(-15.99 -15.98)"/><path d="M93.21,288.25c11.61-.56,23.26-.13,34.89-.23,8.47-.2,16,7.47,15.88,15.91,0,8.36.11,16.72-.06,25.07-.26,8.13-7.74,15.14-15.86,15Q112,344,96,344c-8.08.15-15.6-6.75-15.92-14.86-.16-8.39,0-16.77,0-25.16A16,16,0,0,1,93.21,288.25ZM96,304v24h32V304Z" transform="translate(-15.99 -15.98)"/><path d="M189.19,288.25c11.6-.56,23.25-.12,34.86-.23,8.5-.22,16.1,7.46,15.93,15.92,0,8.37.12,16.75-.06,25.12-.3,8.12-7.77,15.08-15.87,14.92Q208,344,192,344c-8.08.14-15.59-6.78-15.89-14.9-.16-8.36,0-16.72,0-25.08A16,16,0,0,1,189.19,288.25ZM192,304v24h32V304Z" transform="translate(-15.99 -15.98)"/><path d="M282.14,289.11c3.12-1.32,6.57-1.11,9.88-1.13,9.35.08,18.7-.07,28.05.06a8,8,0,0,1,0,15.91c-10.68.13-21.37,0-32.06.05q0,11.88,0,23.77c2.95.56,6.06,1.93,7.25,4.91a8,8,0,0,1-5.33,11.06c-8.68,1.59-17.54-5.89-17.85-14.64-.16-8.38-.06-16.78-.05-25.17A16,16,0,0,1,282.14,289.11Z" transform="translate(-15.99 -15.98)"/><path d="M379.51,288.8a103.71,103.71,0,0,1,63.21,12.44A104.91,104.91,0,0,1,482,340,104,104,0,1,1,379.51,288.8Zm1.07,16a88,88,0,1,0,54.81,10.71A88,88,0,0,0,380.58,304.77Z" transform="translate(-15.99 -15.98)"/><path d="M438.41,358.35c4.31-4.44,12.72-1.39,13.27,4.75.8,4.32-2.76,7.41-5.53,10.09q-32,31.95-64,64c-2.93,3.45-8.67,3.83-11.81.47-11.05-11-22-22-33-33-1.83-1.72-3.3-4-3.16-6.64a8,8,0,0,1,7.88-7.84c2.6-.13,4.9,1.36,6.63,3.18Q362.33,407,376,420.67C396.84,399.92,417.55,379.06,438.41,358.35Z" transform="translate(-15.99 -15.98)"/><path d="M93.24,360.25c11.58-.56,23.21-.13,34.81-.23,8.5-.22,16.11,7.47,15.93,15.94,0,8.36.11,16.72-.06,25.08-.29,8.13-7.76,15.11-15.88,14.94q-16,.06-32.11,0c-8.06.12-15.54-6.78-15.86-14.87-.16-8.4-.06-16.8,0-25.2A16,16,0,0,1,93.24,360.25ZM96,376q0,12,0,24h32q0-12,0-24Z" transform="translate(-15.99 -15.98)"/><path d="M189.23,360.25c11.59-.56,23.22-.13,34.83-.23,8.12-.2,15.54,6.84,15.87,14.94.16,8.37.06,16.75,0,25.13a16.1,16.1,0,0,1-10.06,14.77C227.12,416,224,416,221,416c-9.68-.07-19.36,0-29,0-7.76.14-15.06-6.22-15.85-14-.25-9.35-.26-18.73,0-28.07A16,16,0,0,1,189.23,360.25ZM192,376v24h32q0-12,0-24Z" transform="translate(-15.99 -15.98)"/></svg>