<svg id="Layer_1" data-name="Layer 1" xmlns="http://www.w3.org/2000/svg" viewBox="0 0 415.47 415.95"><defs><style>.cls-1{fill:#fff;}</style></defs><path class="cls-1" d="M238.51,48.83A207.5,207.5,0,0,1,306,54.07c4.38.85,8.65,3,11.12,6.87a16,16,0,0,1-.76,19.29,16.22,16.22,0,0,1-16.95,5.2,176.84,176.84,0,0,0-183.21,63.65c-21,27.52-33.21,61.49-35.39,96-2.31,35.29,6,71.39,24.47,101.63C137.41,399.76,198.85,433.8,261,432c43.74-1.11,86.66-19.47,117.9-50.06a174.78,174.78,0,0,0,50.38-95.43,176.86,176.86,0,0,0-2.73-73.85,16.32,16.32,0,0,1,4.61-16.48,16,16,0,0,1,26.12,7.5A209.3,209.3,0,0,1,448,336,207.71,207.71,0,0,1,186.14,451.8a209.21,209.21,0,0,1-75.63-47.31,205.41,205.41,0,0,1-53.1-87.06,212.82,212.82,0,0,1-.24-121.14,203.67,203.67,0,0,1,55.35-90.88A209.54,209.54,0,0,1,238.51,48.83Z" transform="translate(-48.49 -48.05)"/><path class="cls-1" d="M436.68,86.63a16,16,0,0,1,27.23,10.29,16.16,16.16,0,0,1-5.13,12.87q-94,94-188,188c-3.52,4.1-8,8.18-13.72,8.22-5.63.59-10.92-2.42-14.38-6.68-21.87-22.14-44-44-66-66.09a16.12,16.12,0,0,1-3.27-17.62,16.09,16.09,0,0,1,26.4-4.48q28.08,28.07,56.15,56.14Q346.39,177,436.68,86.63Z" transform="translate(-48.49 -48.05)"/></svg>