<svg id="Layer_1" data-name="Layer 1" xmlns="http://www.w3.org/2000/svg" viewBox="0 0 512 512"><path d="M247.51,0h15.08c38.51,1.12,76.83,10.62,111,28.47,52.32,27.08,94.85,72.68,117.93,126.92a259.05,259.05,0,0,1,20.46,94V259.7A255.9,255.9,0,0,1,468,399a20,20,0,0,1-34.74-5.11,20.17,20.17,0,0,1,2.35-18.33,215,215,0,0,0,24.14-191.25C440.51,129.28,398,83,344.83,59.15a215.93,215.93,0,1,0,23,381.72,20,20,0,0,1,21.61,33.59c-37.4,23.18-81,35.72-124.87,37.54H249.42c-39.44-1.16-78.69-11.14-113.5-29.82C80.38,452.73,36.29,402.2,15.09,343A261.82,261.82,0,0,1,0,263.56V248.48c1.37-41.35,12.46-82.43,33-118.41C61.72,79.33,108.12,38.72,162.51,17.56,189.56,6.84,218.48,1.24,247.51,0Z"/><path d="M160.59,156.75A24.06,24.06,0,0,1,167,156q89.5,0,179,0a20,20,0,0,1-.05,40q-89.49.08-179,0a20.33,20.33,0,0,1-15.58-6.34,20,20,0,0,1,9.16-32.92Z"/><path d="M160.51,236.75A23.32,23.32,0,0,1,167,236q89.52,0,179.05,0a20,20,0,0,1,15.13,33,20.4,20.4,0,0,1-16.08,7H167a20.38,20.38,0,0,1-15.62-6.44,20,20,0,0,1,9.17-32.81Z"/><path d="M160.52,316.77A23.36,23.36,0,0,1,167,316q89.5,0,179,0a20,20,0,0,1,12.07,35.91A20.49,20.49,0,0,1,345,356Q258.5,356,172,356c-4.76,0-9.76.35-14.16-1.78a20,20,0,0,1,2.72-37.45Z"/></svg>