<svg id="Layer_1" data-name="Layer 1" xmlns="http://www.w3.org/2000/svg" viewBox="0 0 512 512"><defs><style>.cls-1{fill:#043c84;}</style></defs><path class="cls-1" d="M251.34,0h9.2A256.16,256.16,0,0,1,512,251.39v9.19A256.22,256.22,0,0,1,260.58,512h-9.17A256.26,256.26,0,0,1,0,260.59v-9.16A256.19,256.19,0,0,1,251.34,0Zm-6,51.51c-42,2-83,17.81-116,43.84A204.5,204.5,0,0,0,70.58,169.6C47,218.93,44.81,278.12,64.88,329c2.22,7,5.81,13.42,8.91,20,2.75,6.08,6.61,11.54,9.94,17.3,3.17,5.55,7.38,10.4,11.1,15.58a204.17,204.17,0,0,0,214.25,71.85c32.13-8.9,62.25-25.36,86.49-48.33,6.66-5.68,12.15-12.54,18.07-18.95,5.74-7.59,11.87-15,16.53-23.31,9.71-15.23,16.79-32,22.21-49.17a204,204,0,0,0-55.33-206.14,201.63,201.63,0,0,0-54.67-37.31c-7.78-4.13-16.25-6.61-24.45-9.72A203.41,203.41,0,0,0,245.33,51.51Z"/><path class="cls-1" d="M207.51,162.67c6.75-1.39,13.38,1.42,19.13,4.7L342,234c5.76,3.38,12,6.46,16.18,11.9a16,16,0,0,1,2.49,15.83c-2.33,6-7.7,9.9-13,13q-60.5,35-121,69.87c-4.81,2.66-10,5.18-15.66,5.05a15.42,15.42,0,0,1-13.27-7.27c-3.34-5.14-3.76-11.46-3.8-17.41q0-69,0-138c0-5.68.41-11.65,3.33-16.68A15.7,15.7,0,0,1,207.51,162.67Z"/></svg>