<svg id="Layer_1" data-name="Layer 1" xmlns="http://www.w3.org/2000/svg" viewBox="0 0 512 512"><defs><style>.cls-1{fill:#fff;}</style></defs><path class="cls-1" d="M250.52,0h9.94A256.23,256.23,0,0,1,512,250.52v10A256.25,256.25,0,0,1,260.54,512h-9a256.14,256.14,0,0,1-133.85-40.62C65.74,438.19,26.53,385.62,9.83,326.26A260.77,260.77,0,0,1,0,260.56v-10C1.09,204.16,14.77,158,39.85,118.88A256.23,256.23,0,0,1,250.52,0ZM204.36,160.49A16.27,16.27,0,0,0,192,177q0,79.07,0,158.14A16.27,16.27,0,0,0,201,350.27c5.32,2.78,11.92,1.84,16.77-1.5Q280.86,309.3,344,269.84c6.6-3.81,9.78-12.52,6.84-19.61-1.64-4.71-5.88-7.67-10-10.07q-61.56-38.41-123.07-76.91C213.87,160.65,209,159.32,204.36,160.49Z"/></svg>