<svg id="Layer_1" data-name="Layer 1" xmlns="http://www.w3.org/2000/svg" viewBox="0 0 512 135.9"><defs><style>.cls-1{fill:#3c80c2;}</style></defs><path class="cls-1" d="M56.93,189.05A67.8,67.8,0,1,1,14.77,298.28,68.66,68.66,0,0,1,0,259.36v-6.68a67.94,67.94,0,0,1,56.93-63.63Z" transform="translate(0 -187.92)"/><path class="cls-1" d="M250.17,188.15a67.83,67.83,0,1,1-49.38,27.75A67.81,67.81,0,0,1,250.17,188.15Zm-3.72,26.48a42.42,42.42,0,1,0,29.2,3.73A42.61,42.61,0,0,0,246.45,214.63Z" transform="translate(0 -187.92)"/><path class="cls-1" d="M407.69,198.85a67.82,67.82,0,0,1,89.58,15A69.48,69.48,0,0,1,512,252.17v7.46a69.21,69.21,0,0,1-17.47,41.83,67.82,67.82,0,1,1-86.84-102.61Z" transform="translate(0 -187.92)"/></svg>