<svg id="هيئة_سوق_المالية" data-name="هيئة سوق المالية" xmlns="http://www.w3.org/2000/svg" xmlns:xlink="http://www.w3.org/1999/xlink" width="189.496" height="32.995" viewBox="0 0 189.496 32.995">
  <defs>
    <clipPath id="clip-path">
      <path id="Path_42558" data-name="Path 42558" d="M761.3,463.548l11.18-11.18L761.324,430.6Z" transform="translate(-761.3 -430.6)"/>
    </clipPath>
    <linearGradient id="linear-gradient" x1="-3.827" y1="-2.911" x2="-3.816" y2="-2.911" gradientUnits="objectBoundingBox">
      <stop offset="0" stop-color="#aaacaf"/>
      <stop offset="1" stop-color="#fafafa"/>
    </linearGradient>
    <clipPath id="clip-path-2">
      <path id="Path_42562" data-name="Path 42562" d="M853.1,441.78l11.18,21.767V430.6Z" transform="translate(-853.1 -430.6)"/>
    </clipPath>
    <linearGradient id="linear-gradient-2" x1="-4.587" y1="-2.812" x2="-4.576" y2="-2.812" xlink:href="#linear-gradient"/>
  </defs>
  <g id="Group_3829" data-name="Group 3829" transform="translate(0 0)">
    <g id="Group_3823" data-name="Group 3823" transform="translate(0 0.095)">
      <path id="Path_42519" data-name="Path 42519" d="M108.45,447.927a13.893,13.893,0,0,0-1.282,1.353,5.735,5.735,0,0,0,1.282.142,5.583,5.583,0,0,0,1.282-.142,8.65,8.65,0,0,0-1.282-1.353m-5.483-2.73a5.749,5.749,0,0,0,3.252,3.774,12.4,12.4,0,0,1,1.567-1.59,11.029,11.029,0,0,0-4.819-2.184m7.715,3.774a5.645,5.645,0,0,0,3.252-3.774,11.5,11.5,0,0,0-4.842,2.184,10.077,10.077,0,0,1,1.59,1.59M108.45,438.1a5.653,5.653,0,0,0-5.65,5.673,4.583,4.583,0,0,0,.095,1,11.612,11.612,0,0,1,5.555,2.113,11.7,11.7,0,0,1,5.578-2.113,4.729,4.729,0,0,0,.095-1,5.673,5.673,0,0,0-5.673-5.673m3.323,4.842c0,.119-.024.237-.024.356a3.382,3.382,0,0,0-1.424-2.374,3.288,3.288,0,0,1-.57,3.917,2.514,2.514,0,0,1-.285.237,3.311,3.311,0,0,0-.237-4.415,3.934,3.934,0,0,0-.332-.309h-.071v5.222a.375.375,0,0,1-.38.38.356.356,0,0,1-.356-.38h0v-5.222H108a2.049,2.049,0,0,0-.332.309,3.285,3.285,0,0,0-.237,4.415,2.6,2.6,0,0,1-.261-.237,3.288,3.288,0,0,1-.57-3.917,3.289,3.289,0,0,0-1.424,2.374,1.8,1.8,0,0,1-.024-.356,3.318,3.318,0,0,1,2.374-3.181,3.331,3.331,0,0,0-2.682.665,2.6,2.6,0,0,1,.237-.261,3.31,3.31,0,0,1,3.394-.807,3.31,3.31,0,0,1,3.394.807,2.6,2.6,0,0,0,.237.261,3.266,3.266,0,0,0-2.682-.665,3.3,3.3,0,0,1,2.35,3.181" transform="translate(-102.586 -436.415)" fill="#fff"/>
      <path id="Path_42520" data-name="Path 42520" d="M186.6,446.939a3.745,3.745,0,0,1-.57.926,2.794,2.794,0,0,1-2.16.9c-1.685,0-2.967-1.875-2.967-3.964,0-1.946,1.306-3.893,3.371-3.893a5.47,5.47,0,0,1,2.35.878c.309,0,.356-.5.475-.688h.451a6.774,6.774,0,0,0-.071,1.187v4.558c0,.5.071,1.424,1.116,1.5h1.757v.427h-1.258c-1.258,0-2.255-.166-2.492-1.828m-2.35-5.6c-1.519,0-2.231,1.709-2.231,3.561,0,2.635,1.258,3.418,2.065,3.418a2.245,2.245,0,0,0,2.113-1.638,7.483,7.483,0,0,0,.214-2.136c0-1.5-.237-3.2-2.16-3.2m-.831-2.255a.619.619,0,0,1-.641-.617.641.641,0,1,1,1.282,0,.592.592,0,0,1-.641.617m2.255,0a.6.6,0,0,1-.641-.617.63.63,0,0,1,.641-.665.644.644,0,0,1,.641.665.592.592,0,0,1-.641.617" transform="translate(-162.147 -436.186)" fill="#fff"/>
      <path id="Path_42521" data-name="Path 42521" d="M217.641,462.634a.624.624,0,0,1-.641-.641.638.638,0,0,1,.641-.641.624.624,0,0,1,.641.641.611.611,0,0,1-.641.641m5.744-3.038a2.566,2.566,0,0,1-2.54-1.662,2.1,2.1,0,0,1-2.279,1.662h-1.044v-.427h.736c1.092-.024,1.543-.665,1.543-1.757v-4.391c0-.427-.024-.5-.593-.665l1.685-.356v4.344c0,1.139.76,2.825,2.113,2.825h.522v.427Zm-3.466,3.038a.611.611,0,0,1-.641-.641.641.641,0,0,1,1.282,0,.624.624,0,0,1-.641.641" transform="translate(-189.678 -447.015)" fill="#fff"/>
      <path id="Path_42522" data-name="Path 42522" d="M243.2,448.339h.166c1.139,0,1.614-.665,1.614-1.757v-7.667c0-.427-.024-.593-.593-.76l1.685-.356v8.783a2.091,2.091,0,0,1-2.326,2.208h-.522v-.451Z" transform="translate(-209.659 -436.186)" fill="#fff"/>
      <path id="Path_42523" data-name="Path 42523" d="M263.858,446.6v-7.691c0-.475-.261-.665-1.258-.665v-.451l2.35-.095v8.973a1.386,1.386,0,0,0,1.353,1.567h.712v.427h-.783c-1.377.024-2.374-.475-2.374-2.065" transform="translate(-224.454 -436.11)" fill="#fff"/>
      <path id="Path_42524" data-name="Path 42524" d="M290.672,448.767A2.629,2.629,0,0,1,288.2,447.3a3.255,3.255,0,0,1-3.252,2.231,3.22,3.22,0,0,1-2.777-1.614l-.071-.071a1.97,1.97,0,0,1-1.8.926h-.5v-.427h.522a1.652,1.652,0,0,0,.807-.332c1.709-1.59.475-5.626,4.273-5.626,1.97,0,3.038,2.065,3.038,3.656a5.011,5.011,0,0,1-.047.617,2.189,2.189,0,0,0,1.923,1.685h.38c1.139,0,1.614-.665,1.614-1.757v-7.667c0-.427-.024-.593-.617-.76l1.685-.356v8.783a2.091,2.091,0,0,1-2.326,2.208h-.38Zm-5.555-6.006c-1.994,0-1.78,2.9-2.73,4.676a.4.4,0,0,1,.142.142,3.371,3.371,0,0,0,2.516,1.5c1.211,0,2.255-1.329,2.255-2.967,0-1.709-.712-3.3-2.136-3.347Z" transform="translate(-237.571 -436.186)" fill="#fff"/>
      <path id="Path_42525" data-name="Path 42525" d="M345.517,438.816c0-.427-.024-.593-.617-.76l1.685-.356v10.99h-1.068Z" transform="translate(-287.218 -436.11)" fill="#fff"/>
      <path id="Path_42526" data-name="Path 42526" d="M378.214,446.794c0,2.777-1.638,5.7-4.866,5.7-3.252,0-4.89-2.9-4.89-5.7v-2.445c0-.451-.261-.641-1.258-.641v-.451l2.35-.095v3.632c0,4.107,1.9,5.222,3.8,5.222,1.638,0,3.3-.855,3.679-3.8a2.442,2.442,0,0,1-2.35,1.234,2.611,2.611,0,0,1-2.445-2.635,4.66,4.66,0,0,1,4.89-4.937h1.092Zm-1.068-4.463a1.245,1.245,0,0,0-.4-.047c-1.662,0-3.418,1.757-3.418,4.415,0,1.044.593,2.326,1.733,2.374,1.187,0,2.089-1.306,2.089-2.706Zm-1.8-2.374a.6.6,0,0,1-.617-.617.6.6,0,0,1,.617-.641.644.644,0,0,1,.665.641.625.625,0,0,1-.665.617m2.279,0a.629.629,0,1,1,0-1.258.619.619,0,0,1,.617.641.6.6,0,0,1-.617.617" transform="translate(-304.225 -436.872)" fill="#fff"/>
      <path id="Path_42527" data-name="Path 42527" d="M430.608,459.672h-2.445a3.753,3.753,0,0,1-3.869,3.228c-.237,0-.475-.024-1.116-.071,1.543-.332,3.3-.807,3.869-3.157h-2.279a2.646,2.646,0,0,1-2.469-2.635,4.66,4.66,0,0,1,4.89-4.937h1.116v6.124a6.5,6.5,0,0,1-.095,1.021h2.374v.427Zm-3.371-1.4v-5.721a1.244,1.244,0,0,0-.4-.047c-1.638,0-3.418,1.757-3.418,4.415a2.1,2.1,0,0,0,1.757,2.3h1.97c.047-.285.071-.593.095-.949" transform="translate(-346.245 -447.091)" fill="#fff"/>
      <path id="Path_42528" data-name="Path 42528" d="M455.9,459.092h.166c1.139,0,1.59-.665,1.59-1.757v-3.11c0-.427-.024-.5-.593-.665l1.685-.332v3.062c0,1.116.76,2.825,2.089,2.825,1.163,0,1.614-.665,1.614-1.757v-3.774c0-.451,0-.5-.617-.688l1.685-.332v3.679c0,1.139.783,2.825,2.113,2.825,1.163,0,1.638-.665,1.638-1.757v-4.391c0-.427-.024-.5-.617-.665l1.685-.356v4.344c0,1.139.783,2.825,2.113,2.825h.522v.427h-.166a2.619,2.619,0,0,1-2.54-1.662,2.071,2.071,0,0,1-2.255,1.662,2.574,2.574,0,0,1-2.54-1.662,2.077,2.077,0,0,1-2.231,1.662,2.588,2.588,0,0,1-2.469-1.5l-.047-.071a2.12,2.12,0,0,1-2.279,1.59H455.9Z" transform="translate(-371.87 -446.939)" fill="#fff"/>
      <path id="Path_42529" data-name="Path 42529" d="M518.124,448.339h.142c1.139,0,1.614-.665,1.614-1.757v-7.667c0-.427-.024-.593-.593-.76l1.685-.356v8.783a2.11,2.11,0,0,1-2.35,2.208H518.1v-.451Z" transform="translate(-419.305 -436.186)" fill="#fff"/>
      <path id="Path_42530" data-name="Path 42530" d="M538.917,438.816c0-.427-.024-.593-.617-.76l1.685-.356v10.99h-1.068Z" transform="translate(-434.71 -436.11)" fill="#fff"/>
      <path id="Path_42531" data-name="Path 42531" d="M571.673,446.939a3.744,3.744,0,0,1-.57.926,2.777,2.777,0,0,1-2.136.9c-1.709,0-2.967-1.875-2.967-3.964,0-1.946,1.306-3.893,3.371-3.893a5.329,5.329,0,0,1,2.35.878c.309,0,.356-.5.475-.688h.451a6.78,6.78,0,0,0-.071,1.187v4.558c0,.5.071,1.424,1.116,1.5h1.733v.427h-1.258c-1.234,0-2.231-.166-2.492-1.828m-2.326-5.6c-1.5,0-2.231,1.709-2.231,3.561,0,2.635,1.258,3.418,2.065,3.418a2.245,2.245,0,0,0,2.113-1.638,7.482,7.482,0,0,0,.214-2.136c0-1.5-.237-3.2-2.16-3.2m-.831-2.255a.619.619,0,0,1-.641-.617.641.641,0,1,1,1.282,0,.6.6,0,0,1-.641.617m2.279,0a.625.625,0,0,1-.665-.617.649.649,0,0,1,.665-.665.625.625,0,0,1,.617.665.6.6,0,0,1-.617.617" transform="translate(-455.835 -436.186)" fill="#fff"/>
      <path id="Path_42532" data-name="Path 42532" d="M610.063,443.581a2.517,2.517,0,0,1-2.516-1.662,2.081,2.081,0,0,1-2.279,1.662H604.2v-.427h.76c1.092-.024,1.543-.665,1.543-1.757v-4.391c0-.427-.024-.5-.593-.665l1.685-.356v4.344c0,1.139.76,2.825,2.113,2.825h.522v.427Zm-2.184-9.661v-.38h-.593a1.4,1.4,0,0,1-1.258-1.424.707.707,0,0,1,.665-.783c.214,0,.4.024.475.214a.56.56,0,0,0-.214.38.365.365,0,0,0,.356.356c.19,0,.332-.095.332-.427a.869.869,0,0,0-.926-.855,1.249,1.249,0,0,0-1.234,1.329,1.51,1.51,0,0,0,.76,1.211h-.9l-.142.38Z" transform="translate(-484.967 -431)" fill="#fff"/>
      <path id="Path_42533" data-name="Path 42533" d="M626.841,462.634a.624.624,0,0,1-.641-.641.638.638,0,0,1,.641-.641.624.624,0,0,1,.641.641.638.638,0,0,1-.641.641m5.721-3.038a2.566,2.566,0,0,1-2.54-1.662,2.081,2.081,0,0,1-2.279,1.662h-1.068v-.427h.76c1.092-.024,1.543-.665,1.543-1.757v-4.391c0-.427-.024-.5-.593-.665l1.685-.356v4.344c0,1.139.76,2.825,2.113,2.825h.522v.427Zm-3.466,3.038a.641.641,0,1,1,0-1.282.638.638,0,0,1,.641.641.624.624,0,0,1-.641.641" transform="translate(-501.745 -447.015)" fill="#fff"/>
      <path id="Path_42534" data-name="Path 42534" d="M661.819,461.655H652.3v-.427h1.424c.024-.142.047-.261.071-.38a5.506,5.506,0,0,1,.119-.665c.309-1.472,1.258-2.8,2.872-2.8a2.026,2.026,0,0,1,2.184,1.994,1.979,1.979,0,0,1-1.472,1.852h3.038c0-4.059-1.685-6.1-3.2-6.1-1.994,0-2.587,1.163-2.872,2.825h-.19c.024-2.4,1.5-3.252,3.062-3.252h.024c2.587,0,4.51,3.347,4.51,6.552v.4Zm-7.715-.427h.926c1.258,0,2.92-.546,2.92-2.136a1.274,1.274,0,0,0-1.377-1.234,2.624,2.624,0,0,0-2.279,2.231Z" transform="translate(-521.649 -449.074)" fill="#fff"/>
      <path id="Path_42535" data-name="Path 42535" d="M109.5,520.832h-.4c-.285-1.5-1.092-3.228-2.9-3.228-1.4,0-2.991,1.021-2.991,4.676s1.377,4.676,3.062,4.676c1.852,0,2.9-1.472,2.967-3.561h.475c0,2.421-1.282,3.964-3.442,3.964-2.9,0-4.368-2.611-4.368-5.08,0-2.9,1.994-5.08,4.368-5.08,1.377,0,2.065.926,2.374.926.261,0,.38-.427.451-.594h.4Z" transform="translate(-101.9 -496.738)" fill="#fff"/>
      <path id="Path_42536" data-name="Path 42536" d="M141.156,532.313v3.8c0,.427.166.522.38.522.285,0,.451-.261.451-1.116h.4c0,.949-.261,1.59-1.163,1.59-.665,0-.973-.427-1-1.234h-.024a2.418,2.418,0,0,1-2.184,1.4,1.772,1.772,0,0,1-1.923-1.662c0-1.8,2.8-2.3,4.107-2.659v-1.021c0-.807-.427-1.329-1.448-1.329a2.658,2.658,0,0,0-1.59.522l.024.024a.592.592,0,0,1,.593.617.667.667,0,0,1-.665.688c-.4,0-.641-.309-.641-.807,0-.783.973-1.448,2.255-1.448,1.543.047,2.421.546,2.421,2.113m-.973,1.044c-1.306.285-3.015.688-3.015,2.374a1.134,1.134,0,0,0,1.163,1.092,2.217,2.217,0,0,0,1.852-2.421Z" transform="translate(-127.982 -506.653)" fill="#fff"/>
      <path id="Path_42537" data-name="Path 42537" d="M162.258,531.463c0-.427-.237-.57-1.139-.57v-.4l2.089-.095v1.258h.024c.475-.665.807-1.353,2.089-1.353,1.709,0,2.872,1.733,2.872,3.537a3.3,3.3,0,0,1-3.11,3.537,2.179,2.179,0,0,1-1.852-.9h-.024v2.184c0,.427.237.57,1.163.57v.4H161v-.4c1,0,1.234-.142,1.234-.57v-7.192Zm.973,2.374c0,2.445.5,3.133,1.97,3.133,1.044,0,1.97-.878,1.97-3.133,0-2.231-.926-3.133-1.97-3.133-1.068,0-1.97.9-1.97,3.133" transform="translate(-146.971 -506.729)" fill="#fff"/>
      <path id="Path_42538" data-name="Path 42538" d="M196.471,528.1H193.1v-.4c1,0,1.234-.142,1.234-.57V522.36c0-.427-.237-.57-1.139-.57v-.4l2.113-.095v5.816c0,.427.237.57,1.163.57Zm-1.092-9.02a.655.655,0,0,1-.688.665.669.669,0,0,1-.688-.665.689.689,0,0,1,.688-.688.66.66,0,0,1,.688.688" transform="translate(-171.451 -497.649)" fill="#fff"/>
      <path id="Path_42539" data-name="Path 42539" d="M211.554,523.46v.4h-2.136v5.056c0,.878.427,1.187.926,1.187.427,0,1.044-.309,1.044-1.448v-.617h.4v.522c0,1.139-.522,1.947-1.685,1.947a1.484,1.484,0,0,1-1.638-1.662V523.84H207.4v-.4c1.187,0,1.543-1.163,1.638-2.136h.4v2.136h2.113Z" transform="translate(-182.357 -499.865)" fill="#fff"/>
      <path id="Path_42540" data-name="Path 42540" d="M232.98,532.313v3.8c0,.427.166.522.38.522.261,0,.427-.261.427-1.116h.4c0,.949-.261,1.59-1.163,1.59-.665,0-.973-.427-1-1.234h-.024a2.418,2.418,0,0,1-2.184,1.4,1.772,1.772,0,0,1-1.923-1.662c0-1.8,2.8-2.3,4.107-2.659v-1.021c0-.807-.427-1.329-1.448-1.329a2.658,2.658,0,0,0-1.59.522l.024.024a.592.592,0,0,1,.593.617.667.667,0,0,1-.665.688c-.4,0-.641-.309-.641-.807,0-.783.973-1.448,2.255-1.448,1.543.047,2.445.546,2.445,2.113m-.973,1.044c-1.306.285-3.015.688-3.015,2.374a1.134,1.134,0,0,0,1.163,1.092,2.217,2.217,0,0,0,1.852-2.421Z" transform="translate(-197.991 -506.653)" fill="#fff"/>
      <path id="Path_42541" data-name="Path 42541" d="M256.808,526.83c0,.427.237.57,1.163.57v.4H254.6v-.4c1,0,1.234-.142,1.234-.57v-7.81c0-.427-.237-.57-1.116-.57v-.4l2.089-.047Z" transform="translate(-218.353 -497.348)" fill="#fff"/>
      <path id="Path_42542" data-name="Path 42542" d="M285.4,518h2.777l2.564,7.9h.047l2.706-7.9h2.659v.4c-1.116,0-1.306.071-1.306.973v7.05c0,.9.19.973,1.329.973v.4h-3.75v-.4c1.187,0,1.353-.071,1.353-.973v-7.691h-.024L290.6,527.8h-.332l-3.015-9.068h-.024v7.643c0,.712.332,1,1.353,1.021v.4H285.4v-.4c1-.024,1.329-.332,1.329-1.021v-7c0-.9-.19-.973-1.329-.973Z" transform="translate(-241.842 -497.348)" fill="#fff"/>
      <path id="Path_42543" data-name="Path 42543" d="M337.456,532.313v3.8c0,.427.166.522.38.522.261,0,.451-.261.451-1.116h.4c0,.949-.261,1.59-1.163,1.59-.665,0-.973-.427-1-1.234h-.024a2.418,2.418,0,0,1-2.184,1.4,1.772,1.772,0,0,1-1.923-1.662c0-1.8,2.8-2.3,4.107-2.659v-1.021c0-.807-.427-1.329-1.448-1.329a2.658,2.658,0,0,0-1.59.522l.024.024a.592.592,0,0,1,.593.617.667.667,0,0,1-.665.688c-.4,0-.641-.309-.641-.807,0-.783.973-1.448,2.255-1.448,1.543.047,2.421.546,2.421,2.113m-.973,1.044c-1.306.285-3.038.688-3.038,2.374a1.134,1.134,0,0,0,1.163,1.092,2.217,2.217,0,0,0,1.852-2.421v-1.044Z" transform="translate(-277.685 -506.653)" fill="#fff"/>
      <path id="Path_42544" data-name="Path 42544" d="M360.187,531.463c0-.427-.237-.57-1.139-.57v-.4l2.089-.095V532.1h.047c.309-.831.831-1.8,1.852-1.8a1.007,1.007,0,0,1,1.092.973.63.63,0,0,1-.665.688.6.6,0,0,1-.665-.641.614.614,0,0,1,.332-.57.29.29,0,0,0-.214-.071c-.38,0-1.234.427-1.614,2.065a17.5,17.5,0,0,0-.19,3.157c0,.712.237.854,1.282.854v.4H359v-.4c.926,0,1.139-.142,1.139-.57v-4.724Z" transform="translate(-297.971 -506.729)" fill="#fff"/>
      <path id="Path_42545" data-name="Path 42545" d="M387.713,521.186v.4c-1.068.095-1.472.427-3.252,2.208l1.852,2.825c.546.855.712.878,1.519.878v.4h-1.757l-2.3-3.489-.665.593v1.923c0,.427.237.57,1.163.57v.4H380.9v-.4c1,0,1.234-.142,1.234-.57v-7.81c0-.427-.237-.57-1.139-.57v-.4l2.089-.048v6.433l2.184-1.994c.237-.237.451-.427.451-.665s-.261-.285-1.092-.285v-.4Z" transform="translate(-314.673 -497.425)" fill="#fff"/>
      <path id="Path_42546" data-name="Path 42546" d="M411.268,533.594v.4c0,1.614.783,2.872,2.184,2.872a2.449,2.449,0,0,0,2.279-1.377l.356.237a2.806,2.806,0,0,1-2.73,1.543,3.335,3.335,0,0,1-3.157-3.537c0-2.089,1.163-3.537,3.086-3.537,1.78,0,2.8,1.685,2.8,3.371h-4.819Zm3.727-.4c0-1.163-.356-2.564-1.8-2.564-1.306,0-1.9,1.329-1.9,2.564Z" transform="translate(-337.018 -506.652)" fill="#fff"/>
      <path id="Path_42547" data-name="Path 42547" d="M438.978,523.46v.4h-2.136v5.056c0,.878.427,1.187.926,1.187.427,0,1.044-.309,1.044-1.448v-.617h.4v.522c0,1.139-.522,1.947-1.709,1.947a1.484,1.484,0,0,1-1.638-1.662V523.84H434.8v-.4c1.211,0,1.543-1.163,1.614-2.136h.4v2.136h2.16Z" transform="translate(-355.778 -499.865)" fill="#fff"/>
      <path id="Path_42548" data-name="Path 42548" d="M465.6,527.8v-.4c.926,0,1.234-.119,1.424-.617L470.3,518h.356l3.276,8.878c.166.451.5.546,1.234.546v.4h-3.632v-.4c1.068,0,1.258-.119,1.258-.4a21.311,21.311,0,0,0-.855-2.54h-3.561a19.254,19.254,0,0,0-.807,2.564c0,.332.309.38,1.282.38v.4H465.6Zm2.967-3.822H471.8l-1.59-4.391Z" transform="translate(-379.267 -497.348)" fill="#fff"/>
      <path id="Path_42549" data-name="Path 42549" d="M508.785,536.287c0,.427.214.57,1.068.57v.4l-2.041.071v-1.068h-.024a2.292,2.292,0,0,1-2.136,1.139c-1.234,0-2.136-.451-2.136-1.875v-4.035c0-.427-.237-.57-1.116-.57v-.4l2.089-.095V535.6a1.233,1.233,0,0,0,1.353,1.377c1.187,0,1.994-.973,1.994-2.564v-2.943c0-.427-.237-.57-1.139-.57v-.4l2.113-.095v5.887Z" transform="translate(-407.332 -506.805)" fill="#fff"/>
      <path id="Path_42550" data-name="Path 42550" d="M536.73,523.46v.4h-2.136v5.056c0,.878.427,1.187.926,1.187.4,0,1.044-.309,1.044-1.448v-.617h.4v.522c0,1.139-.522,1.947-1.685,1.947a1.484,1.484,0,0,1-1.638-1.662V523.84H532.6v-.4c1.187,0,1.543-1.163,1.614-2.136h.4v2.136h2.113Z" transform="translate(-430.363 -499.865)" fill="#fff"/>
      <path id="Path_42551" data-name="Path 42551" d="M557.607,527.8v-4.629c0-.736,0-1.852-1.305-1.852-1.116,0-2.018,1.092-2.018,2.967v2.54c0,.427.237.57,1.139.57v.4H552.1v-.4c1,0,1.211-.142,1.211-.57v-7.81c0-.427-.237-.57-1.139-.57v-.4L554.26,518v4.273h.024a2.265,2.265,0,0,1,2.231-1.329,1.858,1.858,0,0,1,2.065,2.113v3.8c0,.427.166.57,1.116.57v.4h-2.089Z" transform="translate(-445.234 -497.348)" fill="#fff"/>
      <path id="Path_42552" data-name="Path 42552" d="M583.7,533.837a3.115,3.115,0,1,1,3.086,3.537,3.295,3.295,0,0,1-3.086-3.537m5.1,0c0-2.018-.641-3.133-2.018-3.133s-2.018,1.116-2.018,3.133.641,3.133,2.018,3.133c1.4,0,2.018-1.116,2.018-3.133" transform="translate(-469.333 -506.729)" fill="#fff"/>
      <path id="Path_42553" data-name="Path 42553" d="M610.263,531.463c0-.427-.237-.57-1.139-.57v-.4l2.113-.095V532.1h.024c.332-.831.831-1.8,1.875-1.8a1.007,1.007,0,0,1,1.092.973.63.63,0,0,1-.665.688.6.6,0,0,1-.665-.641.613.613,0,0,1,.332-.57.29.29,0,0,0-.214-.071c-.38,0-1.234.427-1.614,2.065a17.5,17.5,0,0,0-.19,3.157c0,.712.214.854,1.282.854v.4H609.1v-.4c.9,0,1.139-.142,1.139-.57v-4.724Z" transform="translate(-488.704 -506.729)" fill="#fff"/>
      <path id="Path_42554" data-name="Path 42554" d="M635.471,528.1H632.1v-.4c1,0,1.234-.142,1.234-.57V522.36c0-.427-.237-.57-1.116-.57v-.4l2.089-.095v5.816c0,.427.214.57,1.163.57Zm-1.092-9.02a.689.689,0,0,1-1.377,0,.689.689,0,0,1,.688-.688.66.66,0,0,1,.688.688" transform="translate(-506.244 -497.649)" fill="#fff"/>
      <path id="Path_42555" data-name="Path 42555" d="M649.278,523.76v.4h-2.136v5.08c0,.878.427,1.187.926,1.187.427,0,1.044-.309,1.044-1.448v-.641h.4v.522c0,1.139-.522,1.946-1.709,1.946a1.484,1.484,0,0,1-1.638-1.662V524.14H645.1v-.4c1.187,0,1.543-1.163,1.614-2.136h.4v2.136h2.16Z" transform="translate(-516.158 -500.094)" fill="#fff"/>
      <path id="Path_42556" data-name="Path 42556" d="M662.024,530.7h3.2v.4c-1.044,0-1.163.119-1.163.332a41.837,41.837,0,0,0,1.78,4.581h.024a33.509,33.509,0,0,0,1.685-4.463c0-.332-.214-.451-1.068-.451v-.4h2.706v.4c-.736,0-.949.142-1.234.807l-2.136,5.341c-.783,1.97-1.258,2.564-2.326,2.564a1.259,1.259,0,0,1-1.353-1.139.726.726,0,0,1,.712-.76.593.593,0,0,1,.641.546.63.63,0,0,1-.665.688.854.854,0,0,0,.736.261c.807,0,1.4-.854,1.757-2.184l-2.231-5.6c-.166-.451-.522-.546-1.092-.546v-.38Z" transform="translate(-529.047 -507.034)" fill="#fff"/>
    </g>
    <g id="Group_3825" data-name="Group 3825" transform="translate(156.525)">
      <g id="Group_3824" data-name="Group 3824" clip-path="url(#clip-path)">
        <path id="Path_42557" data-name="Path 42557" d="M727.218,411.5l15.714,30.621-22.218,11.394L705,422.918Z" transform="translate(-718.364 -416.034)" fill="url(#linear-gradient)"/>
      </g>
    </g>
    <g id="Group_3826" data-name="Group 3826" transform="translate(156.525)">
      <path id="Path_42559" data-name="Path 42559" d="M783.167,441.78l11.18-11.18H761.4Z" transform="translate(-761.376 -430.6)" fill="#90d2f4"/>
      <path id="Path_42560" data-name="Path 42560" d="M772.48,522.3,761.3,533.48h32.971Z" transform="translate(-761.3 -500.533)" fill="#2970ad"/>
    </g>
    <g id="Group_3828" data-name="Group 3828" transform="translate(178.316)">
      <g id="Group_3827" data-name="Group 3827" clip-path="url(#clip-path-2)">
        <path id="Path_42561" data-name="Path 42561" d="M812.414,453.539,796.7,422.918,818.942,411.5l15.714,30.621Z" transform="translate(-810.088 -416.034)" fill="url(#linear-gradient-2)"/>
      </g>
    </g>
  </g>
</svg>
