<svg id="برنامج_تطوير_القطاع_المالي" data-name="برنامج تطوير القطاع المالي" xmlns="http://www.w3.org/2000/svg" width="48.053" height="55.257" viewBox="0 0 48.053 55.257">
  <g id="Group_3821" data-name="Group 3821" transform="translate(9.315 0)">
    <path id="Path_42422" data-name="Path 42422" d="M271.328,23.2l1.18,1.128-1.128,1.18L270.2,24.38Z" transform="translate(-258.153 -20.902)" fill="#d3ba2f"/>
    <path id="Path_42423" data-name="Path 42423" d="M307.2,24.38l1.18,1.128,1.128-1.18-1.18-1.128Z" transform="translate(-291.324 -20.902)" fill="#d3ba2f"/>
    <path id="Path_42424" data-name="Path 42424" d="M291.2,41.011l.911.88.89-.921-.921-.869Z" transform="translate(-276.98 -36.053)" fill="#d3ba2f"/>
    <path id="Path_42425" data-name="Path 42425" d="M323.7,45.821l.921.88.869-.921-.911-.88Z" transform="translate(-306.116 -40.357)" fill="#d3ba2f"/>
    <path id="Path_42426" data-name="Path 42426" d="M276.7,54.421l.911.88.88-.911-.911-.89Z" transform="translate(-263.98 -48.066)" fill="#d3ba2f"/>
    <path id="Path_42427" data-name="Path 42427" d="M306.4,55.511l.921.89.88-.921-.911-.88Z" transform="translate(-290.606 -49.053)" fill="#d3ba2f"/>
    <path id="Path_42428" data-name="Path 42428" d="M294.8,68.042l.642.621.621-.642-.652-.621Z" transform="translate(-280.207 -60.528)" fill="#d3ba2f"/>
    <path id="Path_42429" data-name="Path 42429" d="M318.3,72.742l.642.621.621-.652-.642-.611Z" transform="translate(-301.275 -64.741)" fill="#d3ba2f"/>
    <rect id="Rectangle_8517" data-name="Rectangle 8517" width="2.039" height="2.029" transform="translate(22.343 3.098) rotate(-10.382)" fill="#d3ba2f"/>
    <rect id="Rectangle_8518" data-name="Rectangle 8518" width="1.635" height="1.635" transform="translate(19.727 3.938) rotate(-10.387)" fill="#d3ba2f"/>
    <path id="Path_42430" data-name="Path 42430" d="M374.5,58.19l.29,1.594,1.6-.29L376.1,57.9Z" transform="translate(-351.658 -52.011)" fill="#d3ba2f"/>
    <path id="Path_42431" data-name="Path 42431" d="M353,60.928l.238,1.252,1.242-.238-.228-1.242Z" transform="translate(-332.384 -54.521)" fill="#d3ba2f"/>
    <path id="Path_42432" data-name="Path 42432" d="M376.5,83.838l.238,1.242,1.252-.228-.228-1.252Z" transform="translate(-353.451 -75.051)" fill="#d3ba2f"/>
    <rect id="Rectangle_8519" data-name="Rectangle 8519" width="1.273" height="1.273" transform="translate(18.741 6.914) rotate(-10.376)" fill="#d3ba2f"/>
    <rect id="Rectangle_8520" data-name="Rectangle 8520" width="1.273" height="1.273" transform="translate(21.018 8.55) rotate(-10.382)" fill="#d3ba2f"/>
    <rect id="Rectangle_8521" data-name="Rectangle 8521" width="0.89" height="0.89" transform="translate(19.424 8.699) rotate(-10.411)" fill="#d3ba2f"/>
    <path id="Path_42433" data-name="Path 42433" d="M357.8,101.255l.155.88.89-.166-.166-.869Z" transform="translate(-336.687 -90.74)" fill="#d3ba2f"/>
    <path id="Path_42434" data-name="Path 42434" d="M419.669,94.2l-.869,1.832,1.832.88.88-1.842Z" transform="translate(-391.374 -84.554)" fill="#d3ba2f"/>
    <path id="Path_42435" data-name="Path 42435" d="M395.9,86l-.7,1.47,1.48.7.7-1.47Z" transform="translate(-370.216 -77.203)" fill="#d3ba2f"/>
    <path id="Path_42436" data-name="Path 42436" d="M407.6,121.1l-.7,1.47,1.48.7.7-1.48Z" transform="translate(-380.705 -108.67)" fill="#d3ba2f"/>
    <path id="Path_42437" data-name="Path 42437" d="M390.249,110.4l-.549,1.149,1.149.538.549-1.138Z" transform="translate(-365.285 -99.078)" fill="#d3ba2f"/>
    <path id="Path_42438" data-name="Path 42438" d="M395.938,142.8l-.538,1.138,1.138.549.559-1.149Z" transform="translate(-370.395 -128.124)" fill="#d3ba2f"/>
    <path id="Path_42439" data-name="Path 42439" d="M372.648,103.8l-.548,1.149,1.159.549.548-1.149Z" transform="translate(-349.507 -93.161)" fill="#d3ba2f"/>
    <path id="Path_42440" data-name="Path 42440" d="M381.249,129.5l-.549,1.138,1.149.549.548-1.149Z" transform="translate(-357.217 -116.201)" fill="#d3ba2f"/>
    <path id="Path_42441" data-name="Path 42441" d="M369.283,121.7l-.383.8.807.383.383-.807Z" transform="translate(-346.638 -109.208)" fill="#d3ba2f"/>
    <path id="Path_42442" data-name="Path 42442" d="M372.283,145.4l-.383.807.807.383.383-.807Z" transform="translate(-349.328 -130.455)" fill="#d3ba2f"/>
    <path id="Path_42443" data-name="Path 42443" d="M421.391,179.2l-1.79.973.973,1.78,1.78-.973Z" transform="translate(-392.091 -160.757)" fill="#d3ba2f"/>
    <path id="Path_42444" data-name="Path 42444" d="M408.828,157.7l-1.428.8.776,1.428,1.439-.787Z" transform="translate(-381.153 -141.482)" fill="#d3ba2f"/>
    <path id="Path_42445" data-name="Path 42445" d="M397.639,193l-1.439.787.8,1.428,1.428-.787Z" transform="translate(-371.113 -173.129)" fill="#d3ba2f"/>
    <path id="Path_42446" data-name="Path 42446" d="M391.518,173.4l-1.118.611.611,1.118,1.118-.611Z" transform="translate(-365.913 -155.557)" fill="#d3ba2f"/>
    <path id="Path_42447" data-name="Path 42447" d="M377.118,202.9l-1.118.611.611,1.118,1.118-.611Z" transform="translate(-353.003 -182.004)" fill="#d3ba2f"/>
    <path id="Path_42448" data-name="Path 42448" d="M381.118,157.8l-1.118.611.611,1.118,1.118-.611Z" transform="translate(-356.589 -141.572)" fill="#d3ba2f"/>
    <path id="Path_42449" data-name="Path 42449" d="M373.107,183.6l-1.107.611.611,1.118,1.107-.611Z" transform="translate(-349.417 -164.702)" fill="#d3ba2f"/>
    <path id="Path_42450" data-name="Path 42450" d="M369.676,169.5l-.776.424.424.787.787-.435Z" transform="translate(-346.638 -152.061)" fill="#d3ba2f"/>
    <rect id="Rectangle_8522" data-name="Rectangle 8522" width="0.89" height="0.89" transform="translate(21.07 20.049) rotate(-28.731)" fill="#d3ba2f"/>
    <rect id="Rectangle_8523" data-name="Rectangle 8523" width="2.029" height="2.039" transform="translate(22.669 27.914) rotate(-82.952)" fill="#d3ba2f"/>
    <rect id="Rectangle_8524" data-name="Rectangle 8524" width="1.635" height="1.635" transform="matrix(0.123, -0.992, 0.992, 0.123, 23.106, 24.822)" fill="#d3ba2f"/>
    <path id="Path_42451" data-name="Path 42451" d="M349.221,247.5l-1.614-.2-.207,1.615,1.625.2Z" transform="translate(-327.363 -221.809)" fill="#d3ba2f"/>
    <path id="Path_42452" data-name="Path 42452" d="M356.918,226.855l-1.252-.155-.166,1.252,1.263.155Z" transform="translate(-334.625 -203.341)" fill="#d3ba2f"/>
    <path id="Path_42453" data-name="Path 42453" d="M328.018,242.355l-1.263-.155-.155,1.263,1.263.155Z" transform="translate(-308.716 -217.237)" fill="#d3ba2f"/>
    <rect id="Rectangle_8525" data-name="Rectangle 8525" width="1.273" height="1.273" transform="matrix(0.123, -0.992, 0.992, 0.123, 20.954, 22.682)" fill="#d3ba2f"/>
    <rect id="Rectangle_8526" data-name="Rectangle 8526" width="1.273" height="1.273" transform="matrix(0.123, -0.992, 0.992, 0.123, 18.709, 24.353)" fill="#d3ba2f"/>
    <path id="Path_42454" data-name="Path 42454" d="M342.893,209.514l-.88-.114-.114.89.88.114Z" transform="translate(-322.432 -187.831)" fill="#d3ba2f"/>
    <rect id="Rectangle_8527" data-name="Rectangle 8527" width="0.89" height="0.89" transform="matrix(0.123, -0.992, 0.992, 0.123, 17.224, 23.531)" fill="#d3ba2f"/>
    <path id="Path_42455" data-name="Path 42455" d="M292.177,277.477l-1.49-1.376-1.387,1.48,1.49,1.387Z" transform="translate(-275.276 -247.628)" fill="#d3ba2f"/>
    <path id="Path_42456" data-name="Path 42456" d="M289.488,2.387,287.987,1,286.6,2.49l1.5,1.387Z" transform="translate(-272.856 -1)" fill="#d3ba2f"/>
    <path id="Path_42457" data-name="Path 42457" d="M312.418,258.307l-1.2-1.107-1.118,1.2,1.211,1.1Z" transform="translate(-293.924 -230.684)" fill="#d3ba2f"/>
    <path id="Path_42458" data-name="Path 42458" d="M275.508,258.907l-1.2-1.107-1.107,1.19,1.19,1.118Z" transform="translate(-260.843 -231.222)" fill="#d3ba2f"/>
    <path id="Path_42459" data-name="Path 42459" d="M295.7,246.459l-.942-.859-.859.921.931.869Z" transform="translate(-279.4 -220.285)" fill="#d3ba2f"/>
    <path id="Path_42460" data-name="Path 42460" d="M263.09,242.069l-.921-.869-.869.931.931.869Z" transform="translate(-250.174 -216.34)" fill="#d3ba2f"/>
    <path id="Path_42461" data-name="Path 42461" d="M307.3,231.669l-.942-.869-.859.931.931.859Z" transform="translate(-289.8 -207.017)" fill="#d3ba2f"/>
    <path id="Path_42462" data-name="Path 42462" d="M280.2,232.159l-.931-.859-.869.921.942.869Z" transform="translate(-265.504 -207.465)" fill="#d3ba2f"/>
    <path id="Path_42463" data-name="Path 42463" d="M296.263,224l-.652-.6-.611.652.652.611Z" transform="translate(-280.386 -200.382)" fill="#d3ba2f"/>
    <path id="Path_42464" data-name="Path 42464" d="M272.663,219.711l-.652-.611-.611.652.652.611Z" transform="translate(-259.229 -196.527)" fill="#d3ba2f"/>
    <rect id="Rectangle_8528" data-name="Rectangle 8528" width="2.039" height="2.029" transform="matrix(0.98, -0.196, 0.196, 0.98, 5.812, 26.569)" fill="#d3ba2f"/>
    <rect id="Rectangle_8529" data-name="Rectangle 8529" width="1.635" height="1.635" transform="matrix(0.98, -0.196, 0.196, 0.98, 8.881, 26.008)" fill="#d3ba2f"/>
    <rect id="Rectangle_8530" data-name="Rectangle 8530" width="1.635" height="1.635" transform="matrix(0.98, -0.196, 0.196, 0.98, 5.734, 23.824)" fill="#d3ba2f"/>
    <path id="Path_42465" data-name="Path 42465" d="M236.19,230.142l-.248-1.242-1.242.248.248,1.242Z" transform="translate(-226.327 -205.313)" fill="#d3ba2f"/>
    <path id="Path_42466" data-name="Path 42466" d="M254.2,224.942l-.248-1.242-1.252.238.248,1.252Z" transform="translate(-242.464 -200.651)" fill="#d3ba2f"/>
    <rect id="Rectangle_8531" data-name="Rectangle 8531" width="1.273" height="1.273" transform="translate(7.938 21.695) rotate(-11.321)" fill="#d3ba2f"/>
    <rect id="Rectangle_8532" data-name="Rectangle 8532" width="0.89" height="0.89" transform="translate(9.981 21.81) rotate(-11.314)" fill="#d3ba2f"/>
    <rect id="Rectangle_8533" data-name="Rectangle 8533" width="0.89" height="0.89" transform="translate(8.263 20.019) rotate(-11.314)" fill="#d3ba2f"/>
    <path id="Path_42467" data-name="Path 42467" d="M158.442,187.491l.849-1.842-1.853-.849-.838,1.853Z" transform="translate(-156.31 -165.777)" fill="#d3ba2f"/>
    <path id="Path_42468" data-name="Path 42468" d="M186.89,199.863l.683-1.48-1.49-.683-.683,1.49Z" transform="translate(-182.129 -177.342)" fill="#d3ba2f"/>
    <path id="Path_42469" data-name="Path 42469" d="M174.69,165.053l.673-1.47-1.48-.683-.683,1.48Z" transform="translate(-171.192 -146.144)" fill="#d3ba2f"/>
    <path id="Path_42470" data-name="Path 42470" d="M196.359,179.487l.528-1.159-1.149-.528-.538,1.159Z" transform="translate(-190.915 -159.502)" fill="#d3ba2f"/>
    <path id="Path_42471" data-name="Path 42471" d="M211.359,207.487l.528-1.169-1.159-.517-.528,1.149Z" transform="translate(-204.363 -184.604)" fill="#d3ba2f"/>
    <path id="Path_42472" data-name="Path 42472" d="M190.259,147.287l.528-1.149-1.17-.538-.517,1.159Z" transform="translate(-185.447 -130.634)" fill="#d3ba2f"/>
    <rect id="Rectangle_8534" data-name="Rectangle 8534" width="1.273" height="1.273" transform="translate(6.117 20.113) rotate(-65.488)" fill="#d3ba2f"/>
    <rect id="Rectangle_8535" data-name="Rectangle 8535" width="1.273" height="1.273" transform="translate(5.19 17.479) rotate(-65.467)" fill="#d3ba2f"/>
    <rect id="Rectangle_8536" data-name="Rectangle 8536" width="0.89" height="0.89" transform="translate(6.93 18.416) rotate(-65.488)" fill="#d3ba2f"/>
    <path id="Path_42473" data-name="Path 42473" d="M218.218,148.49l.373-.818-.818-.373-.373.818Z" transform="translate(-210.818 -132.159)" fill="#d3ba2f"/>
    <path id="Path_42474" data-name="Path 42474" d="M154.8,102.074l1.77-1-1.014-1.77-1.759,1Z" transform="translate(-153.8 -89.126)" fill="#d3ba2f"/>
    <path id="Path_42475" data-name="Path 42475" d="M172.418,127.925l1.418-.807-.818-1.418-1.418.807Z" transform="translate(-169.758 -112.794)" fill="#d3ba2f"/>
    <path id="Path_42476" data-name="Path 42476" d="M183.007,92.525l1.418-.807-.807-1.418-1.418.807Z" transform="translate(-179.261 -81.058)" fill="#d3ba2f"/>
    <path id="Path_42477" data-name="Path 42477" d="M193.731,116.128l1.1-.621-.621-1.107-1.107.631Z" transform="translate(-189.033 -102.664)" fill="#d3ba2f"/>
    <path id="Path_42478" data-name="Path 42478" d="M207.631,86.439l1.1-.642-.621-1.1L207,85.331Z" transform="translate(-201.494 -76.037)" fill="#d3ba2f"/>
    <path id="Path_42479" data-name="Path 42479" d="M204.421,131.628l1.107-.631-.631-1.1-1.1.631Z" transform="translate(-198.625 -116.559)" fill="#d3ba2f"/>
    <path id="Path_42480" data-name="Path 42480" d="M212.031,105.739l1.107-.642-.631-1.1-1.107.621Z" transform="translate(-205.439 -93.34)" fill="#d3ba2f"/>
    <path id="Path_42481" data-name="Path 42481" d="M220.145,124.211l.776-.435-.445-.776-.776.435Z" transform="translate(-212.88 -110.373)" fill="#d3ba2f"/>
    <path id="Path_42482" data-name="Path 42482" d="M231.345,103.011l.776-.435-.445-.776-.776.435Z" transform="translate(-222.92 -91.368)" fill="#d3ba2f"/>
    <rect id="Rectangle_8537" data-name="Rectangle 8537" width="2.029" height="2.039" transform="translate(5.221 5.172) rotate(-83.892)" fill="#d3ba2f"/>
    <rect id="Rectangle_8538" data-name="Rectangle 8538" width="1.635" height="1.635" transform="translate(5.287 7.909) rotate(-83.886)" fill="#d3ba2f"/>
    <path id="Path_42483" data-name="Path 42483" d="M234.1,40.815l1.625.176.176-1.625-1.625-.166Z" transform="translate(-225.789 -35.246)" fill="#d3ba2f"/>
    <path id="Path_42484" data-name="Path 42484" d="M230.2,65.063l1.263.124.135-1.252-1.263-.135Z" transform="translate(-222.293 -57.3)" fill="#d3ba2f"/>
    <path id="Path_42485" data-name="Path 42485" d="M259,48.963l1.263.145.124-1.273-1.263-.135Z" transform="translate(-248.112 -42.867)" fill="#d3ba2f"/>
    <path id="Path_42486" data-name="Path 42486" d="M229.8,83.763l1.263.135.135-1.263-1.263-.135Z" transform="translate(-221.934 -74.065)" fill="#d3ba2f"/>
    <path id="Path_42487" data-name="Path 42487" d="M251.2,67.163l1.263.145.135-1.273-1.263-.135Z" transform="translate(-241.119 -59.183)" fill="#d3ba2f"/>
    <path id="Path_42488" data-name="Path 42488" d="M248.2,85.59l.89.093.1-.89-.9-.093Z" transform="translate(-238.43 -76.037)" fill="#d3ba2f"/>
    <rect id="Rectangle_8539" data-name="Rectangle 8539" width="0.89" height="0.89" transform="translate(11.997 8.453) rotate(-83.933)" fill="#d3ba2f"/>
    <path id="Path_42489" data-name="Path 42489" d="M250.713,97.531a4.707,4.707,0,0,0-.807-.352,4.759,4.759,0,0,0-2.215-.166,5.286,5.286,0,0,0-.963.248l-.093.031a3.17,3.17,0,0,0-.507.228c-.145.072-.29.155-.435.238a11.533,11.533,0,0,0-.973.662,21.081,21.081,0,0,1-.1-5.164l.01-.01c.766.486.549,1.832.393,2.215,0,.01.01.01.021.01a2.384,2.384,0,0,0,.29-2.691c-.01-.01.01-.021.01-.01a2.125,2.125,0,0,1,.776,1.5,2.869,2.869,0,0,1,0,.517c0,.041-.01.072-.01.114l.01.01h0a2.221,2.221,0,0,0,0-2.018,2.467,2.467,0,0,0-.435-.59c-.052-.052-.114-.114-.176-.166-.01-.01,0-.021.01-.021.062.021.114.031.166.052a1.724,1.724,0,0,1,.435.228,1.778,1.778,0,0,1,.6.818,1.963,1.963,0,0,1,.135.745.014.014,0,0,0,.021,0,1.859,1.859,0,0,0-.155-1.521,1.911,1.911,0,0,0-.6-.59,1.526,1.526,0,0,0-.435-.186,1.828,1.828,0,0,0-.207-.041c-.01,0-.01-.021,0-.021a1.388,1.388,0,0,1,.207-.01,2.763,2.763,0,0,1,.435.031,1.545,1.545,0,0,1,.6.238,1.274,1.274,0,0,1,.4.435c0,.01.021,0,.021-.01a1.194,1.194,0,0,0-.424-.818,1.538,1.538,0,0,0-.6-.321,1.576,1.576,0,0,0-.435-.062,1.281,1.281,0,0,0-.538.093.01.01,0,0,1-.01-.01.96.96,0,0,1,.549-.383,1.253,1.253,0,0,1,.435-.052.926.926,0,0,1,.352.083c.01,0,.021-.01.01-.01a1.178,1.178,0,0,0-.362-.29,1.268,1.268,0,0,0-.435-.145,1.1,1.1,0,0,0-1.045.517c0,.01-.01.01-.021,0-.052-.083-.093-.186-.145-.29a3.285,3.285,0,0,1-.228-.787.01.01,0,0,0-.01-.01,3.246,3.246,0,0,1-.238.8,1.9,1.9,0,0,1-.145.29c0,.01-.01.01-.01,0A1.113,1.113,0,0,0,242,90.814c-.01.01,0,.021.01.01a1.136,1.136,0,0,1,1.345.362c0,.01,0,.021-.01.01a1.582,1.582,0,0,0-1.718.435,1.134,1.134,0,0,0-.279.673s.01.021.021.01a1.3,1.3,0,0,1,.269-.331,1.784,1.784,0,0,1,1.387-.373c.01,0,.01.021,0,.021a1.843,1.843,0,0,0-1.387,1.107,2,2,0,0,0-.021,1.242c0,.01.021.01.021.01V93.95a1.855,1.855,0,0,1,1.345-1.811c.01,0,.021.01.01.021a2.238,2.238,0,0,0-.611,2.774c0,.01.021.01.021.01a2.294,2.294,0,0,1,.776-2.142c.01-.01.021,0,.01.01a2.384,2.384,0,0,0,.29,2.691c.01.01.021,0,.021-.01-.166-.383-.383-1.739.383-2.215h.01a20.569,20.569,0,0,1-.1,5.164,7.992,7.992,0,0,0-1.9-1.138c-.072-.021-.155-.062-.228-.083a5.137,5.137,0,0,0-1.811-.259,4.474,4.474,0,0,0-1.863.476c-.072.031-.135.072-.176.093-.021.01-.01.041.021.031.062-.021.114-.031.166-.052a5.087,5.087,0,0,1,1.863-.176,5.656,5.656,0,0,1,1.811.486,9.608,9.608,0,0,1,2.153,1.4,25.29,25.29,0,0,1-2.153,1.842c-.021.021-.041.021-.072.031a.511.511,0,0,0-.517-.2.535.535,0,0,0-.383.373.541.541,0,0,0,.093.435.716.716,0,0,0,.869.124,12.11,12.11,0,0,0,2.38-1.977c.072-.072.166-.145.238-.228a2.463,2.463,0,0,1,.238.228c.435.393.838.787,1.2,1.118.155.135.29.269.435.383a4.354,4.354,0,0,0,.6.424.773.773,0,0,0,.963-.021c.021-.021.031-.021.041-.041a.55.55,0,0,0,.093-.435.51.51,0,0,0-.145-.248.493.493,0,0,0-.228-.124.5.5,0,0,0-.517.2c-.062-.031-.124-.072-.207-.124a5.172,5.172,0,0,1-.6-.486c-.135-.124-.279-.248-.435-.383-.3-.269-.631-.569-.973-.869a11.405,11.405,0,0,1,.973-.735c.145-.093.279-.186.435-.279a6.778,6.778,0,0,1,.6-.331,6.384,6.384,0,0,1,.963-.373,4.931,4.931,0,0,1,2.215-.135,5.409,5.409,0,0,1,.787.186c.01,0,.01-.031,0-.041" transform="translate(-229.103 -80.61)" fill="#fff"/>
  </g>
  <g id="Group_3822" data-name="Group 3822" transform="translate(0 37.414)">
    <path id="Path_42490" data-name="Path 42490" d="M63.8,386.434l.093-.838a2.352,2.352,0,0,0,.652.093c.538,0,.859-.259.859-1.128V380.7H66.46v2.939h.8v.838h-.8v.031a1.751,1.751,0,0,1-1.987,2.008A3.232,3.232,0,0,1,63.8,386.434Z" transform="translate(-63.8 -378.816)" fill="#fff"/>
    <path id="Path_42491" data-name="Path 42491" d="M96,409.1h.952v.838H96Z" transform="translate(-92.667 -404.277)" fill="#fff"/>
    <path id="Path_42492" data-name="Path 42492" d="M104.3,409.1h.952v.838H104.3Z" transform="translate(-100.108 -404.277)" fill="#fff"/>
    <path id="Path_42493" data-name="Path 42493" d="M112.7,409.1h.952v.838H112.7Z" transform="translate(-107.639 -404.277)" fill="#fff"/>
    <path id="Path_42494" data-name="Path 42494" d="M121.1,409.1h.952v.838H121.1Z" transform="translate(-115.17 -404.277)" fill="#fff"/>
    <path id="Path_42495" data-name="Path 42495" d="M129.5,409.1h.952v.838H129.5Z" transform="translate(-122.7 -404.277)" fill="#fff"/>
    <path id="Path_42496" data-name="Path 42496" d="M137.8,409.1h.952v.838H137.8Z" transform="translate(-130.141 -404.277)" fill="#fff"/>
    <path id="Path_42497" data-name="Path 42497" d="M146.2,383.639h1.511V380.7h1.056v3.767H146.2Zm.683,2.587a.528.528,0,0,1-.528-.549.533.533,0,1,1,1.066,0A.543.543,0,0,1,146.883,386.227Zm1.335,0a.528.528,0,0,1-.528-.549.535.535,0,0,1,.528-.549.528.528,0,0,1,.528.549A.541.541,0,0,1,148.218,386.227Z" transform="translate(-137.672 -378.816)" fill="#fff"/>
    <path id="Path_42498" data-name="Path 42498" d="M179.772,385.406l.062-.869a6.762,6.762,0,0,0,1.252.135c.838,0,1.387-.31,1.387-1.066v-.124h-.621c-1.563,0-2.153-.724-2.153-1.863a1.933,1.933,0,0,1,2.122-2.018,5.137,5.137,0,0,1,1.677.279v2.763h.8v.838h-.8v.021c0,1.107-.714,2.008-2.515,2.008A8.524,8.524,0,0,1,179.772,385.406Zm2.7-4.813a1.91,1.91,0,0,0-.766-.145.964.964,0,0,0-.952,1.087c0,.735.362,1.128,1.2,1.128h.517Z" transform="translate(-167.705 -377.83)" fill="#fff"/>
    <path id="Path_42499" data-name="Path 42499" d="M222.81,367.323h.983V362.5h1.056v2.091a6.812,6.812,0,0,1-.093,1.19h.01a2.254,2.254,0,0,1,2.06-1.49c1.107,0,1.625.735,1.625,1.946,0,.362-.01.735-.031,1.1h.735v.838H222.8v-.849Zm4.523,0c.021-.321.041-.693.041-.983,0-.756-.2-1.211-.766-1.211-.859,0-1.573,1.066-1.77,2.194Z" transform="translate(-206.344 -362.5)" fill="#fff"/>
    <path id="Path_42500" data-name="Path 42500" d="M283.11,368.847h1.118v-2.939h1.056v3.767H283.1v-.828Zm.3-4.1a.533.533,0,1,1,.528.549A.535.535,0,0,1,283.41,364.748Zm1.335,0a.535.535,0,0,1,.528-.548.528.528,0,0,1,.528.548.535.535,0,0,1-.528.549A.528.528,0,0,1,284.746,364.748Z" transform="translate(-260.403 -364.024)" fill="#fff"/>
    <path id="Path_42501" data-name="Path 42501" d="M330.445,384.909c0,.445.4.849,1.335.849l-.072.838c-1.573,0-2.308-.693-2.308-1.625,0-1.014.766-1.78,2.6-1.78h.548a6.043,6.043,0,0,0,.041-.611c0-1.014-.414-1.542-1.563-1.542a6.345,6.345,0,0,0-.921.062v-.828a7.836,7.836,0,0,1,1.025-.072c1.8,0,2.515.8,2.515,2.339q0,.295-.031.652h.631v.838h-2.267C330.766,384.029,330.445,384.423,330.445,384.909Zm1.532.321a.563.563,0,0,1,.559-.559.557.557,0,0,1,.559.559.559.559,0,0,1-1.118,0Z" transform="translate(-301.911 -378.368)" fill="#fff"/>
    <path id="Path_42502" data-name="Path 42502" d="M377.736,383.581c-.952,0-1.408-.228-1.656-.621a1.1,1.1,0,0,1-1.056.621H374.9v-.838h.166c.383,0,.6-.228.6-.963a1.935,1.935,0,0,1,2.049-2.08,1.68,1.68,0,0,1,1.853,1.915v1.966Zm.8-1.853c0-.838-.3-1.2-.89-1.2s-.931.466-.931,1.149c0,.7.3,1.056,1.128,1.056h.693Z" transform="translate(-342.702 -377.92)" fill="#fff"/>
    <path id="Path_42503" data-name="Path 42503" d="M431.9,362.5h1.056v4.823h.807v.838H431.9Z" transform="translate(-393.803 -362.5)" fill="#fff"/>
    <path id="Path_42504" data-name="Path 42504" d="M448.7,368.13h1.128V365.19h1.056v3.767H448.7Zm1.107-4.171a.559.559,0,1,1,.559.559A.55.55,0,0,1,449.807,363.959Z" transform="translate(-408.864 -363.307)" fill="#fff"/>
    <path id="Path_42505" data-name="Path 42505" d="M474.9,386.434l.093-.838a2.352,2.352,0,0,0,.652.093c.538,0,.859-.259.859-1.128V380.7h1.056v2.939h.8v.838h-.8v.031a1.751,1.751,0,0,1-1.987,2.008A3.232,3.232,0,0,1,474.9,386.434Z" transform="translate(-432.353 -378.816)" fill="#fff"/>
    <path id="Path_42506" data-name="Path 42506" d="M507,383.639h1.128V380.7h1.056v3.767H507Zm.507,2.039a.563.563,0,0,1,.559-.559.556.556,0,0,1,.559.559.559.559,0,0,1-1.118,0Z" transform="translate(-461.13 -378.816)" fill="#fff"/>
    <path id="Path_42507" data-name="Path 42507" d="M75.65,476.581c-2.184,0-2.95-.911-2.95-2.38a4.243,4.243,0,0,1,.207-1.263l1.128-.186a3.562,3.562,0,0,0-.269,1.325c0,1.128.486,1.666,1.987,1.666H76.3v-2.888a8.875,8.875,0,0,1,1.615-.155c1.408,0,1.853.673,1.853,1.77v1.273h.673v.838h-1.7v-1.987c0-.766-.228-1.056-.89-1.056a3.065,3.065,0,0,0-.528.052v2.991Zm-.859,1.749a.528.528,0,0,1-.528-.549.533.533,0,1,1,1.066,0A.55.55,0,0,1,74.791,478.33Zm1.325,0a.528.528,0,0,1-.528-.549.535.535,0,0,1,.528-.548.528.528,0,0,1,.528.548A.535.535,0,0,1,76.115,478.33Z" transform="translate(-71.779 -461.295)" fill="#fff"/>
    <path id="Path_42508" data-name="Path 42508" d="M146.31,460.423h.994V455.6h1.056v5.661H146.3v-.838Z" transform="translate(-137.762 -445.964)" fill="#fff"/>
    <path id="Path_42509" data-name="Path 42509" d="M179.5,455.5h1.056v4.823h.807v.838H179.5Z" transform="translate(-167.525 -445.875)" fill="#fff"/>
    <path id="Path_42510" data-name="Path 42510" d="M197.48,475.96a1.1,1.1,0,0,1-1.056.621H196.3v-.838h.166c.383,0,.6-.228.6-.963a1.935,1.935,0,0,1,2.049-2.08,1.68,1.68,0,0,1,1.853,1.915v1.128h.683v.838h-2.515C198.184,476.581,197.718,476.353,197.48,475.96Zm2.453-1.221c0-.838-.3-1.2-.89-1.2s-.931.466-.931,1.149c0,.7.3,1.056,1.128,1.056h.693Z" transform="translate(-182.587 -461.295)" fill="#fff"/>
    <path id="Path_42511" data-name="Path 42511" d="M246.61,460.423h.994V455.6h1.056v5.661H246.6v-.838Z" transform="translate(-227.681 -445.964)" fill="#fff"/>
    <path id="Path_42512" data-name="Path 42512" d="M279.7,455.5h1.066v5.661H279.71V455.5Z" transform="translate(-257.355 -445.875)" fill="#fff"/>
    <path id="Path_42513" data-name="Path 42513" d="M316.2,477.513a1.43,1.43,0,0,1,1.232-1.449,1.511,1.511,0,0,1-.911-1.449,1.879,1.879,0,0,1,2.142-1.915,4.156,4.156,0,0,1,.9.1l-.176.838a2.544,2.544,0,0,0-.745-.114.971.971,0,0,0-1.045,1.056c0,.631.455,1.159,1.542,1.159h.559v.838h-.983c-1.159,0-1.428.445-1.428.89,0,.486.414.838,1.294.838a7.221,7.221,0,0,0,1.2-.114l.052.818a8.3,8.3,0,0,1-1.376.124C316.873,479.148,316.2,478.465,316.2,477.513Z" transform="translate(-290.078 -461.295)" fill="#fff"/>
    <path id="Path_42514" data-name="Path 42514" d="M360.4,455.5h1.056v4.823h.807v.838H360.4Z" transform="translate(-329.703 -445.875)" fill="#fff"/>
    <path id="Path_42515" data-name="Path 42515" d="M377.11,460.423h.983V455.6h1.056v2.091a6.815,6.815,0,0,1-.093,1.19h.01a2.254,2.254,0,0,1,2.06-1.49c1.107,0,1.625.735,1.625,1.946,0,.362-.01.735-.031,1.1h.735v.838H377.1v-.849Zm4.533,0c.021-.321.041-.693.041-.983,0-.756-.2-1.211-.766-1.211-.859,0-1.573,1.066-1.77,2.194Z" transform="translate(-344.675 -445.964)" fill="#fff"/>
    <path id="Path_42516" data-name="Path 42516" d="M437.5,461.947h.341a3.233,3.233,0,0,1,.486.041,1.533,1.533,0,0,1-.373-1.087,1.935,1.935,0,0,1,2.039-2,1.687,1.687,0,0,1,1.873,1.873,1.645,1.645,0,0,1-.466,1.211s.342-.041.611-.041h.424v.838H437.5Zm1.232-4.1a.533.533,0,1,1,.528.549A.535.535,0,0,1,438.732,457.849Zm2.07,2.981c0-.7-.269-1.087-.88-1.087-.455,0-.911.321-.911,1.076s.3,1.128.89,1.128C440.408,461.947,440.8,461.574,440.8,460.829Zm-.735-2.981a.535.535,0,0,1,.528-.549.528.528,0,0,1,.528.549.535.535,0,0,1-.528.549A.528.528,0,0,1,440.067,457.849Z" transform="translate(-398.823 -447.488)" fill="#fff"/>
    <path id="Path_42517" data-name="Path 42517" d="M484,460.423h.994V455.6h1.056v5.661H484Z" transform="translate(-440.511 -445.964)" fill="#fff"/>
    <path id="Path_42518" data-name="Path 42518" d="M517.1,455.5h1.056v5.661H517.1Z" transform="translate(-470.185 -445.875)" fill="#fff"/>
  </g>
</svg>
