<svg xmlns="http://www.w3.org/2000/svg" width="30" height="25.714" viewBox="0 0 30 25.714"><g data-name="Group 3478" transform="translate(4829 -4671)"><path data-name="Path 42043" d="M23.036,85.947H21.964a.516.516,0,0,0-.536.536V91.84a2.686,2.686,0,0,1-2.678,2.678H4.821a2.58,2.58,0,0,1-1.892-.787,2.579,2.579,0,0,1-.787-1.892V77.911a2.579,2.579,0,0,1,.787-1.892,2.579,2.579,0,0,1,1.892-.787H16.607a.516.516,0,0,0,.536-.536V73.625a.515.515,0,0,0-.536-.535H4.821A4.645,4.645,0,0,0,1.414,74.5,4.644,4.644,0,0,0,0,77.911V91.84a4.643,4.643,0,0,0,1.414,3.406,4.645,4.645,0,0,0,3.407,1.415H18.75a4.83,4.83,0,0,0,4.822-4.821V86.483a.517.517,0,0,0-.536-.536Z" transform="translate(-4829 4600.053)"></path> <path data-name="Path 42044" d="M213.782,36.865a1.03,1.03,0,0,0-.753-.318h-8.571a1.065,1.065,0,0,0-.753,1.825l2.946,2.946L195.735,52.233a.526.526,0,0,0,0,.77l1.908,1.908a.527.527,0,0,0,.77,0L209.329,44l2.947,2.946a1.071,1.071,0,0,0,1.825-.753V37.618A1.03,1.03,0,0,0,213.782,36.865Z" transform="translate(-5013.101 4634.453)"></path></g></svg>