<svg id="surface1" xmlns="http://www.w3.org/2000/svg" xmlns:xlink="http://www.w3.org/1999/xlink" width="164.543" height="53.829" viewBox="0 0 164.543 53.829">
  <defs>
    <clipPath id="clip-path">
      <path id="Path_42222" data-name="Path 42222" d="M432,0h54.072V53.829H432Zm0,0" transform="translate(-432)" fill="#308d74"/>
    </clipPath>
  </defs>
  <path id="Path_42139" data-name="Path 42139" d="M141.524,45.377a4.581,4.581,0,0,1-.108,1c-.12.629-.228.944-.315.944-.049,0-.082-.131-.1-.391-.033-.553-.054-.868-.054-.934q-.2-2.033-1.042-6.846-.237-1.335-.629-3.994c-.13-.114-.185-.2-.163-.26.054-.158.147-.391.272-.705.1-.261.162-.391.184-.391a6.575,6.575,0,0,1,.651,1.259,4.564,4.564,0,0,1,.564,1.464c-.055.033-.169-.033-.337-.217-.049-.055-.174-.185-.38-.391q.375,2,1.107,6.39a26.3,26.3,0,0,1,.347,3.071" transform="translate(-103.537 -25.157)" fill="#fff"/>
  <path id="Path_42140" data-name="Path 42140" d="M47.532,68.909a2.234,2.234,0,0,1-.488,1.54,18.615,18.615,0,0,1-2.734,1.79,10.293,10.293,0,0,1-3.461,1.584c-.672,0-1.009-.418-1.009-1.259a5.95,5.95,0,0,1,.531-2.365c.174-.4.293-.607.359-.6.092,0,.043.255-.163.765a3.8,3.8,0,0,0-.3,1.372c0,.6.261.9.782.9a9.126,9.126,0,0,0,3.19-1.421A15.913,15.913,0,0,0,47.2,69.342c0-.266-.325-.575-.987-.933l-1.53-.759a6.4,6.4,0,0,1-2.116-1.758c-.032-.005-.081-.049-.141-.13,0-.033-.011-.228-.011-.586a2.032,2.032,0,0,1,.022-.564,2.491,2.491,0,0,1,.825.4c.46.282.683.445.661.5s-.163.076-.445.087a8.359,8.359,0,0,0,2.083,1.335,7.722,7.722,0,0,1,1.519.825,1.486,1.486,0,0,1,.456,1.15" transform="translate(-29.652 -48.088)" fill="#fff"/>
  <path id="Path_42141" data-name="Path 42141" d="M6.347,60.822c-.138.489-.356.738-.658.738a.422.422,0,0,1-.379-.188,1.689,1.689,0,0,1-.264-.91,5.009,5.009,0,0,1,.122-.956,9.674,9.674,0,0,1,.5-1.691c.092-.23.169-.344.222-.344.019.007.031.034.031.076a1.056,1.056,0,0,1-.081.329q-.148.454-.436,1.71a1.708,1.708,0,0,0,.061,1.064.391.391,0,0,0,.36.252.3.3,0,0,0,.237-.11c.039-.054.1-.138.173-.253.038-.092.069-.138.092-.138.092,0,.1.138.019.421m9.462-2.689a1.5,1.5,0,0,1-.12.569c-.076.2-.141.3-.195.3-.027,0-.12-.1-.277-.309s-.288-.311-.407-.311c-.326,0-.836.332-1.53,1s-1.042,1.178-1.042,1.525c0,.162.169.331.51.5a2.215,2.215,0,0,0,.846.261,4.432,4.432,0,0,1,1.551.337.731.731,0,0,1,.381.661,2.158,2.158,0,0,1-.435,1.4,7.724,7.724,0,0,1-2.756,1.856,9.593,9.593,0,0,1-3.885,1.031,2.894,2.894,0,0,1-2.918-1.888,4.175,4.175,0,0,1-.087-2.528,7.349,7.349,0,0,1,.574-1.617c.174-.347.283-.509.337-.487s.027.206-.1.564a6.384,6.384,0,0,0-.445,1.974,2.733,2.733,0,0,0,.694,1.921,2.965,2.965,0,0,0,2.311.879,8.046,8.046,0,0,0,2.864-.618,14.391,14.391,0,0,0,2.344-1.161c.65-.392.976-.619.976-.7,0-.2-.293-.337-.879-.4-1.605-.179-2.408-.629-2.408-1.345a4.629,4.629,0,0,1,1.259-2.811c.808-.988,1.5-1.486,2.072-1.486a.68.68,0,0,1,.532.266.9.9,0,0,1,.228.613m-3.392,9.582-.542.977-1.107-.65-.456.813-1.129-.661.542-.977,1.107.651.456-.814,1.129.661" transform="translate(-3.756 -42.613)" fill="#fff"/>
  <path id="Path_42142" data-name="Path 42142" d="M63.349,44.414c-.348-.021-.521-.108-.521-.249a.241.241,0,0,1,.136-.185.444.444,0,0,1,.223-.087,1.209,1.209,0,0,1,.792.51,3.972,3.972,0,0,1-.629.01M77.886,39.74q-.473-2.564-.912-5.11l.38.38c.185.174.294.245.337.218a.069.069,0,0,0,.022-.044,10.256,10.256,0,0,0-.575-1.42,4.617,4.617,0,0,0-.65-1.271c-.033,0-.1.136-.2.4-.12.316-.206.553-.272.716-.032.06.033.141.185.239q.382,2.67.6,4a62.192,62.192,0,0,1,1,6.847c0,.087-.125.2-.375.331a1.406,1.406,0,0,1-.64.2,1.367,1.367,0,0,1-.158-.009,1.385,1.385,0,0,1-.638-.241.813.813,0,0,1-.284-.266.687.687,0,0,1-.1-.4q.007-.1.009-.168a.568.568,0,0,0-.009-.19c-.076-.033-.195.108-.358.4-.087.2-.185.391-.282.575a.76.76,0,0,1-.716.315q-.584-.021-.669-.411a5.751,5.751,0,0,0,.089-.581c.025-.1.02-.16-.017-.169-.076-.017-.184.092-.337.315s-.266.383-.371.513a1.422,1.422,0,0,1-.117.1,2.123,2.123,0,0,1-1.077.538c-.052,0-.1.006-.158.007h-.02a1.144,1.144,0,0,1-.25-.037.632.632,0,0,1-.535-.7,2.671,2.671,0,0,1,.043-.423c.016-.1,0-.163-.043-.174s-.136.033-.25.13q-.238.249-.406.421l-.182.187c-.076.069-.153.138-.232.2-.059.049-.118.1-.18.142a3.068,3.068,0,0,1-.323.215.918.918,0,0,1-.227.093,2.67,2.67,0,0,1-.641.09,2.024,2.024,0,0,1-.381-.029.529.529,0,0,1-.433-.469,1.463,1.463,0,0,1,.041-.45c.052-.217.086-.443.148-.658a1.871,1.871,0,0,1,.111-.3,4.919,4.919,0,0,1,.676-.3,8.909,8.909,0,0,0,.834-.342,2.421,2.421,0,0,0,.539-.315A.585.585,0,0,0,70,42.7a2.257,2.257,0,0,0,.3-.73c-.556.187-1.071.476-1.629.658a5.581,5.581,0,0,1-.781.256l-.015,0a1.7,1.7,0,0,1-.969-.038,2.688,2.688,0,0,1-1.5-1.266c-.04-.065-.078-.131-.115-.2-.085-.2-.226-.485.006-.636a5.082,5.082,0,0,1,2.264-.524,12.091,12.091,0,0,1,1.563.174,3.274,3.274,0,0,0-1.884-.892,2.336,2.336,0,0,0-1.889.478,2.018,2.018,0,0,0-.68,1.37.877.877,0,0,0,.008.245,3.391,3.391,0,0,0,.184.665,2.947,2.947,0,0,0,.179.377,2.545,2.545,0,0,0,.448.584c.185.157.385.295.573.448a9.67,9.67,0,0,1-1.181.494,3.77,3.77,0,0,0-.276-.475,1.606,1.606,0,0,0-1.129-.836,1.12,1.12,0,0,0-.977.575,1.891,1.891,0,0,0-.38,1.1q0,.944,1.172.944a4,4,0,0,0,1.314-.174.816.816,0,0,1,.141.477c0,.293-.52.825-1.562,1.606a5.233,5.233,0,0,1-2.908,1.28,1.66,1.66,0,0,1-1.33-.564,2.071,2.071,0,0,1-.482-1.4,4.507,4.507,0,0,1,.12-1c.079-.336.118-.5.119-.5,0-.033-.011-.05-.022-.055-.087-.021-.206.212-.347.694a5.228,5.228,0,0,0-.239,1.541,2.673,2.673,0,0,0,.5,1.692,1.866,1.866,0,0,0,1.573.705A4.649,4.649,0,0,0,62.752,48.7,7.77,7.77,0,0,0,64.7,46.8a2.958,2.958,0,0,0,.4-1.632,8.968,8.968,0,0,0,2.413-1.18A4.022,4.022,0,0,0,67.261,46a.95.95,0,0,0,.581.673,1.98,1.98,0,0,0,1.3-.152,1.308,1.308,0,0,0,.288-.168,2.685,2.685,0,0,0,.876-.864c0,.775.358,1.161,1.063,1.161a2.065,2.065,0,0,0,1.758-1.226.81.81,0,0,0,.179.634.736.736,0,0,0,.345.243.72.72,0,0,0,.225.034c.6,0,1.031-.385,1.314-1.15.016,0,.053.074.106.212a.008.008,0,0,1,0,0,1.842,1.842,0,0,0,.228.4,1.208,1.208,0,0,0,.979.487h.026a1.583,1.583,0,0,0,1.609-1.356,6.188,6.188,0,0,0,.218-1.486,28.51,28.51,0,0,0-.466-3.711" transform="translate(-43.241 -24.183)" fill="#fff"/>
  <path id="Path_42143" data-name="Path 42143" d="M61.9,49.842c-.09.321-.233.482-.43.482a.277.277,0,0,1-.248-.123,1.1,1.1,0,0,1-.173-.594,3.285,3.285,0,0,1,.08-.625,6.283,6.283,0,0,1,.328-1.1c.06-.15.11-.225.145-.225.013,0,.02.022.02.05a.7.7,0,0,1-.052.215q-.1.3-.286,1.118a1.118,1.118,0,0,0,.04.7.257.257,0,0,0,.236.165.2.2,0,0,0,.155-.073c.025-.035.062-.09.113-.165.024-.06.045-.09.059-.09.061,0,.068.09.013.275" transform="translate(-45.436 -35.467)" fill="#fff"/>
  <path id="Path_42144" data-name="Path 42144" d="M46.276,100.074c.02.032.008.1-.04.208a.431.431,0,0,1-.107.167q-1.01.376-2.024.753a14.379,14.379,0,0,0-1.861.817.45.45,0,0,1,0-.248.353.353,0,0,1,.084-.195,38.147,38.147,0,0,1,3.948-1.5" transform="translate(-31.43 -74.483)" fill="#fff"/>
  <path id="Path_42145" data-name="Path 42145" d="M81.626,40.826a.567.567,0,0,1-.07.182c-.046.089-.073.135-.085.135a1.788,1.788,0,0,1-.433-.131,5.2,5.2,0,0,1-1.862,1.49q-.115.058-.59.243a2.214,2.214,0,0,1-.505.167,2.1,2.1,0,0,1,.493-.317,8.724,8.724,0,0,0,2.356-1.63c-.348-.158-.525-.347-.525-.571a.814.814,0,0,1,.224-.464.593.593,0,0,1,.426-.278c.169,0,.255.189.255.571a1.265,1.265,0,0,1-.078.441c.263.085.395.139.395.162m-.525-.208c.085-.36.031-.541-.17-.541-.178,0-.271.074-.271.224,0,.109.147.213.441.318" transform="translate(-58.114 -29.512)" fill="#fff"/>
  <path id="Path_42146" data-name="Path 42146" d="M112.716,47.675a.545.545,0,0,1-.069.181c-.046.089-.074.136-.085.136a1.8,1.8,0,0,1-.433-.132,5.2,5.2,0,0,1-1.862,1.491q-.115.057-.59.243a2.216,2.216,0,0,1-.506.166,2.184,2.184,0,0,1,.494-.316,8.715,8.715,0,0,0,2.355-1.63c-.347-.159-.524-.348-.524-.571a.8.8,0,0,1,.224-.463.592.592,0,0,1,.425-.279c.17,0,.256.19.256.572a1.26,1.26,0,0,1-.078.44c.263.085.394.14.394.163m-.524-.209c.085-.36.031-.541-.171-.541-.177,0-.27.074-.27.225,0,.108.147.212.441.317" transform="translate(-81.254 -34.609)" fill="#fff"/>
  <path id="Path_42147" data-name="Path 42147" d="M108.613,93.2c0,.278-.1.421-.308.421a.3.3,0,0,1-.212-.085c-.03-.024-.061-.018-.088.024a.476.476,0,0,1-.421.224.3.3,0,0,1-.184-.051.635.635,0,0,0-.607.012,3.518,3.518,0,0,0-.544.435c-.148.121-.293.245-.436.369a3.636,3.636,0,0,1-.84.472,1.889,1.889,0,0,1-.532.16c-.023,0-.039-.006-.039-.024a.411.411,0,0,1,.139-.073,4.222,4.222,0,0,0,.505-.224,4.658,4.658,0,0,0,1.042-.791,2.689,2.689,0,0,1,.792-.62.478.478,0,0,1,.508-.024.338.338,0,0,0,.209.073.417.417,0,0,0,.423-.3c.039-.121.088-.185.148-.185.016,0,.022.019.013.061-.025.091-.031.142-.013.161a.212.212,0,0,0,.249.063c.072-.015.082-.049.024-.1-.043-.024-.052-.061-.024-.112.048-.115.078-.172.1-.172.066,0,.1.093.1.284" transform="translate(-77.705 -69.157)" fill="#fff"/>
  <path id="Path_42148" data-name="Path 42148" d="M26.282,49.34a1.661,1.661,0,0,1-.272.972.716.716,0,0,1-.552.39.358.358,0,0,1-.288-.134,1.222,1.222,0,0,1-.774.448c-.326,0-.493-.192-.493-.575a1.938,1.938,0,0,1,.168-.639c.109-.288.2-.435.277-.435.059,0,.087.058.07.179-.032.263-.049.4-.049.4,0,.083.066.128.2.128a.68.68,0,0,0,.536-.314c.163-.2.239-.313.223-.313.07,0,.119.051.141.16s.054.153.1.153a.465.465,0,0,0,.418-.313,1.29,1.29,0,0,1,.179-.314c.076,0,.114.071.114.211" transform="translate(-17.79 -36.566)" fill="#fff"/>
  <path id="Path_42149" data-name="Path 42149" d="M115.9,61.138a1.667,1.667,0,0,1-.271.971.716.716,0,0,1-.552.39.357.357,0,0,1-.288-.134,1.224,1.224,0,0,1-.775.448c-.325,0-.492-.192-.492-.575a1.938,1.938,0,0,1,.168-.639c.108-.288.2-.435.277-.435.059,0,.086.058.07.179-.032.262-.049.4-.049.4,0,.083.065.128.2.128a.68.68,0,0,0,.536-.314c.163-.2.239-.314.222-.314.071,0,.12.052.142.16s.054.154.1.154a.467.467,0,0,0,.418-.314,1.254,1.254,0,0,1,.179-.313c.075,0,.113.071.113.212" transform="translate(-84.49 -45.346)" fill="#fff"/>
  <path id="Path_42150" data-name="Path 42150" d="M89.227,92.437a1.615,1.615,0,0,1-1.342.67c-.388-.009-.584-.163-.584-.46a1.7,1.7,0,0,1,.177-.609,1.568,1.568,0,0,1,.376-.572.662.662,0,0,1-.324-.475.929.929,0,0,1,.249-.5c.166-.209.32-.316.461-.316.119,0,.178.088.178.265a.64.64,0,0,1-.052.215c-.031.083-.063.13-.095.13a.129.129,0,0,1-.047-.075.132.132,0,0,0-.13-.116.342.342,0,0,0-.162.079c-.075.047-.115.1-.115.149,0,.163.15.247.453.247a.571.571,0,0,0,.293-.167c.087-.089.154-.131.209-.117.032,0,.028.1-.015.307a.39.39,0,0,1-.162.15,2.008,2.008,0,0,0-.647.515c-.269.266-.4.461-.4.591,0,.186.181.284.548.284a2.356,2.356,0,0,0,1.05-.3c.063-.023.106-.032.13-.018s.008.065-.047.13" transform="translate(-64.976 -67.113)" fill="#fff"/>
  <path id="Path_42151" data-name="Path 42151" d="M293.3,41.8a4.565,4.565,0,0,1-.108,1c-.12.629-.228.944-.316.944-.048,0-.081-.13-.1-.391-.033-.553-.055-.868-.055-.933q-.2-2.035-1.041-6.847-.237-1.335-.629-3.993c-.131-.114-.185-.2-.163-.26.054-.158.147-.392.272-.706.1-.26.162-.391.184-.391A6.578,6.578,0,0,1,292,31.477a4.556,4.556,0,0,1,.564,1.465c-.055.032-.169-.033-.337-.218-.049-.054-.174-.184-.38-.391q.375,2,1.107,6.391A26.27,26.27,0,0,1,293.3,41.8" transform="translate(-216.499 -22.491)" fill="#fff"/>
  <path id="Path_42152" data-name="Path 42152" d="M254.346,44.109a1.123,1.123,0,0,1-.857-.531,1.293,1.293,0,0,1,.651-.022.627.627,0,0,1,.314.174.415.415,0,0,1,.163.261c0,.081-.092.119-.271.119m-.359-1.714a2.709,2.709,0,0,0-.981.245,14.428,14.428,0,0,1-.518-2.166q-.578-4.524-.825-7.237c.2.207.315.327.358.37.164.195.272.277.337.249V33.79a11.609,11.609,0,0,0-.476-1.4c-.321-.846-.521-1.27-.6-1.27-.033,0-.1.136-.195.4-.087.163-.2.392-.337.684-.017.065.043.157.163.271a70.7,70.7,0,0,0,.857,8.181,15.463,15.463,0,0,0,.5,2.269c0,.011.006.021.009.032a5.881,5.881,0,0,1-1.844.639.386.386,0,0,0-.078.01,1.129,1.129,0,0,1-.658-.284,1.111,1.111,0,0,1-.239-.359c-.087-.173-.152-.26-.185-.26s-.076.163-.13.488a5.242,5.242,0,0,0-.087.574,3.862,3.862,0,0,1,.391.721,3.074,3.074,0,0,1,.391,1.254c0,.212-.574.705-1.714,1.475a5.128,5.128,0,0,1-2.734,1.042,1.6,1.6,0,0,1-1.845-1.78,4.371,4.371,0,0,1,.228-1.269,3.5,3.5,0,0,0,.152-.618c-.076-.043-.163.021-.271.195a5.055,5.055,0,0,0-.531,2.408q0,2.174,2.05,2.171a5.4,5.4,0,0,0,2.615-.933,5.835,5.835,0,0,0,2.073-1.823,2.559,2.559,0,0,0,.277-.928,3.564,3.564,0,0,0,.049-1,3.623,3.623,0,0,0,1.344-.314c.363-.174.726-.348,1.085-.521.493.89,1.02,1.335,1.573,1.335.618,0,.922-.558.922-1.67a.993.993,0,0,0-1.129-1.118" transform="translate(-180.956 -23.163)" fill="#fff"/>
  <path id="Path_42153" data-name="Path 42153" d="M184.1,62.545l-1.129-.662-.542.977,1.129.661Zm0,0" transform="translate(-135.779 -46.058)" fill="#fff"/>
  <path id="Path_42154" data-name="Path 42154" d="M188.009,55.965a2.907,2.907,0,0,0-.977-.618,7.3,7.3,0,0,0-3.093-.108q-3.124.325-4.687.531a16.913,16.913,0,0,1-3.624.043c-.884-.119-1.324-.315-1.324-.6s.445-.716,1.324-1.335a7.47,7.47,0,0,1,3.689-1.627.3.3,0,0,1,.25.087,1.439,1.439,0,0,0,.2.228c.065,0,.141-.125.217-.37a1.973,1.973,0,0,0,.119-.563c0-.3-.119-.446-.358-.446a7.279,7.279,0,0,0-3.711,1.6c-1.573,1.085-2.354,2.116-2.354,3.093,0,.52.509.84,1.519.955a19.423,19.423,0,0,0,4.242-.131q3.352-.382,4.622-.509a6.308,6.308,0,0,1,2.192.086,2.281,2.281,0,0,1,1.627,1.227q-3.093.6-6.878,1.042a54.178,54.178,0,0,1-6.054.445l-.015,0-.014,0q-4.452,0-5.534-1.823c-.1-.168-.168-.25-.195-.25s-.087.191-.169.569a2.744,2.744,0,0,0-.1.613,3.765,3.765,0,0,1,.933,2,.425.425,0,0,1-.13.315,8.547,8.547,0,0,1-1.823,1.335,6.129,6.129,0,0,1-2.843,1,1.593,1.593,0,0,1-1.822-1.779,5.044,5.044,0,0,1,.195-1.27,3.435,3.435,0,0,0,.163-.64c-.082-.033-.163.043-.25.217a4.944,4.944,0,0,0-.553,2.409q0,2.173,2.062,2.17a6.123,6.123,0,0,0,3.2-1.237A5.3,5.3,0,0,0,170,60.794a3.249,3.249,0,0,0,.271-1.357,11.084,11.084,0,0,0,4.394.618h.007a64.847,64.847,0,0,0,7.607-.683q4.329-.61,5.088-.8c.211-.044.412-.088.6-.131.044,0,.163-.206.358-.613a3.839,3.839,0,0,0,.294-.7,1.543,1.543,0,0,0-.607-1.162" transform="translate(-121.158 -38.101)" fill="#fff"/>
  <path id="Path_42155" data-name="Path 42155" d="M153.679,95.873l-.543.976L152.03,96.2l-.456.814-1.128-.662.542-.976,1.107.651.456-.814" transform="translate(-111.973 -70.864)" fill="#fff"/>
  <path id="Path_42156" data-name="Path 42156" d="M150.026,57.172a1.528,1.528,0,0,1-.119.57c-.076.195-.142.3-.2.3-.027,0-.119-.1-.277-.31s-.288-.309-.407-.309c-.326,0-.836.331-1.53,1s-1.041,1.177-1.041,1.524c0,.163.168.331.509.5a2.238,2.238,0,0,0,.846.261,4.456,4.456,0,0,1,1.552.337.73.73,0,0,1,.38.661,2.157,2.157,0,0,1-.435,1.4,7.737,7.737,0,0,1-2.756,1.855,9.593,9.593,0,0,1-3.884,1.031,2.9,2.9,0,0,1-2.919-1.888,4.183,4.183,0,0,1-.087-2.528,7.352,7.352,0,0,1,.575-1.617c.174-.347.282-.509.336-.487s.028.206-.1.564a6.384,6.384,0,0,0-.445,1.974,2.733,2.733,0,0,0,.694,1.921,2.959,2.959,0,0,0,2.31.879,8.055,8.055,0,0,0,2.865-.618,14.191,14.191,0,0,0,2.343-1.162c.651-.391.976-.618.976-.694,0-.2-.293-.336-.878-.4q-2.409-.268-2.409-1.346a4.634,4.634,0,0,1,1.259-2.81c.809-.987,1.5-1.486,2.073-1.486a.678.678,0,0,1,.531.267.9.9,0,0,1,.228.612" transform="translate(-103.838 -41.898)" fill="#fff"/>
  <path id="Path_42157" data-name="Path 42157" d="M238.318,45.312a1.212,1.212,0,0,1-.1.291c-.068.159-.124.247-.168.259q-2.922.98-4.637,1.585-3.251,1.136-4.653,1.761a.675.675,0,0,1,.123-.355.8.8,0,0,1,.22-.251q4.016-1.68,9.218-3.29" transform="translate(-170.26 -33.725)" fill="#fff"/>
  <path id="Path_42158" data-name="Path 42158" d="M191.334,92.508c.019.032.007.1-.04.208a.441.441,0,0,1-.108.167q-1.01.376-2.024.753a14.461,14.461,0,0,0-1.86.816.436.436,0,0,1,0-.247.351.351,0,0,1,.083-.195,38.076,38.076,0,0,1,3.949-1.5" transform="translate(-139.393 -68.852)" fill="#fff"/>
  <path id="Path_42159" data-name="Path 42159" d="M275.046,90.528c0,.293-.051.441-.159.441a1.142,1.142,0,0,1-.772-.3,1.091,1.091,0,0,1-.217.476,4.573,4.573,0,0,1-1.32.706c-.61.276-.974.427-1.09.462-.494.1-.924.181-1.285.231h-.08c-.018-.007-.025-.017-.014-.028s.022-.033.072-.044c.13-.036.469-.166,1.025-.383q.943-.367,1.372-.562a4.977,4.977,0,0,0,1.3-.693.789.789,0,0,0,.194-.267,1.261,1.261,0,0,1,.235-.423c.116-.152.217-.228.3-.228a.383.383,0,0,1,.3.2.688.688,0,0,1,.141.408m-.253.087c0-.217-.076-.325-.231-.325-.13,0-.195.043-.195.13,0,.018.05.054.155.1a.879.879,0,0,0,.271.091" transform="translate(-201.033 -66.927)" fill="#fff"/>
  <path id="Path_42160" data-name="Path 42160" d="M159.4,39.795a.528.528,0,0,1-.07.182c-.046.089-.073.135-.085.135a1.77,1.77,0,0,1-.433-.131,5.208,5.208,0,0,1-1.861,1.491q-.117.057-.591.243a2.236,2.236,0,0,1-.505.166,2.127,2.127,0,0,1,.494-.317,8.757,8.757,0,0,0,2.355-1.629c-.348-.159-.525-.348-.525-.572a.805.805,0,0,1,.225-.462.588.588,0,0,1,.425-.279c.17,0,.255.189.255.571a1.242,1.242,0,0,1-.078.441c.263.085.395.139.395.162m-.525-.208c.085-.36.031-.541-.17-.541-.178,0-.271.074-.271.225,0,.108.147.212.441.317" transform="translate(-115.999 -28.745)" fill="#fff"/>
  <path id="Path_42161" data-name="Path 42161" d="M162.27,50.488a1.661,1.661,0,0,1-.272.972.719.719,0,0,1-.552.39.356.356,0,0,1-.288-.135,1.22,1.22,0,0,1-.774.448c-.326,0-.493-.192-.493-.575a1.939,1.939,0,0,1,.168-.638c.109-.288.2-.435.277-.435.059,0,.087.057.07.179-.032.262-.048.4-.048.4,0,.084.065.128.2.128a.678.678,0,0,0,.536-.313c.163-.2.239-.314.223-.314.07,0,.119.052.141.16s.054.154.1.154a.465.465,0,0,0,.418-.314,1.293,1.293,0,0,1,.179-.313c.076,0,.114.07.114.211" transform="translate(-119.003 -37.42)" fill="#fff"/>
  <path id="Path_42162" data-name="Path 42162" d="M203.714,38.43c.038.044.038.154,0,.335s-.065.27-.117.27c0,0-.037-.055-.116-.176s-.154-.182-.248-.182c-.177,0-.3.391-.383,1.183s-.144,1.177-.21,1.161c-.075,0-.154-.171-.247-.522a2.081,2.081,0,0,0-.518-1.012.281.281,0,0,1-.056.088c-.037.016-.14-.028-.317-.143s-.262-.215-.276-.3c-.037-.408.024-.61.192-.61.3-.011.629.369.975,1.149a4.173,4.173,0,0,0,.21.561c.037-.375.088-.748.154-1.128.1-.687.261-1.028.475-1.012.164,0,.322.11.48.342" transform="translate(-149.762 -28.348)" fill="#fff"/>
  <path id="Path_42163" data-name="Path 42163" d="M230.768,89.819c.037.044.037.154,0,.336s-.065.27-.117.27l-.117-.177c-.074-.121-.154-.181-.247-.181-.177,0-.3.391-.383,1.182s-.145,1.178-.21,1.161c-.075,0-.154-.17-.248-.522a2.077,2.077,0,0,0-.517-1.012.271.271,0,0,1-.056.088c-.037.017-.14-.027-.317-.143s-.262-.215-.276-.3c-.037-.407.023-.61.192-.61.3-.011.629.369.974,1.15a4.179,4.179,0,0,0,.211.56c.037-.374.088-.747.154-1.127.1-.688.261-1.029.475-1.012.164,0,.322.11.48.341" transform="translate(-169.898 -66.597)" fill="#fff"/>
  <path id="Path_42164" data-name="Path 42164" d="M269.39,57.288c0,.6-.268.909-.81.909-.268,0-.4-.165-.4-.5a1.922,1.922,0,0,1,.368-1.1c.061-.208.113-.312.151-.312s.047.024.018.081a.594.594,0,0,0-.056.231q.734.438.734.691m-.231.193q0-.034-.282-.24a2.5,2.5,0,0,0-.3-.2c-.023,0-.061.062-.107.193a1.036,1.036,0,0,0-.067.269.187.187,0,0,0,.212.212,1.071,1.071,0,0,0,.316-.085c.151-.056.226-.108.226-.146" transform="translate(-199.598 -41.892)" fill="#fff"/>
  <path id="Path_42165" data-name="Path 42165" d="M396.544,51.221a4.58,4.58,0,0,1-.109,1c-.119.629-.228.944-.315.944-.049,0-.081-.13-.1-.391-.032-.553-.054-.868-.054-.933q-.2-2.035-1.042-6.847Q394.692,43.66,394.3,41c-.13-.114-.185-.2-.163-.261.055-.158.147-.391.272-.705.1-.261.163-.391.185-.391a6.691,6.691,0,0,1,.65,1.259c.434.933.624,1.421.564,1.465s-.168-.033-.336-.218c-.049-.054-.175-.184-.381-.391q.375,2,1.107,6.391a26.372,26.372,0,0,1,.348,3.07" transform="translate(-293.343 -29.507)" fill="#fff"/>
  <path id="Path_42166" data-name="Path 42166" d="M338.945,66.739l-1.129-.661-.542.976,1.129.662Zm0,0" transform="translate(-251.026 -49.181)" fill="#fff"/>
  <path id="Path_42167" data-name="Path 42167" d="M371.906,89.331l1.129.662.542-.977-1.128-.661Zm0,0" transform="translate(-276.802 -65.761)" fill="#fff"/>
  <path id="Path_42168" data-name="Path 42168" d="M317.515,41.171q-.327-1.976-.683-3.96c.211.212.336.347.38.4.162.186.271.256.336.229V37.8a9.332,9.332,0,0,0-.563-1.422,5.275,5.275,0,0,0-.64-1.269c-.033,0-.12.179-.272.531-.1.272-.168.456-.195.553-.017.06.038.152.152.271.239,1.66.434,2.865.574,3.624q.571,3.271.673,4.644a.813.813,0,0,1-.445.727,1.631,1.631,0,0,1-.866.27.13.13,0,0,0-.049-.01,1.028,1.028,0,0,1-.814-.337,1.13,1.13,0,0,1-.163-.889c.016-.13-.016-.2-.087-.2a1.311,1.311,0,0,0-.38.2,8.321,8.321,0,0,1-2.408.889,11.284,11.284,0,0,1-2.615.337q-2.489,0-3.114-.791a.832.832,0,0,1-.195-.858c.038-.1.011-.141-.065-.141-.125,0-.326.228-.607.684-.412.683-.868,1.02-1.357,1.02a.41.41,0,0,0-.052.006,1.024,1.024,0,0,1-.778-.473,6.738,6.738,0,0,1-.618-2.225q-.358-2.294-.553-3.417-.619-4.117-1.064-5.783c-.141-.553-.228-.825-.271-.825a2.9,2.9,0,0,0-.158.591,5.275,5.275,0,0,0-.136.7c0-.043.272,1.492.8,4.6s.8,4.926.8,5.447a.976.976,0,0,1-.488.867,13.2,13.2,0,0,1-2.625,1.237,9.832,9.832,0,0,1-3.309.7,3,3,0,0,1-2.035-.645,2.124,2.124,0,0,1-.743-1.688,4.837,4.837,0,0,1,.152-.954c.1-.342.109-.52.044-.531-.076-.055-.169.059-.283.325a4.57,4.57,0,0,0-.422,1.845,2.665,2.665,0,0,0,.781,2.008,3.19,3.19,0,0,0,2.354.813,10.085,10.085,0,0,0,3.221-.705,12.2,12.2,0,0,0,2.865-1.443,2,2,0,0,0,.727-1.421c.234,1.264.723,1.941,1.463,2.046a.114.114,0,0,0,.061.017c.025,0,.049,0,.073,0s.049,0,.074,0a.36.36,0,0,0,.12-.021,1.591,1.591,0,0,0,1.155-.825,6.377,6.377,0,0,1,.4-.628q.489,1.561,3.514,1.562h0a11.249,11.249,0,0,0,3.048-.488,8.238,8.238,0,0,0,2.311-.944q.121,1.431,1.107,1.432a.42.42,0,0,0,.1-.014,1.877,1.877,0,0,0,1.56-.909,3.541,3.541,0,0,0,.51-2,17,17,0,0,0-.315-2.713" transform="translate(-217.612 -24.497)" fill="#fff"/>
  <path id="Path_42169" data-name="Path 42169" d="M305.2,65.7a4.085,4.085,0,0,0,1.583-.234,2.955,2.955,0,0,0,.651-.7,1.912,1.912,0,0,0,.444-1.042c0-.282-.222-.424-.666-.424s-.667-.043-.667-.13c0-.3.228-.482.672-.553.044-.016.119-.152.223-.413a1.72,1.72,0,0,0,.157-.52c0-.044-.032-.065-.1-.065-.234,0-.559.288-.972.851a2.609,2.609,0,0,0-.623,1.405q0,.569,1.27.586a2,2,0,0,1-.868.6c-.37.147-.749.3-1.14.466-.12.043-.174.082-.174.109,0,.06.071.076.207.065" transform="translate(-227 -45.863)" fill="#fff"/>
  <path id="Path_42170" data-name="Path 42170" d="M317.975,50.463c-.09.321-.233.482-.431.482a.279.279,0,0,1-.248-.122,1.105,1.105,0,0,1-.172-.6,3.279,3.279,0,0,1,.08-.625,6.288,6.288,0,0,1,.328-1.1c.06-.15.11-.225.145-.225.013,0,.02.022.02.05a.687.687,0,0,1-.053.216q-.1.3-.285,1.117a1.118,1.118,0,0,0,.04.7.256.256,0,0,0,.235.165.2.2,0,0,0,.155-.073c.026-.035.063-.09.113-.165q.037-.09.06-.09c.06,0,.068.09.013.275" transform="translate(-236.03 -35.929)" fill="#fff"/>
  <path id="Path_42171" data-name="Path 42171" d="M366.663,71.471c-.09.321-.233.482-.43.482a.276.276,0,0,1-.247-.122,1.1,1.1,0,0,1-.173-.6,3.261,3.261,0,0,1,.08-.624,6.269,6.269,0,0,1,.328-1.106c.06-.15.11-.225.145-.225.013,0,.02.022.02.05a.7.7,0,0,1-.052.215q-.1.3-.286,1.118a1.119,1.119,0,0,0,.04.7.256.256,0,0,0,.236.165.2.2,0,0,0,.155-.073c.025-.035.062-.09.112-.165.025-.06.046-.09.061-.09.06,0,.067.09.012.275" transform="translate(-272.267 -51.565)" fill="#fff"/>
  <path id="Path_42172" data-name="Path 42172" d="M357.753,60.023a1.2,1.2,0,0,1-.1.291c-.068.16-.124.248-.168.259q-2.922.98-4.637,1.586-3.251,1.136-4.654,1.76a.674.674,0,0,1,.124-.354.8.8,0,0,1,.219-.252q4.017-1.678,9.219-3.29" transform="translate(-259.152 -44.674)" fill="#fff"/>
  <path id="Path_42173" data-name="Path 42173" d="M308.54,42.514a.555.555,0,0,1-.069.182c-.047.089-.074.135-.086.135a1.815,1.815,0,0,1-.433-.131,5.208,5.208,0,0,1-1.861,1.49q-.117.058-.591.244A2.236,2.236,0,0,1,305,44.6a2.1,2.1,0,0,1,.494-.317,8.758,8.758,0,0,0,2.355-1.629c-.348-.159-.525-.348-.525-.572a.813.813,0,0,1,.225-.463.59.59,0,0,1,.425-.278c.17,0,.255.189.255.571a1.265,1.265,0,0,1-.077.441c.262.085.394.139.394.162m-.525-.208c.085-.36.031-.541-.17-.541-.178,0-.27.074-.27.225,0,.108.146.212.44.317" transform="translate(-227.002 -30.768)" fill="#fff"/>
  <path id="Path_42174" data-name="Path 42174" d="M359.191,41.7c.025.029.025.129,0,.3-.016.067-.044.07-.088,0a.252.252,0,0,0-.22-.155c-.128,0-.194.088-.194.273-.016.333-.031.727-.05,1.182.041,0,.125.063.251.189a.827.827,0,0,1,.2.247.412.412,0,0,1-.031.2c-.028.078-.05.118-.069.118a1.718,1.718,0,0,0-.56.166c-.194.089-.289.178-.279.263.317,1.809.475,2.8.475,2.961,0,.122-.012.185-.037.185s-.028-.041-.038-.1c-.056-.4-.157-.982-.294-1.736a8.737,8.737,0,0,1-.207-1.255.864.864,0,0,1,.194-.561.644.644,0,0,1,.395-.259.279.279,0,0,0-.188-.059c-.054,0-.1.041-.132.122s-.056.122-.075.122-.013-.022-.013-.074a.761.761,0,0,1,.076-.317c.056-.141.125-.215.206-.215a1.444,1.444,0,0,0-.156-.392,1.132,1.132,0,0,0-.282-.428c-.016.081-.032.125-.051.125a.751.751,0,0,1-.257-.151c-.138-.1-.206-.17-.206-.211,0-.274.037-.414.119-.414a.656.656,0,0,1,.432.259,2.508,2.508,0,0,1,.452.79v-.015c0-.163,0-.429.012-.805q.048-.575.282-.575a.47.47,0,0,1,.333.214" transform="translate(-266.127 -30.879)" fill="#fff"/>
  <path id="Path_42175" data-name="Path 42175" d="M339.379,50.765c0,.6-.268.908-.809.908-.269,0-.405-.165-.405-.5a1.928,1.928,0,0,1,.368-1.1c.062-.208.113-.311.151-.311s.047.024.019.08a.584.584,0,0,0-.057.231q.734.438.734.692m-.23.193c0-.024-.095-.1-.283-.241a2.7,2.7,0,0,0-.3-.2c-.024,0-.061.061-.109.193a1.063,1.063,0,0,0-.066.269.187.187,0,0,0,.212.212,1.064,1.064,0,0,0,.316-.085c.151-.057.227-.108.227-.146" transform="translate(-251.689 -37.037)" fill="#fff"/>
  <path id="Path_42176" data-name="Path 42176" d="M239.535,120.934h43.191v-.384H239.535Zm0,0" transform="translate(-178.281 -89.723)" fill="#308d74"/>
  <path id="Path_42177" data-name="Path 42177" d="M.18,120.934H43.37v-.384H.18Zm0,0" transform="translate(-0.134 -89.723)" fill="#308d74"/>
  <path id="Path_42178" data-name="Path 42178" d="M176.523,114.915c-.1-.353-.27-.75-.743-.75a.578.578,0,0,0-.619.6c0,.388.26.574.717.8.476.233.972.492.972,1.1a1.135,1.135,0,0,1-1.269,1.058,1.728,1.728,0,0,1-.563-.09,1.9,1.9,0,0,1-.278-.116,8.268,8.268,0,0,1-.154-.875l.169-.049c.094.35.369.924.943.924a.6.6,0,0,0,.649-.646c0-.4-.3-.585-.729-.81-.39-.2-.927-.469-.927-1.074a1.054,1.054,0,0,1,1.176-1,2.387,2.387,0,0,1,.728.132c.022.195.049.421.1.78" transform="translate(-129.941 -84.828)" fill="#308d74"/>
  <path id="Path_42179" data-name="Path 42179" d="M186.449,114.728h-.012c-.18.454-.357.923-.525,1.367h1.029Zm.551,2.9v-.158c.349-.049.4-.1.323-.319s-.18-.492-.3-.808h-1.2c-.094.253-.169.466-.241.683-.12.335-.075.4.35.444v.158h-1.239v-.158c.364-.056.444-.094.642-.582l1.179-2.864.195-.049c.361.973.721,1.949,1.093,2.913.18.484.259.544.623.582v.158" transform="translate(-137.459 -84.828)" fill="#308d74"/>
  <path id="Path_42180" data-name="Path 42180" d="M203.483,117.867v-.158c.455-.045.477-.082.469-.66l-.019-2.2h-.022l-1.374,2.988h-.112l-1.266-2.913h-.015l-.083,1.542a8.733,8.733,0,0,0-.011.905c.011.26.143.3.514.335v.165h-1.319V117.7c.324-.031.433-.109.477-.327.03-.192.064-.429.109-1.018l.083-1.1c.049-.713.015-.743-.488-.792V114.3h.957l1.273,2.7,1.292-2.7h.984v.165c-.491.041-.525.06-.506.6l.052,1.983c.019.578.034.615.522.66v.158" transform="translate(-149.039 -85.069)" fill="#308d74"/>
  <path id="Path_42181" data-name="Path 42181" d="M221.682,114.728h-.011c-.18.454-.357.923-.525,1.367h1.029Zm.552,2.9v-.158c.349-.049.4-.1.323-.319s-.18-.492-.3-.808h-1.2c-.094.253-.169.466-.241.683-.12.335-.075.4.35.444v.158h-1.239v-.158c.364-.056.442-.094.641-.582l1.179-2.864.2-.049c.361.973.72,1.949,1.093,2.913.18.484.259.544.623.582v.158" transform="translate(-163.683 -84.828)" fill="#308d74"/>
  <path id="Path_42182" data-name="Path 42182" d="M4.647,139.675c-.234-.847-.648-1.8-1.783-1.8A1.388,1.388,0,0,0,1.377,139.3c0,.928.621,1.378,1.72,1.909,1.144.558,2.332,1.18,2.332,2.63,0,1.413-1.207,2.539-3.044,2.539a4.149,4.149,0,0,1-1.351-.216,4.267,4.267,0,0,1-.666-.28,19.955,19.955,0,0,1-.37-2.1l.406-.117c.225.837.882,2.215,2.261,2.215a1.436,1.436,0,0,0,1.557-1.548c0-.955-.72-1.405-1.747-1.946-.936-.468-2.225-1.126-2.225-2.575a2.526,2.526,0,0,1,2.819-2.4,5.759,5.759,0,0,1,1.747.315c.054.468.118,1.009.235,1.873" transform="translate(0 -102.274)" fill="#fff"/>
  <path id="Path_42183" data-name="Path 42183" d="M28.344,151.359c-.271.136-.811.388-1.09.513-.522.226-.81.486-.81.973a.94.94,0,0,0,.918,1,1.6,1.6,0,0,0,.982-.433Zm1.054,3.305a1.062,1.062,0,0,1-.684-.261,1.185,1.185,0,0,1-.325-.558,4.49,4.49,0,0,1-1.549.819,1.627,1.627,0,0,1-1.656-1.621c0-.657.36-1.054,1.09-1.288a8.509,8.509,0,0,0,2.071-.855v-.235c0-.945-.433-1.449-1.072-1.449a.766.766,0,0,0-.567.234,2.072,2.072,0,0,0-.406.892.418.418,0,0,1-.432.324.661.661,0,0,1-.612-.585c0-.2.171-.36.433-.54a6.177,6.177,0,0,1,2.044-.927,1.806,1.806,0,0,1,1.117.333,1.981,1.981,0,0,1,.639,1.666v2.368c0,.585.234.784.477.784a1.055,1.055,0,0,0,.477-.145l.135.352" transform="translate(-18.744 -110.61)" fill="#fff"/>
  <path id="Path_42184" data-name="Path 42184" d="M53.789,154.379a9.691,9.691,0,0,0-1.054.208c-.369.1-.729.189-1.008.261l-.09-.072v-.937a10.713,10.713,0,0,1-.946.675,2.086,2.086,0,0,1-1.063.334c-.937,0-1.693-.558-1.693-1.972v-2.513c0-.72-.108-.783-.451-.864l-.36-.09v-.316c.27-.009.63-.054,1.008-.09s.775-.108,1.009-.144c-.036.4-.036,1.036-.036,1.909v1.774c0,1.1.558,1.441,1.153,1.441a2,2,0,0,0,1.378-.585v-3.036c0-.72-.118-.8-.549-.873l-.477-.081v-.316a12.592,12.592,0,0,0,1.261-.108,8.329,8.329,0,0,0,.927-.126v4.34c0,.685.109.775.631.811l.36.018" transform="translate(-35.074 -110.793)" fill="#fff"/>
  <path id="Path_42185" data-name="Path 42185" d="M81.191,139.711a1.65,1.65,0,0,0-1.359-.684c-.567,0-1.684.476-1.684,2.385,0,1.576,1,2.3,1.828,2.3a2.314,2.314,0,0,0,1.216-.415Zm2.18,4.367a18.526,18.526,0,0,0-2.18.5v-.846l-.792.467a2.364,2.364,0,0,1-1.027.379,2.674,2.674,0,0,1-2.548-2.8,3.407,3.407,0,0,1,3.5-3.25,3,3,0,0,1,.864.144v-1.855c0-.856-.09-.892-1.036-.955v-.343a13.573,13.573,0,0,0,2.2-.458v7.807c0,.721.1.784.639.838l.379.036" transform="translate(-57.179 -100.518)" fill="#fff"/>
  <path id="Path_42186" data-name="Path 42186" d="M105.128,139.312a.736.736,0,0,1,.738-.738.706.706,0,0,1,.7.738.715.715,0,0,1-.72.712.739.739,0,0,1-.72-.712m-.7,7.728v-.352c.837-.081.936-.162.936-1.081V142.96c0-.829-.045-.892-.837-1.027v-.316a9.932,9.932,0,0,0,2-.5v4.493c0,.91.09.982.946,1.081v.352" transform="translate(-77.722 -103.138)" fill="#fff"/>
  <path id="Path_42187" data-name="Path 42187" d="M134.03,143.913a13.466,13.466,0,0,1-.783,2.09,12.66,12.66,0,0,1-2.585.378c-3.476,0-5.025-2.3-5.025-4.376,0-2.774,2.242-4.594,5.367-4.594a11.429,11.429,0,0,1,2.5.379c.109.748.208,1.315.289,2.063l-.406.09a2.466,2.466,0,0,0-2.738-2.035,3.544,3.544,0,0,0-3.521,3.818c0,2.485,1.522,4.142,3.639,4.142,1.4,0,2.161-.747,2.872-2.108" transform="translate(-93.509 -102.272)" fill="#fff"/>
  <path id="Path_42188" data-name="Path 42188" d="M165,149.1c-.576,0-1.153.513-1.342,1.612.711,0,1.422,0,2.17-.027.235-.009.316-.081.316-.252a1.222,1.222,0,0,0-1.135-1.334Zm2.323,4.233a3.1,3.1,0,0,1-2.261,1.324,2.628,2.628,0,0,1-2.62-2.792,3.3,3.3,0,0,1,.855-2.252,2.826,2.826,0,0,1,2.018-1.009h.009a2.082,2.082,0,0,1,2.053,2.027c0,.253-.072.37-.315.424-.244.036-1.919.171-3.468.225.028,1.7,1.027,2.422,1.955,2.422a2.226,2.226,0,0,0,1.549-.657" transform="translate(-120.902 -110.607)" fill="#fff"/>
  <path id="Path_42189" data-name="Path 42189" d="M189.661,154.381v-.352c.765-.081.856-.189.856-1.117V150.77c0-.919-.37-1.468-1.19-1.468a2.383,2.383,0,0,0-1.4.648v3.044c0,.9.072.955.847,1.036v.352H185.8v-.352c.892-.108.964-.171.964-1.054v-2.647c0-.856-.09-.909-.793-1.036v-.334a8.971,8.971,0,0,0,1.955-.521V149.5c.27-.2.558-.4.9-.63a2,2,0,0,1,1.109-.387c1.062,0,1.737.747,1.737,2.053v2.458c0,.9.081.937.856,1.036v.352" transform="translate(-138.285 -110.479)" fill="#fff"/>
  <path id="Path_42190" data-name="Path 42190" d="M217.169,149.478a1.266,1.266,0,0,1-.567.18c-.891,0-1.386-.5-1.386-1.567v-3.782h-.91l-.063-.153.37-.4h.6V142.8l.982-.918.18.036v1.837h1.5a.387.387,0,0,1-.09.549h-1.405v3.322c0,1.064.459,1.244.792,1.244a1.875,1.875,0,0,0,.811-.226l.117.361" transform="translate(-159.456 -105.603)" fill="#fff"/>
  <path id="Path_42191" data-name="Path 42191" d="M236.394,149.9c.442-.72.991-1.422,1.612-1.422a.76.76,0,0,1,.81.675.784.784,0,0,1-.468.711.33.33,0,0,1-.361-.036.8.8,0,0,0-.585-.27c-.342,0-.747.387-1.035,1.089V153c0,.865.063.946,1.108,1.027v.352h-3.2v-.352c.811-.081.928-.162.928-1.027v-2.728c0-.838-.072-.892-.82-1v-.3a8.8,8.8,0,0,0,1.982-.539V149.9" transform="translate(-174.368 -110.479)" fill="#fff"/>
  <path id="Path_42192" data-name="Path 42192" d="M258.849,151.359c-.271.136-.81.388-1.09.513-.522.226-.81.486-.81.973a.94.94,0,0,0,.918,1,1.6,1.6,0,0,0,.982-.433Zm1.054,3.305a1.062,1.062,0,0,1-.684-.261,1.185,1.185,0,0,1-.325-.558,4.5,4.5,0,0,1-1.548.819,1.628,1.628,0,0,1-1.658-1.621c0-.657.361-1.054,1.09-1.288a8.5,8.5,0,0,0,2.072-.855v-.235c0-.945-.433-1.449-1.072-1.449a.768.768,0,0,0-.567.234,2.073,2.073,0,0,0-.406.892.418.418,0,0,1-.431.324.661.661,0,0,1-.612-.585c0-.2.171-.36.432-.54a6.184,6.184,0,0,1,2.045-.927,1.806,1.806,0,0,1,1.117.333,1.98,1.98,0,0,1,.639,1.666v2.368c0,.585.234.784.477.784a1.055,1.055,0,0,0,.477-.145l.135.352" transform="translate(-190.303 -110.61)" fill="#fff"/>
  <path id="Path_42193" data-name="Path 42193" d="M277.281,144.42v-.352c.837-.1.954-.171.954-1.054v-6.177c0-.892-.09-.919-.918-1v-.325a12.369,12.369,0,0,0,2.071-.458v7.96c0,.892.118.973.991,1.054v.352" transform="translate(-206.375 -100.518)" fill="#fff"/>
  <path id="Path_42194" data-name="Path 42194" d="M301.51,145.059c0,.982.261,1.234,1.108,1.225a1.831,1.831,0,0,0,2.009-1.918c0-1.325-.919-1.928-2.558-1.928h-.558Zm.585-3.08c1.459,0,2.072-.568,2.072-1.657a1.579,1.579,0,0,0-1.757-1.693,1.462,1.462,0,0,0-.747.162c-.117.081-.153.234-.153.639v2.549Zm1.549.171c1.378.18,2.431.756,2.431,2.08a2.234,2.234,0,0,1-1.279,2,5.772,5.772,0,0,1-2.684.522h-3.1v-.379c1.153-.081,1.243-.171,1.243-1.279v-5.232c0-1.126-.063-1.207-1.126-1.279v-.4H302.7a3.482,3.482,0,0,1,2.063.459,1.812,1.812,0,0,1,.756,1.5,2.116,2.116,0,0,1-1.873,1.955" transform="translate(-222.551 -102.85)" fill="#fff"/>
  <path id="Path_42195" data-name="Path 42195" d="M334.259,151.359c-.271.136-.811.388-1.09.513-.522.226-.811.486-.811.973a.94.94,0,0,0,.919,1,1.6,1.6,0,0,0,.982-.433Zm1.054,3.305a1.067,1.067,0,0,1-.685-.261,1.191,1.191,0,0,1-.324-.558,4.491,4.491,0,0,1-1.549.819,1.628,1.628,0,0,1-1.657-1.621c0-.657.361-1.054,1.09-1.288a8.5,8.5,0,0,0,2.072-.855v-.235c0-.945-.433-1.449-1.072-1.449a.766.766,0,0,0-.567.234,2.073,2.073,0,0,0-.405.892.418.418,0,0,1-.433.324.661.661,0,0,1-.611-.585c0-.2.171-.36.432-.54a6.192,6.192,0,0,1,2.045-.927,1.806,1.806,0,0,1,1.117.333,1.983,1.983,0,0,1,.639,1.666v2.368c0,.585.234.784.477.784a1.047,1.047,0,0,0,.477-.145l.136.352" transform="translate(-246.429 -110.61)" fill="#fff"/>
  <path id="Path_42196" data-name="Path 42196" d="M357.434,154.381v-.352c.765-.081.855-.189.855-1.117V150.77c0-.919-.37-1.468-1.189-1.468a2.383,2.383,0,0,0-1.4.648v3.044c0,.9.071.955.846,1.036v.352H353.57v-.352c.891-.108.963-.171.963-1.054v-2.647c0-.856-.09-.909-.792-1.036v-.334a9,9,0,0,0,1.955-.521V149.5c.27-.2.557-.4.9-.63a1.993,1.993,0,0,1,1.108-.387c1.063,0,1.738.747,1.738,2.053v2.458c0,.9.081.937.855,1.036v.352" transform="translate(-263.155 -110.479)" fill="#fff"/>
  <path id="Path_42197" data-name="Path 42197" d="M386.855,144.447c-.612-.666-1.449-1.756-2.152-2.594-.163-.2-.271-.27-.388-.27a.536.536,0,0,0-.2.018v1.431c0,.874.117.937.972,1.036v.352h-3.1v-.352c.891-.1.981-.189.981-1.036v-6.2c0-.856-.081-.928-.891-1.009v-.316a11.929,11.929,0,0,0,2.036-.458v6.2a1.608,1.608,0,0,0,.828-.458,8.262,8.262,0,0,0,.919-1.153c.27-.4.216-.5-.4-.576v-.361l2.81-.117v.342a2.736,2.736,0,0,0-1.765.765,15.845,15.845,0,0,0-1.126,1.217c.279.4,1.665,1.981,2.089,2.431a1.915,1.915,0,0,0,1.323.72v.352" transform="translate(-284.309 -100.518)" fill="#fff"/>
  <path id="Path_42198" data-name="Path 42198" d="M510.6,128.824h-.474c.015-.61.474-.582.474-.582Zm.943-3.335a11.806,11.806,0,0,1-1.353.933c.113.129.233.258.35.387,0,.147,0,.3,0,.445-.386.144-.85.238-1.075.618a3.61,3.61,0,0,0-.23,1.727c.769,0,1.536.006,2.306,0-.006-1.37-.024-2.739,0-4.108" transform="translate(-379.013 -93.398)" fill="#308d74"/>
  <path id="Path_42199" data-name="Path 42199" d="M556.959,133.931a.429.429,0,1,1,.429-.429.429.429,0,0,1-.429.429m1.275-.755c-.24-.452-.609-.965-1.179-.954a1.3,1.3,0,0,0-1.047.593,2.725,2.725,0,0,0-.323,1.8c.442.1.932-.015,1.393.053-.165.741-1.014.849-1.645.766l.036.265a4.368,4.368,0,0,0,1.074.317,2.006,2.006,0,0,0,1.69-2.835" transform="translate(-413.398 -98.408)" fill="#308d74"/>
  <path id="Path_42200" data-name="Path 42200" d="M526.243,128.633h-.966l2.155,2.352H525.51v-.021a1.24,1.24,0,0,0-.023-.253c0,.023.005.046.005.069l-.013-.092c0,.007.005.015.008.023-.006-.033-.006-.064-.011-.095a1.157,1.157,0,0,0-1.125-.995.045.045,0,0,0-.021,0h-2.413c-.128-.117-.259-.237-.387-.35a11.714,11.714,0,0,1-.933,1.353l.813-.007c.166,0,.338,0,.523,0h2.427v.374H520.6v.952h.7c2.1.012,4.846,0,7.013,0l.294.326h.959l-2.908-3.442a.542.542,0,0,0-.41-.189" transform="translate(-387.47 -95.739)" fill="#308d74"/>
  <path id="Path_42201" data-name="Path 42201" d="M555.744,70.087H555V69.6l.2-.256h.335l.2.256Zm.943-.755a2.944,2.944,0,0,0-.336-.522c.111-.255.4-.44.362-.749,0-.158,0-.316,0-.472.006-.557,0-1.115,0-1.672,0-.154,0-.307.006-.458l.165-.084.116-.058.026-.014.074-.037a4.274,4.274,0,0,1-.38-.33c-.106-.1-.207-.207-.307-.314l-.213-.23c-.052-.058-.1-.115-.158-.171-.1-.111-.207-.221-.316-.326q-.008.637-.011,1.276,0,.372,0,.745c0,.333,0,.665,0,1-.007.229.01.482,0,.73a1.726,1.726,0,0,1-.1.56c-.031,0-.069,0-.109,0H555.5l-.129,0v0c-.12,0-.22,0-.244,0a1.728,1.728,0,0,1-.1-.56c-.01-.248.007-.5,0-.73,0-.333,0-.665,0-1q0-.373,0-.745,0-.638-.011-1.276c-.109.1-.213.215-.316.326-.053.056-.106.113-.158.171l-.213.23c-.1.107-.2.213-.307.314a4.266,4.266,0,0,1-.38.33l.074.037.026.014.116.058.165.084c0,.152.005.3.006.458,0,.557-.007,1.115,0,1.672,0,.157,0,.315,0,.472-.034.31.251.494.363.749a2.949,2.949,0,0,0-.336.522c-.045.549,0,1.1-.028,1.65h2.686c-.03-.549.016-1.1-.028-1.65" transform="translate(-412.069 -47.555)" fill="#308d74"/>
  <path id="Path_42202" data-name="Path 42202" d="M545.8,65.99c-.046-.347.281-.542.471-.778a2.232,2.232,0,0,1-.924-.748,1.943,1.943,0,0,0-.551-.616c.01,2.366-.02,4.734.016,7.1h1c0-1.652-.015-3.3-.009-4.957" transform="translate(-405.48 -47.521)" fill="#308d74"/>
  <path id="Path_42203" data-name="Path 42203" d="M510.155,69.79l.006-.016c.053-.523.468-.5.468-.5v.582h-.475c0-.024,0-.045.005-.068h-.005m7.281.962c.036-1.666-.02-3.546-.009-5.192-.047-.312.216-.5.408-.688-.588-.29-.87-.912-1.387-1.286.01,2.05.014,4.1-.006,6.153q-2.447-.013-4.889.023c.022-1.071-.014-2.142.012-3.214a12.683,12.683,0,0,1-1.378.922q.195.192.4.378c-.007.167-.017.335-.034.5a2.268,2.268,0,0,0-1.026.591,3.238,3.238,0,0,0-.254,1.811" transform="translate(-379.035 -47.326)" fill="#308d74"/>
  <path id="Path_42204" data-name="Path 42204" d="M548.612,101.071h-.745v-.489l.2-.256h.336l.2.256Zm.943-.756a3.083,3.083,0,0,0-.336-.521c.111-.255.4-.44.362-.749,0-.158,0-.316,0-.473.007-.557,0-1.115,0-1.672,0-.153,0-.306.006-.459l.165-.083.116-.058.027-.014.074-.037a4.29,4.29,0,0,1-.38-.33c-.1-.1-.207-.207-.306-.314q-.108-.115-.213-.231l-.159-.171c-.1-.11-.207-.22-.316-.325q-.006.637-.011,1.275,0,.373,0,.745c0,.333,0,.666,0,1-.007.229.009.482,0,.729a1.734,1.734,0,0,1-.1.561h-.114l-.129,0v0H548a1.7,1.7,0,0,1-.1-.561c-.009-.247.007-.5,0-.729,0-.333,0-.666,0-1,0-.248,0-.5,0-.745q-.006-.637-.011-1.275c-.109.1-.213.215-.317.325l-.158.171q-.105.115-.213.231c-.1.107-.2.213-.306.314a4.3,4.3,0,0,1-.381.33l.074.037.027.014.115.058.166.083c0,.153,0,.306.005.459,0,.557-.007,1.115,0,1.672,0,.158,0,.316,0,.473-.035.31.251.494.362.749a3.02,3.02,0,0,0-.336.521c-.044.55,0,1.1-.028,1.651h2.687c-.031-.549.016-1.1-.028-1.651" transform="translate(-406.76 -70.616)" fill="#308d74"/>
  <path id="Path_42205" data-name="Path 42205" d="M538.59,97.078c-.034-.286.222-.446.41-.6.022-.041.066-.124.089-.165-.707-.189-.912-.969-1.5-1.3.014,2.351.083,4.7.03,7.054h1c.014-1.661.017-3.323-.022-4.985" transform="translate(-400.114 -70.712)" fill="#308d74"/>
  <path id="Path_42206" data-name="Path 42206" d="M562.3,96.975c-.046-.347.281-.542.47-.778a2.233,2.233,0,0,1-.924-.749,1.939,1.939,0,0,0-.551-.615c.01,2.366-.02,4.734.017,7.1h1c0-1.652-.015-3.3-.009-4.957" transform="translate(-417.756 -70.582)" fill="#308d74"/>
  <path id="Path_42207" data-name="Path 42207" d="M510.69,100.909h-.474c.015-.61.474-.581.474-.581Zm4.554-5.653a2.661,2.661,0,0,0-.536-.686,4.661,4.661,0,0,0-.028.68c.047,1.848-.028,3.7.013,5.544-.425,0-.852.014-1.275.009.012-1.386-.012-2.773,0-4.159-.045-.3.234-.481.4-.687a9.306,9.306,0,0,1-1.4-1.324c.041,2.056.032,4.113,0,6.169l-.8.01q.014-1.618,0-3.234a11.047,11.047,0,0,1-1.345.936.9.9,0,0,1,.373.893,1.947,1.947,0,0,0-1.074.611,3.141,3.141,0,0,0-.236,1.718h6.316c-.031-1.311-.078-2.622-.015-3.935a5.837,5.837,0,0,1,.036-1.372,2.27,2.27,0,0,1,.427-.487,2.243,2.243,0,0,1-.856-.684" transform="translate(-379.083 -70.387)" fill="#308d74"/>
  <path id="Path_42208" data-name="Path 42208" d="M456.219,50.264a22.593,22.593,0,0,1,3.863-6.139,2.311,2.311,0,0,1,.708.576A12.722,12.722,0,0,0,459.7,46.09a24.146,24.146,0,0,0-1.566,2.4c-.255.481-.491.975-.722,1.47.3.152.813.368,1.006-.049a18.494,18.494,0,0,1,2.407-3.812,2.326,2.326,0,0,1,.651-.739,5.476,5.476,0,0,0,.569,1.492c-.28.038-.628-.1-.851.122a22.194,22.194,0,0,0-2.227,3.63.82.82,0,0,1-.956.424,6.761,6.761,0,0,1-1.79-.761" transform="translate(-339.554 -32.841)" fill="#308d74"/>
  <path id="Path_42209" data-name="Path 42209" d="M483.985,18.464a14.7,14.7,0,0,1,1.4-.522c.463.775-.012,1.606-.309,2.338.725.637,1.781.976,2.13,1.964.352.885-.436,1.611-.652,2.416-1.14-.914-2.38-1.685-3.56-2.548-.26-.227-.54.155-.806.208a2.721,2.721,0,0,1-.6-.53l-.144.074a9.471,9.471,0,0,1,1.513-.9c.538.184.852.721,1.354.976.663.372,1.211,1.107,2.035,1.085a1.79,1.79,0,0,0-.381-.953,12.325,12.325,0,0,0-2.139-1.455c.153-.441.509-.8.529-1.291a21.057,21.057,0,0,0-2.829,1.424c-.793.406-1.471.985-2.222,1.457-.295.208-.525.49-.816.7-.593.407-1.028,1-1.612,1.412-.108-.3-.467-.617-.339-.932a23.088,23.088,0,0,1,5.109-3.8,22.336,22.336,0,0,1,2.339-1.124" transform="translate(-354.656 -13.353)" fill="#308d74"/>
  <path id="Path_42210" data-name="Path 42210" d="M492.76,157.293c.275-.313.338-.835.738-1.012.187.642.268,1.312.479,1.949a2.561,2.561,0,0,0-.753.283c-.784,1.263-1.589,2.516-2.358,3.788-.277.082-.548-.165-.792-.276s-.055-.361.039-.5a19.583,19.583,0,0,0,1.2-1.95c.518-.739.882-1.575,1.448-2.283" transform="translate(-364.666 -116.317)" fill="#308d74"/>
  <path id="Path_42211" data-name="Path 42211" d="M448.346,74.3a.633.633,0,1,1-.633.633.634.634,0,0,1,.633-.633m10.065,18.225-.166.029c-.978,1.616-2.068,3.164-3.036,4.787-.227.04-.378-.147-.528-.277a22.264,22.264,0,0,1-1.911-1.9,22.06,22.06,0,0,1,1.91-1.5c-.338-.249-.719-.429-1.058-.672-.269.664-.964.978-1.461,1.444a11.487,11.487,0,0,1-1.465-2.065c.69-.346,1.285-.846,1.987-1.169,0-.038,0-.116,0-.154-.275-.262-.567-.5-.837-.76a3.92,3.92,0,0,1-1.707,1.226c-.426-.608-.62-1.342-1.048-1.947.034-.04.1-.116.136-.155.745-.261,1.448-.619,2.168-.946a3.82,3.82,0,0,1-.852-.919,3.749,3.749,0,0,1-1.816,1.039,19.533,19.533,0,0,1-1.322-5.261,12.061,12.061,0,0,1,2.308,1c-.046-.393-.062-.788-.134-1.176-.494-.236-1.048-.368-1.566-.554a9.957,9.957,0,0,1,1.507-.687c-.013-.431-.034-.86-.08-1.289-.407.2-.688.566-1.077.788-.367.212-.732.419-1.1.627a14.253,14.253,0,0,1-.067-2.262,32.193,32.193,0,0,1,.4-3.368,2.53,2.53,0,0,0,1.751-.4c.341-.308.739-.539,1.081-.846q-.271-.034-.539-.057a2.554,2.554,0,0,0-.865-1.3,1.544,1.544,0,0,0-1.078-.268.857.857,0,0,0-.462.229,1.843,1.843,0,0,0-.573,1.193l-.065-.03a1.3,1.3,0,0,1-.718-.549c-.284-.5-.081-1.082-.089-1.617a1.96,1.96,0,0,0-.619,2.079c.174.575.7.889,1.163,1.221a22.7,22.7,0,0,0,8.8,22.838l.11-.173a.361.361,0,0,0,.05-.078c.064-.1.129-.2.193-.307.78-1.247,1.591-2.474,2.372-3.721.151-.231.461-.23.693-.335-.107-.589-.246-1.17-.385-1.751" transform="translate(-331.427 -54.146)" fill="#308d74"/>
  <path id="Path_42212" data-name="Path 42212" d="M603.756,119.487c-.3.4.091.823.429,1.031.237-.074.538-.042.722-.242.238-.181.2-.524.137-.779a.727.727,0,0,0-1.288-.01m-4.58-4.018c.4-.418.824-.819,1.237-1.231.328.14.6.445.987.412,1.6,0,3.2.209,4.8.2a15.956,15.956,0,0,1-.87,3.69c.272.29.628.581.628,1.016a1.591,1.591,0,0,1-.545,1.46,2.289,2.289,0,0,1-1.219.406,20.162,20.162,0,0,1-1.066,1.963c.453.408,1.088.744,1.185,1.4a1.249,1.249,0,0,1-.751,1.352c-.02-.328-.005-.657-.01-.986a5.931,5.931,0,0,0-1.811-1.187,2.03,2.03,0,0,0-.988-.159,9.065,9.065,0,0,0-.074-1.612,12.808,12.808,0,0,0,1.506.793,11.325,11.325,0,0,0,1.13-1.908,1.745,1.745,0,0,1-.207-2.229,1.894,1.894,0,0,1,1.382-.739,18.915,18.915,0,0,0,.613-2.282,26.037,26.037,0,0,0-2.935-.278,22.043,22.043,0,0,0-2.995-.088" transform="translate(-445.954 -85.025)" fill="#308d74"/>
  <path id="Path_42213" data-name="Path 42213" d="M505.744,164.4c.382-.786,1.359-.758,2.017-1.185a11.615,11.615,0,0,0,.38,1.66c.3.9.43,1.857.725,2.763.2.068.529-.048.661.177a5.363,5.363,0,0,1,.181.828c-.577-.064-1.14-.209-1.712-.3a17.342,17.342,0,0,0-.959-3.738l-.289.023a2.923,2.923,0,0,0,.064,2.234c.116.416.224.834.366,1.242a5.4,5.4,0,0,0-1.113.373c0,.052,0,.158,0,.211a19.564,19.564,0,0,0,4.245.949,23.039,23.039,0,0,0,4.6.053c-.07.331-.163.655-.264.978a22.592,22.592,0,0,1-5.174-.2,23.664,23.664,0,0,1-5.2-1.4c.145-.88,1.037-1.22,1.7-1.648-.16-.986-.664-2.033-.228-3.016" transform="translate(-375.32 -121.48)" fill="#308d74"/>
  <path id="Path_42214" data-name="Path 42214" d="M600.3,107.129a18.593,18.593,0,0,1,1.585-1.425c.251.143.427.438.729.475,1.542.066,3.094.033,4.631.189-.012.309-.029.616-.046.924-2.3-.028-4.6-.119-6.9-.163" transform="translate(-446.792 -78.673)" fill="#308d74"/>
  <path id="Path_42215" data-name="Path 42215" d="M562.256,154.777a1.232,1.232,0,0,1,1.413.165,2.99,2.99,0,0,1,.941.941,22.073,22.073,0,0,1-2.449,2.628,24.807,24.807,0,0,1-4.752,3.3,23.1,23.1,0,0,1-3.03,1.272,19.809,19.809,0,0,1-2.87.782c.04.533.231,1.144-.105,1.622a1.3,1.3,0,0,1-1.142.291,2.08,2.08,0,0,0,.4-.511,5,5,0,0,0-.219-1.745,2.5,2.5,0,0,0-.684-1.121,5.78,5.78,0,0,0,1.13-1.078c.152.547.318,1.093.424,1.651a29.211,29.211,0,0,0,3.838-1.173,22.415,22.415,0,0,0,7.425-5.033,6.157,6.157,0,0,1,.905-.876c-.233-.193-.516-.489-.848-.333a6.094,6.094,0,0,0-.744.655,21.19,21.19,0,0,1-4.828,3.7c-.546.263-1.089.535-1.629.808-.674.334-1.422.473-2.1.8a3.1,3.1,0,0,1-.546.131c.475-.619.754-1.353,1.174-2.008.3-.5.5-1.056.814-1.545a8.134,8.134,0,0,1-.6,2.19,19.628,19.628,0,0,0,6.576-4.18c.54-.4.849-1.068,1.5-1.325" transform="translate(-409.174 -115.082)" fill="#308d74"/>
  <path id="Path_42216" data-name="Path 42216" d="M548.766,173.234a.559.559,0,1,0-.558.558.559.559,0,0,0,.558-.558" transform="translate(-407.604 -128.519)" fill="#308d74"/>
  <path id="Path_42217" data-name="Path 42217" d="M559.229,17.988c.334.089.661.2.992.3-.351,1.327-.854,2.6-1.2,3.926-.2.862-.622,1.647-.806,2.512-.335-.607-.653-1.227-.968-1.843.235-.194.538-.335.658-.637.22-.5.308-1.056.494-1.571a22.618,22.618,0,0,0,.83-2.69" transform="translate(-414.747 -13.388)" fill="#308d74"/>
  <path id="Path_42218" data-name="Path 42218" d="M567.226,21.031a9.786,9.786,0,0,1,1.893.872,22.676,22.676,0,0,1,8.119,7.293c.537.647.847,1.44,1.318,2.132a22.981,22.981,0,0,1,1.616,3.971,20.011,20.011,0,0,1,.982,6.047c-.45.009-.9.033-1.344.038a1.853,1.853,0,0,0,.3-1,17.516,17.516,0,0,0-.634-4.2c-.281-.723-.477-1.475-.757-2.2a23.117,23.117,0,0,0-2.956-5.243l-.154-.064a4.214,4.214,0,0,0-.39.6c0,.316.239.546.41.784a21.1,21.1,0,0,1,3.661,10.17c-.569-.382-1-.921-1.543-1.338-.411-.314-.8-.658-1.226-.947a3.535,3.535,0,0,1-.313-.334,6.96,6.96,0,0,1,2.045,1.1,19.259,19.259,0,0,0-1.116-3.921,18.144,18.144,0,0,0-1.333-2.83c-.4-.741-.978-1.379-1.329-2.146a1.508,1.508,0,0,1,.684-1.784,9.385,9.385,0,0,0-1.4-1.524c-.389.616-1.273.984-1.169,1.83a7.352,7.352,0,0,0-1.379-.417c.6-.724,1.251-1.4,1.846-2.122a21.266,21.266,0,0,0-2.216-1.71c-.445.6-1.075,1.188-.995,2a4.347,4.347,0,0,0-1.288-.375c.439-.772,1.02-1.447,1.5-2.195a18.41,18.41,0,0,0-2.216-1.193c-.229,1.057-.645,2.056-.9,3.1-.187.867-.522,1.693-.721,2.555l-.195-.006c-.18-.573-.645-1-.81-1.574.163-.045.324-.1.486-.159a8.332,8.332,0,0,0,.51-1.679c.415-1.158.7-2.355,1.019-3.541" transform="translate(-420.675 -15.653)" fill="#308d74"/>
  <path id="Path_42219" data-name="Path 42219" d="M590.126,23.281a.559.559,0,1,0-.559.559.56.56,0,0,0,.559-.559" transform="translate(-438.387 -16.912)" fill="#308d74"/>
  <path id="Path_42220" data-name="Path 42220" d="M586.481,52.238a.559.559,0,1,0-.558.558.559.559,0,0,0,.558-.558" transform="translate(-435.674 -38.464)" fill="#308d74"/>
  <g id="Group_3760" data-name="Group 3760" transform="translate(110.471)" clip-path="url(#clip-path)">
    <path id="Path_42221" data-name="Path 42221" d="M459.864,53.065A26.148,26.148,0,0,1,456.528.983a3.364,3.364,0,0,0,1.8,2.557,3.359,3.359,0,0,0,0,5.984,3.36,3.36,0,0,0-1.833,2.993c0,.009,0,.017,0,.026a14.764,14.764,0,1,0,6.726,0c0-.009,0-.017,0-.026A3.361,3.361,0,0,0,461.4,9.524a3.36,3.36,0,0,0,0-5.984A3.365,3.365,0,0,0,463.2.983a26.148,26.148,0,0,1-3.334,52.082m-2.61-46.532a2.61,2.61,0,1,1,2.61,2.609,2.613,2.613,0,0,1-2.61-2.609m2.61,5.622a14.892,14.892,0,0,0-2.6.233,2.606,2.606,0,0,1,5.206,0,14.911,14.911,0,0,0-2.6-.233m-2.528,1a13.843,13.843,0,0,1,5.056,0q.373.067.738.155a14,14,0,1,1-6.532,0q.366-.087.738-.155M459.864.771q1.306,0,2.583.128a2.606,2.606,0,0,1-5.166,0q1.275-.126,2.583-.128m3.346-.56c-.257-.032-.515-.06-.774-.084C461.589.047,460.731,0,459.864,0s-1.726.043-2.573.123c-.259.024-.517.052-.774.084a26.914,26.914,0,1,0,6.694,0" transform="translate(-432.706 -0.003)" fill="#308d74"/>
  </g>
</svg>
