<svg xmlns="http://www.w3.org/2000/svg" width="91.922" height="61.536" viewBox="0 0 91.922 61.536"><path d="M17081.77-6528.464v-4.23h1.922a1.516,1.516,0,0,1,1.076.386.741.741,0,0,1,.3.69,1.033,1.033,0,0,1-.613.922c.463.155.846.386.768,1.077,0,.772-.613,1.154-1.535,1.154Zm.689-.691h1.232c.535,0,.844-.231.844-.613s-.309-.618-.922-.541h-1.154Zm.078-1.844h1c.463,0,.768-.155.768-.541,0-.309-.3-.541-.768-.541h-1.078Zm-10.078,2.535v-4.23h1.85a1.943,1.943,0,0,1,1.227.386,1.258,1.258,0,0,1,.387.922,1.182,1.182,0,0,1-1,1.231l1.154,1.613h-.85l-1.072-1.458h-.926v1.536Zm.77-2.231h1.08c.537,0,.846-.231.846-.69s-.309-.7-.846-.7h-1.08Zm-18.693.386v-2.462h.773v2.385c0,.845.381,1.231,1.076,1.231s1.072-.386,1.072-1.154l-.072-2.462h.768v2.385a1.718,1.718,0,0,1-1.844,1.922A1.641,1.641,0,0,1,17054.535-6530.309Zm-41.076-.309a2.1,2.1,0,0,1,2.154-2.153,2.278,2.278,0,0,1,1.617.541l-.459.536a1.472,1.472,0,0,0-1.158-.459,1.394,1.394,0,0,0-1.383,1.458,1.433,1.433,0,0,0,1.459,1.54,1.641,1.641,0,0,0,1.082-.309v-.768h-1.082v-.69h1.771v1.767a2.486,2.486,0,0,1-1.771.691A2.082,2.082,0,0,1,17013.459-6530.618Zm77.924,2.077-.463-1h-2l-.463,1h-.764l1.846-4.23h.689l1.922,4.23Zm-2.309-1.69h1.463l-.771-1.694Zm-2.844,1.69v-4.23h.768v4.23Zm-5.848,0-.463-1h-2l-.463,1h-.768l1.85-4.23h.768l1.844,4.23Zm-2.307-1.69h1.463l-.773-1.694Zm-7,1.69-.459-1h-2l-.459,1h-.768l1.844-4.23h.77l1.844,4.23Zm-2.23-1.69h1.463l-.768-1.694Zm-4.768,1.69v-4.23h.77v4.23Zm-4.77,0v-4.23h1.535a2.046,2.046,0,0,1,2.236,2.153,2.111,2.111,0,0,1-2.236,2.077Zm.768-.691h.846a1.352,1.352,0,0,0,1.463-1.386,1.415,1.415,0,0,0-1.463-1.463h-.846Zm-6.615.691-.459-1h-2l-.459,1h-.768l1.846-4.23h.768l1.844,4.23Zm-2.23-1.69h1.463l-.768-1.694Zm-5.23,1,.459-.536a2.034,2.034,0,0,0,1.309.536c.465,0,.773-.231.773-.536s-.154-.463-.928-.618c-.844-.154-1.381-.463-1.381-1.231a1.33,1.33,0,0,1,1.463-1.231,2.649,2.649,0,0,1,1.535.541l-.385.536a1.831,1.831,0,0,0-1.15-.459c-.463,0-.7.231-.7.536,0,.386.154.463,1,.7s1.309.536,1.309,1.231c0,.768-.613,1.227-1.541,1.227A2.7,2.7,0,0,1,17046-6529.232Zm-5.461.691v-4.23h3.154v.69h-2.387v1.159h2.154v.69h-2.154v1.69Zm-5.311-2.154a2.17,2.17,0,0,1,2.234-2.153,2.221,2.221,0,0,1,2.232,2.153,2.171,2.171,0,0,1-2.232,2.154A2.171,2.171,0,0,1,17035.227-6530.695Zm.7,0a1.48,1.48,0,0,0,1.463,1.54,1.416,1.416,0,0,0,1.463-1.463,1.48,1.48,0,0,0-1.463-1.536A1.414,1.414,0,0,0,17035.922-6530.695Zm-4.152,2.154v-3l-1.309,2h-.078l-1.309-2v3h-.689v-4.23h.768l1.309,2,1.23-2h.846v4.23Zm-8.77-2.154a2.167,2.167,0,0,1,2.23-2.153,2.167,2.167,0,0,1,2.23,2.153,2.167,2.167,0,0,1-2.23,2.154A2.167,2.167,0,0,1,17023-6530.695Zm.691,0a1.48,1.48,0,0,0,1.463,1.54,1.411,1.411,0,0,0,1.457-1.463,1.429,1.429,0,0,0-1.457-1.536A1.414,1.414,0,0,0,17023.691-6530.695Zm-5.152,2.154v-4.23h1.535a2.119,2.119,0,0,1,2.23,2.153,2.1,2.1,0,0,1-2.23,2.077Zm.689-.691h.846a1.352,1.352,0,0,0,1.463-1.386,1.415,1.415,0,0,0-1.463-1.463h-.846Zm-7.3.691-2.309-3v3h-.7v-4.23h.7l2.23,2.926v-2.926h.768v4.23Zm-4.926,0v-4.23h.771v4.23Zm-1.535,0-1.463-1.922-.691.695v1.227h-.7v-4.23h.7v2.153l2-2.153h.922l-1.768,1.849,1.844,2.381Zm9.535-6.384a2.394,2.394,0,0,1-.617-.154l.154-.536a1.1,1.1,0,0,0,.463.154c.078.077.311.077.465.077a1.148,1.148,0,0,0,.768-.231.945.945,0,0,0,.23-.7v-.15h-.385a3.725,3.725,0,0,1-.922-.077,2.414,2.414,0,0,1-.773-.386,2.137,2.137,0,0,1-.535-.618,1.809,1.809,0,0,1-.232-.922,1.521,1.521,0,0,1,.154-.845,1.2,1.2,0,0,1,.463-.613,1.591,1.591,0,0,1,.768-.463,3.905,3.905,0,0,1,1-.155h.924v3.385H17019l-1.078-2.463c.154-.15.309-.227.465-.381.154-.078.381-.232.535-.309a3.781,3.781,0,0,1,.541-.232,1.688,1.688,0,0,1,.613-.077,1.514,1.514,0,0,1,.541.077c.154.078.381.155.535.232a1.928,1.928,0,0,1,.541.309,3.514,3.514,0,0,1,.541.381l-1,2.463h3.076v-3.076h.613v3.076h1c.154,0,.23-.078.385-.078a.59.59,0,0,0,.311-.154,1.221,1.221,0,0,0,.227-.3.969.969,0,0,0,.078-.463v-2.076h.617v2.076a.7.7,0,0,0,.076.386c.078.077.15.228.232.3.15.077.227.154.381.231a.985.985,0,0,0,.465.078.957.957,0,0,0,.844-.309,1.144,1.144,0,0,0,.311-.845v-2h.613v1.922c0,.231-.078.386-.078.541a.7.7,0,0,0,.459.459,2.808,2.808,0,0,0,.85.154H17033v-4.307h.613v5.307h-1.689c-.232,0-.309-.078-.465-.078a.585.585,0,0,1-.381-.15,1,1,0,0,1-.309-.231c-.078-.078-.078-.155-.154-.232a1.187,1.187,0,0,1-.541.536,2.83,2.83,0,0,1-.922.155,1.593,1.593,0,0,1-.846-.228,1.418,1.418,0,0,1-.613-.541,3.325,3.325,0,0,1-.541.463,2.277,2.277,0,0,1-.768.15h-9.232v.077a1.679,1.679,0,0,1-.381,1.077,1.683,1.683,0,0,1-1.236.386A1.3,1.3,0,0,1,17015-6534.925Zm4.309-4.92a3.069,3.069,0,0,0-.691.382l.922,2.23h1.078l.922-2.23a3.069,3.069,0,0,0-.691-.382,2.728,2.728,0,0,0-.771-.154A2.274,2.274,0,0,0,17019.307-6539.845Zm-4.23-.232a1.247,1.247,0,0,0-.541.309,1.89,1.89,0,0,0-.381.459,1.8,1.8,0,0,0-.154.618,1.44,1.44,0,0,0,.154.614,2.459,2.459,0,0,0,.381.463,1.28,1.28,0,0,0,.541.3,1.5,1.5,0,0,0,.613.077h.541l.076-2.921h-.617A1.693,1.693,0,0,0,17015.076-6540.077Zm33.385,5.075.154-.536h.3c.154,0,.232-.077.309-.077s.078-.077.154-.155c0-.077.078-.154.078-.309v-4.616h.613v3.385h2.23l-1.076-2.458c.154-.154.309-.231.463-.386.15-.077.387-.231.541-.309a3.487,3.487,0,0,1,.535-.232,1.688,1.688,0,0,1,.615-.077,1.5,1.5,0,0,1,.539.077c.154.077.387.154.537.232a1.938,1.938,0,0,1,.541.309,3.458,3.458,0,0,1,.535.386l-1,2.458h2.541V-6542h.617v5.307h-7.619v.154c0,.227-.078.459-.078.613a1.793,1.793,0,0,1-.154.618,1.309,1.309,0,0,1-.381.3,1.146,1.146,0,0,1-.541.077A.963.963,0,0,1,17048.461-6535Zm4.23-4.843a3.178,3.178,0,0,0-.7.382l.926,2.23H17054l.922-2.23a3.091,3.091,0,0,0-.7-.382,2.675,2.675,0,0,0-.768-.154A2.254,2.254,0,0,0,17052.691-6539.845Zm-5.615,4.539v-.618h.617v.618Zm-2.154,0v-.618h.613v.618Zm-1,0v-.618h.613v.618Zm-36.074,0v-.618h.613v.618Zm-1.076,0v-.618h.613v.618Zm76.688-.926a1.35,1.35,0,0,1-.689-.459h-2.617a2.754,2.754,0,0,1-.691.459,3.873,3.873,0,0,1-.922.154,1.508,1.508,0,0,1-.846-.154,1.39,1.39,0,0,1-.7-.459h-11.771a3.811,3.811,0,0,1-.918-.155,2.394,2.394,0,0,1-.771-.386,1.984,1.984,0,0,1-.537-.613,1.832,1.832,0,0,1-.232-.922,1.378,1.378,0,0,1,.156-.772,1.191,1.191,0,0,1,.459-.614,2.414,2.414,0,0,1,.771-.386,3.852,3.852,0,0,1,1-.154h.922v3.385h5.461v-.922c0-.154-.076-.309-.076-.459a.582.582,0,0,0-.156-.309,1.052,1.052,0,0,0-.309-.232c-.076-.077-.309-.077-.459-.077h-3c-.082-.077-.082-.154-.154-.231,0-.078-.082-.155-.082-.3l1.154-2.154h.617l-1.076,2.154h2.617a2.4,2.4,0,0,1,.768.15,1.381,1.381,0,0,1,.541.386,1.29,1.29,0,0,1,.3.541,1.5,1.5,0,0,1,.076.613v.922h1.922v-4.693h.619v4.693h1.844a.592.592,0,0,1-.154-.381.97.97,0,0,1-.078-.463,2.717,2.717,0,0,1,.156-.845,5.43,5.43,0,0,1,.463-.7,1.852,1.852,0,0,1,.689-.459,3.274,3.274,0,0,1,.846-.154,2.786,2.786,0,0,1,.85.154,2.31,2.31,0,0,1,.691.459,1.848,1.848,0,0,1,.463.7,2.9,2.9,0,0,1,.154.845,1.647,1.647,0,0,1-.154.845h1.844a.592.592,0,0,1-.154-.381.993.993,0,0,1-.076-.463,2.719,2.719,0,0,1,.154-.845,5.43,5.43,0,0,1,.463-.7,1.858,1.858,0,0,1,.691-.459,3.245,3.245,0,0,1,.844-.154,2.715,2.715,0,0,1,.846.154,2.28,2.28,0,0,1,.7.459,1.811,1.811,0,0,1,.459.7,2.777,2.777,0,0,1,.154.845,1.647,1.647,0,0,1-.154.845h2v-4.693h.459v5.234h-3a2.738,2.738,0,0,1-.689.459,2.786,2.786,0,0,1-.85.154A1.524,1.524,0,0,1,17083.459-6536.233Zm.387-3.308a1.614,1.614,0,0,0-.463.309c-.154.077-.232.309-.311.463,0,.228-.076.382-.076.613a1.494,1.494,0,0,0,.076.614,1.653,1.653,0,0,0,.311.463c.154.077.309.231.463.309a1.752,1.752,0,0,0,.613.155,1.473,1.473,0,0,0,.613-.077,1.626,1.626,0,0,0,.463-.309,2.319,2.319,0,0,0,.309-.463,2.178,2.178,0,0,0,.154-.691,1.421,1.421,0,0,0-.154-.613,1.6,1.6,0,0,0-.309-.463c-.076-.154-.309-.231-.463-.309a1.409,1.409,0,0,0-.613-.155A1.424,1.424,0,0,0,17083.846-6539.541Zm-5.77,0a1.6,1.6,0,0,0-.465.309c-.154.077-.227.309-.309.463,0,.228-.072.382-.072.613a1.569,1.569,0,0,0,.072.614,1.732,1.732,0,0,0,.309.463c.154.077.309.231.465.309a1.752,1.752,0,0,0,.617.155,1.5,1.5,0,0,0,.613-.077,1.56,1.56,0,0,0,.459-.309,2.319,2.319,0,0,0,.309-.463,2.178,2.178,0,0,0,.154-.691,1.421,1.421,0,0,0-.154-.613,1.6,1.6,0,0,0-.309-.463c-.078-.154-.3-.231-.459-.309a1.447,1.447,0,0,0-.613-.155A1.428,1.428,0,0,0,17078.076-6539.541Zm-13.541-.537a1.26,1.26,0,0,0-.535.309,1.971,1.971,0,0,0-.387.459,1.844,1.844,0,0,0-.154.618,1.469,1.469,0,0,0,.154.614,1,1,0,0,0,.309.463,1.265,1.265,0,0,0,.537.3,1.506,1.506,0,0,0,.617.077h.613v-2.921h-.535A1.709,1.709,0,0,0,17064.535-6540.077Zm26.152,3.462v-5.311h.619v5.311Zm-31.3,0v-5.311h.615v5.311Zm-18.387,0a3.85,3.85,0,0,1-.922-.155,2.423,2.423,0,0,1-.768-.386,2.111,2.111,0,0,1-.541-.614,1.868,1.868,0,0,1-.227-.922,1.393,1.393,0,0,1,.154-.772,1.154,1.154,0,0,1,.459-.614,2.423,2.423,0,0,1,.768-.386,3.888,3.888,0,0,1,1-.155h.918v3.385h2.385v-3.385h.617v3.385h2.232v-3.385h.617v4Zm-.768-3.462a1.193,1.193,0,0,0-.535.309,1.879,1.879,0,0,0-.387.459,1.8,1.8,0,0,0-.154.618,1.44,1.44,0,0,0,.154.614.98.98,0,0,0,.309.463,1.265,1.265,0,0,0,.537.3,1.03,1.03,0,0,0,.689,0h.617v-2.844h-.617A1.693,1.693,0,0,0,17040.229-6540.077Zm-5.152,3.462v-5.311h.613v5.311Zm-30.613,0a3.881,3.881,0,0,1-.928-.155c-.3-.077-.613-.154-.689-.386a2.111,2.111,0,0,1-.541-.614,1.827,1.827,0,0,1-.227-.922,1.393,1.393,0,0,1,.154-.772,1.154,1.154,0,0,1,.459-.614,2.423,2.423,0,0,1,.768-.386,3.888,3.888,0,0,1,1-.155h.918v3.385h2.313v-3.385h.613v4Zm-.771-3.385a1.265,1.265,0,0,0-.537.3,2.091,2.091,0,0,0-.387.463.833.833,0,0,0-.154.618.648.648,0,0,0,.154.537,1,1,0,0,0,.309.463,1.3,1.3,0,0,0,.537.3,1.506,1.506,0,0,0,.617.077h.691v-2.844h-.613A1.684,1.684,0,0,0,17003.691-6540Zm5.461,3.308v-.618h2.771V-6539c0-.155-.078-.309-.078-.463a.553.553,0,0,0-.154-.3,1.111,1.111,0,0,0-.3-.231.6.6,0,0,0-.391-.078h-.535v-.618h.463a2.223,2.223,0,0,1,.689.154,1.372,1.372,0,0,1,.537.386,1.21,1.21,0,0,1,.309.536,1.491,1.491,0,0,1,.078.618v2.308Zm56.537-4.616v-.618h.613v.618Zm-1.076,0v-.618h.613v.618Zm-23.309,0v-.618h.619v.618Zm-1,0v-.618h.617v.618Zm-35.539,0v-.618h.613v.618Zm-1,0v-.618h.613v.618Zm30.85-3.848,1.381-1.536,1.541,1.459-1.387,1.463Zm-1.7-2.231,1.154-1.227,1.232,1.15-1.154,1.231Zm3.922-.077,1.076-1.15,1.236,1.077-1.154,1.227Zm-10.566-1.158,2.037-.408.408,2.034-2.037.412Zm17.1,1.334.258-2.063,2.059.257-.252,2.06Zm25.547-12.1v-.077a12.128,12.128,0,0,1,12.541-12.154c7.3,0,12.539,5.388,12.461,12.076v.078a12.124,12.124,0,0,1-12.539,12.153C17074.154-6547.31,17068.92-6552.694,17068.92-6559.386Zm5.389-.155v.078a7.191,7.191,0,0,0,7.152,7.387,7.063,7.063,0,0,0,7.078-7.31,7.214,7.214,0,0,0-7.156-7.46A7.061,7.061,0,0,0,17074.309-6559.541Zm-24.312,8.156,3.541-3.385a7.134,7.134,0,0,0,5.691,2.849c1.922,0,3.309-1.077,3.309-2.849v-.077c0-1.922-1.7-3-4.617-3h-2.152l-.846-3.308,7.537-7.538-3,1.922h-8.156v-4.461h15.926v3.925l-6,5.688c3.23.541,6.383,2.154,6.465,6.538v.077c0,4.461-3.234,7.692-8.465,7.692A11.416,11.416,0,0,1,17050-6551.385Zm-20.6,2.256,1.66-.331.313,1.583-1.66.335Zm-27.164,1.437v-4.08l7.842-6.461c2.926-2.385,4.08-3.689,4.08-5.616a2.889,2.889,0,0,0-3.154-3.076c-1.844,0-3.08,1-4.848,3.153l-3.611-2.921c2.3-3.153,4.535-4.848,8.764-4.848,4.926,0,8.156,2.849,8.156,7.233v.077c0,3.921-2.076,5.843-6.229,9.074l-5.158,4-1,.768,3.615-1.768h9v4.461Zm38.473-.4.2-1.6,1.682.206-.2,1.6Zm-5.629-.832.922-.922.928.845-.85.922Zm-3.385-.463.85-.922,1,.845-.928,1Zm6.848.438.158-1.3,1.3.163-.162,1.3Zm-5.08-1.437.926-1,.924.922-.846.922Zm2.848-.077.924-.922.922.845-.922.922Zm-10.064-.893,1.662-.334.316,1.587-1.66.33Zm2.639-.043,1.283-.257.258,1.283-1.283.257Zm14.908,1.06.2-1.6,1.682.21-.2,1.6Zm-2.238-.159.162-1.3,1.295.159-.162,1.3Zm-2.219-.317.162-1.3,1.3.159-.162,1.3Zm-8.523-1.124,1.277-.257.258,1.283-1.283.257Zm4.422.4.613-.69.7.613-.617.695Zm-2.463-.459.613-.618.619.618-.619.614Zm5.08.3.115-.914.914.111-.111.918Zm-9.348-1.857,1.283-.258.256,1.283-1.281.253Zm-2.193.7.537-1.154,1.23.463-.535,1.231Zm15.338.352.162-1.3,1.3.163-.164,1.3Zm-11.111-.944.9-.18.186.905-.906.18Zm13.158-.253,1.152-.614.619,1.077-1.154.613Zm-3.531.939.115-.914.914.112-.111.918Zm-16.393-.631.617-1.463,1.541.618-.7,1.536Zm22.076-1.231,1.463-.768.768,1.458-1.463.772Zm-25.152.231.846-1.849,1.922.85-.846,1.845Zm17.383.3c-.227-.15-.381-.3-.613-.459-.154-.154-.309-.232-.463-.386-.387-.382-.768-.768-1.23-1.154l-.232-.232c-.072.077-.154.155-.227.232a9.531,9.531,0,0,1-2.387,2,.837.837,0,0,1-.844-.15.927.927,0,0,1-.082-.463.656.656,0,0,1,.387-.386.6.6,0,0,1,.539.231.076.076,0,0,1,.078-.077,24.617,24.617,0,0,0,2.154-1.845,10.449,10.449,0,0,0-2.154-1.386,8.085,8.085,0,0,0-1.85-.459,5.652,5.652,0,0,0-1.922.15c-.076.077-.076.077-.154.077h0a.273.273,0,0,1,.154-.077,5.08,5.08,0,0,1,1.922-.459,4.059,4.059,0,0,1,1.85.231c.078,0,.154.077.232.077a8.57,8.57,0,0,1,1.922,1.15,24.024,24.024,0,0,0,.076-5.229c-.768.463-.541,1.849-.387,2.23a2.265,2.265,0,0,1-.309-2.689,2.247,2.247,0,0,0-.768,2.153,2.277,2.277,0,0,1,.613-2.849A1.842,1.842,0,0,0,17033-6562a1.682,1.682,0,0,1,0-1.231,1.807,1.807,0,0,1,1.381-1.154,1.672,1.672,0,0,0-1.381.382.7.7,0,0,0-.3.27,1.368,1.368,0,0,1,.3-.652,1.593,1.593,0,0,1,1.768-.463,1.153,1.153,0,0,0-1.387-.382,1.115,1.115,0,0,1,1.85.077c.078-.077.078-.231.15-.309.082-.232.154-.463.232-.772a2.98,2.98,0,0,0,.23.772c.078.077.078.231.154.309a1.158,1.158,0,0,1,1.078-.541,1.091,1.091,0,0,1,.463.155.738.738,0,0,1,.381.309.679.679,0,0,0-.381-.077.979.979,0,0,0-.463.077.867.867,0,0,0-.537.382,1.121,1.121,0,0,1,.537-.077.979.979,0,0,1,.463.077,1.561,1.561,0,0,1,.613.309,1.16,1.16,0,0,1,.459.845.872.872,0,0,0-.383-.459,5,5,0,0,0-.617-.231h-.689c.076,0,.154.077.23.077.154.077.309.154.459.228a2.279,2.279,0,0,1,.617.618,1.969,1.969,0,0,1,.156,1.54,2.714,2.714,0,0,0-.156-.772,2.206,2.206,0,0,0-.617-.845c-.15-.077-.3-.154-.459-.232-.076-.077-.076-.077-.154-.077.078.077.078.077.154.155a1.543,1.543,0,0,1,.459.618,2.409,2.409,0,0,1,0,2.076v-.695a2.394,2.394,0,0,0-.459-1.154c-.154-.15-.23-.3-.387-.382a2.378,2.378,0,0,1-.3,2.69c.148-.382.381-1.768-.387-2.23a19.967,19.967,0,0,0,.076,5.233c.311-.231.691-.463,1-.695.154-.077.309-.154.459-.231a3.221,3.221,0,0,0,.541-.228h.076c.383-.077.691-.154,1-.231a4.961,4.961,0,0,1,2.23.154c.387.154.691.3.846.382a6.835,6.835,0,0,1-1-.15,5.45,5.45,0,0,0-2.23.15,3.934,3.934,0,0,0-1,.386,2.378,2.378,0,0,0-.613.309,1.6,1.6,0,0,1-.463.3,11.137,11.137,0,0,0-1,.772,10.7,10.7,0,0,1,1,.845c.154.155.309.232.463.386a4.172,4.172,0,0,1,.613.459c.078.077.154.154.232.154.154-.154.3-.309.541-.231.072.077.15.077.227.154s.154.155.154.232a.464.464,0,0,1-.076.459l-.078.077a.769.769,0,0,1-.471.174A1.044,1.044,0,0,1,17038.074-6554.08Zm10.232-1.768,1.768-1,1,1.845-1.771,1Zm-19.541.639.9-.18.186.905-.906.18Zm13-.021.771-.386.459.768-.768.463Zm-15.162.082.545-1.192,1.189.545-.541,1.188Zm16.7-.622,1.158-.613.613,1.154-1.154.614Zm-18.5-.068.545-1.188,1.189.541-.541,1.188Zm20.43-1.008,1.154-.618.613,1.154-1.154.618Zm-22.768-.154.691-1.536,1.463.691-.7,1.463Zm5,.154.387-.845.764.382-.383.85Zm15.539-.536.768-.463.463.768-.844.463Zm4-.927,1.463-.768.768,1.463-1.463.768Zm-2.844-.154,1.154-.614.613,1.154-1.154.613Zm-18.486.6.541-1.193,1.193.545-.545,1.188Zm16.637-.519v0Zm-18.219-.785.539-1.188,1.193.541-.545,1.193Zm21.682-.292.539-1.154,1.154.541-.539,1.154Zm-18.687.154.381-.845.846.386-.381.768Zm16.242-.279.4-.833.832.4-.395.832Zm-21.018-2.029,1.387-.845.844,1.463-1.459.845Zm3.385.231,1.076-.613.619,1.154-1.078.614Zm18.541.541.537-1.231,1.158.613-.541,1.154Zm2.691-.618.771-1.458,1.459.691-.691,1.536Zm-19.615-.845.846-.386.387.772-.77.459Zm15.693.232.387-.772.768.386-.387.768Zm-18.461-.922,1.154-.618.613,1.154-1.152.618Zm20.615.15.535-1.154,1.154.541-.537,1.154Zm-24.771-1.3,1.85-1.077,1,1.845-1.768,1Zm6.08.073,1.152-.614.613,1.077-1.152.695Zm21.768.231.844-1.922,1.85.922-.85,1.849Zm-4.926.309.541-1.154,1.154.541-.537,1.154Zm-10.6-.193a.286.286,0,0,0-.01.039A.107.107,0,0,1,17032.7-6563.732Zm-4.162-.729.768-.463.463.772-.85.459Zm13.307-.369.91-.167.166.909-.908.163Zm-18.459-.476,1.457-.85.773,1.463-1.387.768Zm22.381.228.7-1.536,1.457.768-.689,1.463Zm-19.77-1,1.078-.691.693,1.154-1.152.614Zm17.74-.562,1.287-.236.23,1.287-1.281.232Zm-2-.232,1.287-.236.236,1.287-1.287.236Zm-13.354,1.146.137-1.3,1.3.142-.137,1.3Zm11.689-.952.91-.167.166.909-.908.167Zm-9.725.811.1-.918.914.1-.094.918Zm7.344-1.514.613-.7.613.618-.613.691Zm-5.113.4.1-.918.918.1-.1.918Zm6.852-1.505,1.285-.236.232,1.287-1.283.232Zm-4.2.562.613-.614.619.614-.619.69Zm-4.547.541.137-1.3,1.3.138-.139,1.3Zm-4.959-.086.172-1.6,1.686.18-.172,1.6Zm2.732-.167.137-1.3,1.3.137-.139,1.3Zm15.105-1.583,1.664-.3.287,1.587-1.664.3Zm-2.287.193,1.287-.236.236,1.287-1.287.236Zm-4.891.025.922-.922.922.922-.844.922Zm-3.08-.077.922-.922.928.922-.928.922Zm4.924-.922.924-.922.922.922-.922.922Zm-6.785.614.137-1.3,1.3.142-.137,1.3Zm3.4-1.077.846-.922.928.845-.85.927Zm-6.07.6.172-1.609,1.682.18-.172,1.609Zm11.631-1.661,1.664-.3.293,1.587-1.666.3Zm-14.672,1.261.223-2.063,2.064.219-.219,2.064Zm17.328-2.067,2.041-.374.379,2.042-2.043.374Zm-6.521.334,1.076-1.154,1.232,1.077-1.154,1.231Zm-3.926,0,1.154-1.154,1.232,1.077-1.154,1.231Zm1.771-2,1.387-1.536,1.459,1.463-1.387,1.459Zm43.309-1.073v-1h1v1Zm-2.08,0v-1h1v1Zm12.844-2,.309-1a.585.585,0,0,0,.309.077h.232a.963.963,0,0,0,.459-.077.606.606,0,0,0,.309-.3.648.648,0,0,0,.154-.463,2.337,2.337,0,0,0,.078-.768v-7.233h1v7.233a4.675,4.675,0,0,1-.078,1.077,2.811,2.811,0,0,1-.309.845,2.017,2.017,0,0,1-.613.536,3.871,3.871,0,0,1-1,.232A3.289,3.289,0,0,1,17088.457-6577.079Zm-5.385.077a8.808,8.808,0,0,1-1.076-.3l.309-1a6.054,6.054,0,0,0,.846.309,2.9,2.9,0,0,0,.85.077,2.187,2.187,0,0,0,1.3-.386,1.339,1.339,0,0,0,.463-1.15v-1l-.387.695h-.309a5.846,5.846,0,0,1-1.613-.231,3.823,3.823,0,0,1-1.385-.618,3.187,3.187,0,0,1-.846-1,3.023,3.023,0,0,1-.3-1.536,3,3,0,0,1,.3-1.386,2.523,2.523,0,0,1,.846-1.154,4.057,4.057,0,0,1,1.385-.768,4.508,4.508,0,0,1,1.768-.309h1.7v7.233a2.694,2.694,0,0,1-.691,1.922,3.113,3.113,0,0,1-2.23.691A3.756,3.756,0,0,1,17083.072-6577Zm.541-8.614a2.667,2.667,0,0,0-.922.541,2.911,2.911,0,0,0-.617.768,4.352,4.352,0,0,0-.3,1.077,2.118,2.118,0,0,0,.227,1,2.95,2.95,0,0,0,.617.768,2.617,2.617,0,0,0,.924.463,4.512,4.512,0,0,0,1.076.154h1.076v-4.616l.613-.309h-1.689A2.266,2.266,0,0,0,17083.613-6585.616Zm-56,3.617a4.941,4.941,0,0,1,5-5,4.786,4.786,0,0,1,4.926,5,4.94,4.94,0,0,1-5,5A4.876,4.876,0,0,1,17027.615-6582Zm5-3.925a3.831,3.831,0,0,0-3.766,4,3.889,3.889,0,0,0,3.844,4,3.832,3.832,0,0,0,3.771-4,3.813,3.813,0,0,0-3.715-4C17032.7-6585.927,17032.658-6585.926,17032.613-6585.924Zm-17,7.31.689-.772a4.459,4.459,0,0,0,3.309,1.386c1.309,0,2.154-.69,2.154-1.613s-.465-1.386-2.541-1.849c-2.23-.459-3.23-1.154-3.23-2.767,0-1.463,1.309-2.617,3.154-2.617a5.165,5.165,0,0,1,3.385,1.154l-.613.845a3.962,3.962,0,0,0-2.771-1.077c-1.3,0-2.076.695-2.076,1.54s.463,1.386,2.615,1.845,3.154,1.308,3.23,2.694c0,1.69-1.385,2.767-3.307,2.767A5.56,5.56,0,0,1,17015.617-6578.614Zm-9.465,1.536-4.152-9.768h1.23l.619,1.463,2.844,6.924.232.614-.078-1.077,3.309-7.923h1.152l-4.156,9.768Zm54.076-.077a1.663,1.663,0,0,1-.922-.154,1.988,1.988,0,0,1-.613-.536l-.078-.078v.768h-2.152a4.623,4.623,0,0,1-4.693-4.92,4.712,4.712,0,0,1,4.766-4.848h2.771v7.156c0,.3.076.537.076.768a1.112,1.112,0,0,0,.154.463.6.6,0,0,0,.311.3c.072.077.227.077.459.077h17.77v-8.691h1v9.691Zm-7.461-4.843a3.8,3.8,0,0,0,3.7,3.921h2a1.43,1.43,0,0,1-.154-.536,4.792,4.792,0,0,1-.076-1.077v-5.848l.617-.309h-2.385A3.686,3.686,0,0,0,17052.768-6582Zm-6.078,4.843-6.842-8.691.613,1.386v7.306h-1.078v-9.691h1l6.615,8.387-.463-1.231v-7.156h1.08v9.691Zm-22,0v-9.691h1.078v9.691Zm-11.844,0v-9.691h1.076v9.691Zm71.613-10.691v-.845a1.3,1.3,0,0,1,.309-1,1.227,1.227,0,0,1,.922-.309h.691v.69h-.691c-.154,0-.227,0-.309.078s-.072.154-.072.309v.309h1.381v.768Zm-26.229-.077v-1h1v1Zm-2,0v-1h1v1Z" transform="translate(-17002 6590)" fill="#fff"></path></svg>